<?xml version="1.0" encoding="UTF-8"?>
<svg xmlns="http://www.w3.org/2000/svg" xmlns:xlink="http://www.w3.org/1999/xlink" viewBox="0 0 534.71 331.67">
  <defs>
    <style>
      .cls-1 {
        fill: url(#_名称未設定グラデーション_26);
      }

      .cls-2 {
        fill: #1baaeb;
      }

      .cls-3 {
        fill: url(#_名称未設定グラデーション_28);
      }

      .cls-4 {
        fill: #fff21b;
      }
    </style>
    <linearGradient id="_名称未設定グラデーション_28" data-name="名称未設定グラデーション 28" x1="245.1" y1="134.55" x2="267.82" y2="134.55" gradientTransform="translate(189.47 463.36) rotate(-107.6)" gradientUnits="userSpaceOnUse">
      <stop offset="0" stop-color="#00a0e9"/>
      <stop offset="1" stop-color="#fff100"/>
    </linearGradient>
    <linearGradient id="_名称未設定グラデーション_26" data-name="名称未設定グラデーション 26" x1="235.11" y1="127.22" x2="258.01" y2="127.22" gradientTransform="translate(99.13 405.7) rotate(-86.74)" gradientUnits="userSpaceOnUse">
      <stop offset="0" stop-color="#fff100"/>
      <stop offset="1" stop-color="#00a0e9"/>
    </linearGradient>
  </defs>
  <g id="shadow">
    <path class="cls-2" d="m236.3,174.07c.16-.26.22-.35.68-.54,2.92-1.45,8.83-2.5,10.06,5.85.02.15.03.82-.07,1.09l-10.64,17.68-19.56,32.51-4.89,8.13-2.44,4.06-1.22,2.03-.31.51v.02c9.68,5.38-13.22-7.31-10.85-6.01l.02-.04.04-.08.09-.16.18-.32.72-1.26c1.98-3.31,4.41-6.17,7.07-8.68,2.67-2.51,5.59-4.67,8.73-6.48h0c5.24-3,11.04-5.25,17.76-5.65h2.57c.89.08,1.78.18,2.67.29.87.15,1.72.38,2.57.58.84.22,1.63.54,2.44.81,3.16,1.22,5.83,2.89,8.2,4.53,2.37,1.64,4.46,3.28,6.45,4.69,1.98,1.41,3.86,2.57,5.62,3.29,1.84.75,3.14.97,5.6,1.1,2.22.08,4.45-.07,6.66-.42,8.88-1.41,17.22-6.38,23.53-13.27.79-.86,1.53-1.74,2.23-2.64.35-.45.69-.91,1.01-1.37.16-.23.33-.46.48-.7l.41-.62c.58-.91,1.11-1.83,1.6-2.77.96-1.87,1.74-3.86,2.25-5.82,0,0,.35-.9.76-2.48.41-1.58.85-3.87.9-6.49.05-2.64-.34-5.49-1.5-8.14-1.1-2.67-3.07-5.02-5.37-6.84-1.98-1.5-3.95-2.46-5.56-3.25-1.68-.76-2.97-1.35-3.92-1.79-1.95-.92-2.47-1.58-1.82-2.13.65-.52,2.49-.95,5.17-.9,1.33.04,2.88.17,4.56.54,1.69.34,3.51.91,5.37,1.78-.37-.22,1.78.49,4.71,2.85,1.47,1.16,3.04,2.81,4.45,4.8.34.51.69,1.02,1.02,1.56.3.55.6,1.11.9,1.68.58,1.15,1.08,2.38,1.47,3.61,1.64,4.96,1.78,10.11,1.42,13.9-.18,1.9-.45,3.49-.7,4.59-.24,1.11-.41,1.74-.41,1.74-.88,2.77-2.06,5.42-3.45,7.92-.36.62-.71,1.24-1.09,1.84l-.28.45-.49.74c-.41.62-.83,1.22-1.26,1.81-1.74,2.36-3.64,4.54-5.68,6.54-4.05,4.05-8.74,7.52-13.92,10.19-5.17,2.66-10.86,4.5-16.75,5.18-1.47.2-2.96.26-4.44.33-1.49-.01-2.98,0-4.46-.15l-1.12-.09c-.39-.04-.85-.13-1.27-.19-.86-.14-1.73-.28-2.54-.54-1.67-.43-3.22-1.06-4.66-1.74-2.89-1.38-5.32-3.05-7.51-4.64-2.19-1.59-4.16-3.12-6.05-4.39-1.89-1.27-3.69-2.27-5.39-2.86-1.74-.6-3.23-.8-5.12-.7-3.77.27-8.01,1.78-11.77,3.97h0c-4.67,2.68-8.8,6.53-11.35,10.76l-.46.8-.12.2-.06.1-.03.05v.02c2.35,1.32-20.6-11.44-10.88-6.05v-.02s.32-.51.32-.51l1.22-2.03,2.44-4.06,4.89-8.13,19.55-32.52,10.63-17.68Z"/>
    <path class="cls-4" d="m246.38,171.12c.19.11.26.14.37.55.12.31.23.71.36,1.08.13.37.25.79.36,1.24.21.9.35,1.93.26,2.98-.08,1.03-.45,2.12-1.34,3.05-.45.47-1.05.9-1.84,1.27-.79.36-1.81.72-3,.8-.17.02-.97-.01-1.32-.15-3.81-2.16-7.02-5.14-9.53-8.5-2.52-3.37-4.37-7.11-5.6-11.01-.54-1.59-.88-3.24-1.22-4.88-.24-1.66-.5-3.32-.54-5-.16-3.36.08-6.77.91-10.11,1.53-6.57,4.75-12.46,8.8-17.48,1.05-1.22,2.09-2.45,3.23-3.56.55-.58,1.12-1.14,1.72-1.66l1.44-1.31.09-.07h.01s.06-.03.02-.03h-.02s-.01,0-.01,0h-.11s-.16,0-.16,0l-.46.02-2.73.12c-1.82.13-3.64.25-5.45.46-7.26.77-14.43,2.29-21.37,4.52-.85.29-1.76.56-2.57.86-.79.31-1.61.57-2.38.92-.79.32-1.57.66-2.33,1.04-.78.35-1.52.77-2.27,1.17-2.99,1.62-5.77,3.64-8.37,5.88-.66.54-1.27,1.17-1.91,1.74l-1.43,1.43c-.71.77-1.45,1.53-2.12,2.34-1.39,1.59-2.66,3.29-3.89,5.04,0,0-.17.21-.48.6-.15.19-.34.43-.57.71-.16.23-.35.5-.56.79-.46.55-.88,1.39-1.42,2.3-.45.99-1,2.08-1.41,3.39-.9,2.57-1.59,5.74-1.9,9.05-.32,3.31-.3,6.74.04,9.83.72,5.22,1.95,8.49,2.55,10.52.68,1.99.6,2.87-.24,2.8-.8-.1-2.49-1.16-4.26-3.26-1.73-2.1-3.52-5.17-4.81-8.79.01.2-.14-.19-.42-1.04-.31-.85-.64-2.16-1.01-3.8-.7-3.28-1.26-7.92-.98-12.72.04-1.2.23-2.41.35-3.6.19-1.2.41-2.38.66-3.53.33-1.15.58-2.27.97-3.33.42-1.06.73-2.07,1.21-2.99.46-.9.91-1.8,1.29-2.46.37-.61.69-1.15.96-1.59.53-.89.87-1.38.87-1.38,1.44-2.01,3.02-3.94,4.68-5.8l1.27-1.38,1.49-1.51c.72-.74,1.5-1.42,2.26-2.14.79-.68,1.56-1.37,2.37-2.02,3.24-2.62,6.75-4.93,10.48-6.84,1.87-.94,3.78-1.81,5.74-2.55,2-.77,3.81-1.33,5.71-1.94,7.56-2.3,15.32-3.91,23.18-4.69.98-.11,1.96-.2,2.95-.27.98-.06,1.97-.17,2.95-.2l3.01-.13h5.28c.87-.02,1.77.02,2.67.08l2.69.14c.89.05,1.81.08,2.67.15l2.5.27,2.5.27.63.07.31.03.25.06.99.25,1.98.49.99.25c.3.09.76.14.8.3l1.21,1.21.6.61c.13.19.17.37.26.56l.47,1.11c.04.1.08.16.11.31l.02.12.04.24.04.24.02.41.02.42v.21c0,.08-.03.22-.04.33l-.25,1.38-.02.09s-.06.09-.09.13l-.19.27-.38.54-.75,1.09-.38.54-.09.14s-.05.09-.17.15l-.57.33c-.38.22-.75.45-1.15.66l-1.35.6-2.69,1.21-.67.3c-.2.1-.35.2-.53.3l-1.03.61-2.06,1.21-1.03.61c-.34.2-.71.4-.96.62l-3.35,2.55-.42.32-.21.16-.1.09-.34.31-.68.62c-.47.4-.9.84-1.32,1.28-.88.85-1.65,1.79-2.45,2.7-1.51,1.88-2.83,3.88-3.91,5.96-1.1,2.07-1.88,4.32-2.41,6.5-.54,2.14-.7,4.41-.59,6.68,0,1.14.22,2.27.36,3.4.25,1.12.46,2.24.84,3.32,1.66,5.31,5.05,9.98,9.42,12.43Z"/>
    <ellipse class="cls-3" cx="240.17" cy="178.23" rx="10.32" ry="11.46"/>
  </g>
  <g id="_レイヤー_2" data-name="レイヤー 2">
    <path class="cls-4" d="m236.3,162.62c.16-.26.22-.35.68-.54,2.92-1.45,8.83-2.5,10.06,5.85.02.15.03.82-.07,1.09l-10.64,17.68-19.56,32.51-4.89,8.13-2.44,4.06-1.22,2.03-.31.51v.02c9.68,5.38-13.22-7.31-10.85-6.01l.02-.04.04-.08.09-.16.18-.32.72-1.26c1.98-3.31,4.41-6.17,7.07-8.68,2.67-2.51,5.59-4.67,8.73-6.48h0c5.24-3,11.04-5.25,17.76-5.65h2.57c.89.08,1.78.18,2.67.29.87.15,1.72.38,2.57.58.84.22,1.63.54,2.44.81,3.16,1.22,5.83,2.89,8.2,4.53,2.37,1.64,4.46,3.28,6.45,4.69,1.98,1.41,3.86,2.57,5.62,3.29,1.84.75,3.14.97,5.6,1.1,2.22.08,4.45-.07,6.66-.42,8.88-1.41,17.22-6.38,23.53-13.27.79-.86,1.53-1.74,2.23-2.64.35-.45.69-.91,1.01-1.37.16-.23.33-.46.48-.7l.41-.62c.58-.91,1.11-1.83,1.6-2.77.96-1.87,1.74-3.86,2.25-5.82,0,0,.35-.9.76-2.48.41-1.58.85-3.87.9-6.49.05-2.64-.34-5.49-1.5-8.14-1.1-2.67-3.07-5.02-5.37-6.84-1.98-1.5-3.95-2.46-5.56-3.25-1.68-.76-2.97-1.35-3.92-1.79-1.95-.92-2.47-1.58-1.82-2.13.65-.52,2.49-.95,5.17-.9,1.33.04,2.88.17,4.56.54,1.69.34,3.51.91,5.37,1.78-.37-.22,1.78.49,4.71,2.85,1.47,1.16,3.04,2.81,4.45,4.8.34.51.69,1.02,1.02,1.56.3.55.6,1.11.9,1.68.58,1.15,1.08,2.38,1.47,3.61,1.64,4.96,1.78,10.11,1.42,13.9-.18,1.9-.45,3.49-.7,4.59-.24,1.11-.41,1.74-.41,1.74-.88,2.77-2.06,5.42-3.45,7.92-.36.62-.71,1.24-1.09,1.84l-.28.45-.49.74c-.41.62-.83,1.22-1.26,1.81-1.74,2.36-3.64,4.54-5.68,6.54-4.05,4.05-8.74,7.52-13.92,10.19-5.17,2.66-10.86,4.5-16.75,5.18-1.47.2-2.96.26-4.44.33-1.49-.01-2.98,0-4.46-.15l-1.12-.09c-.39-.04-.85-.13-1.27-.19-.86-.14-1.73-.28-2.54-.54-1.67-.43-3.22-1.06-4.66-1.74-2.89-1.38-5.32-3.05-7.51-4.64-2.19-1.59-4.16-3.12-6.05-4.39-1.89-1.27-3.69-2.27-5.39-2.86-1.74-.6-3.23-.8-5.12-.7-3.77.27-8.01,1.78-11.77,3.97h0c-4.67,2.68-8.8,6.53-11.35,10.76l-.46.8-.12.2-.06.1-.03.05v.02c2.35,1.32-20.6-11.44-10.88-6.05v-.02s.32-.51.32-.51l1.22-2.03,2.44-4.06,4.89-8.13,19.55-32.52,10.63-17.68Z"/>
  </g>
  <g id="_レイヤー_6" data-name="レイヤー 6">
    <path class="cls-2" d="m246.38,159.67c.19.11.26.14.37.55.12.31.23.71.36,1.08.13.37.25.79.36,1.24.21.9.35,1.93.26,2.98-.08,1.03-.45,2.12-1.34,3.05-.45.47-1.05.9-1.84,1.27-.79.36-1.81.72-3,.8-.17.02-.97-.01-1.32-.15-3.81-2.16-7.02-5.14-9.53-8.5-2.52-3.37-4.37-7.11-5.6-11.01-.54-1.6-.88-3.25-1.23-4.89-.24-1.67-.5-3.33-.54-5.02-.15-3.37.09-6.79.92-10.14,1.54-6.59,4.79-12.49,8.87-17.51,1.05-1.22,2.1-2.45,3.25-3.57.55-.58,1.13-1.13,1.73-1.66l.88-.81.43-.39.06-.05.24-.19h.01s.06-.03.02-.03h-.02s-.01,0-.01,0h-.23s-.29,0-.29,0h-.15s-.53.02-.53.02l-2.73.09c-1.82.11-3.63.22-5.43.42-3.61.37-7.19.93-10.72,1.69-3.52.79-6.99,1.77-10.37,2.96-6.82,2.44-13.42,5.51-18.39,9.71-.65.5-1.22,1.1-1.83,1.64l-1.33,1.37-1,1.12-.97,1.18c-1.27,1.61-2.48,3.36-3.67,5.21,0,0-.17.23-.48.65-.15.21-.34.47-.57.76-.16.24-.35.52-.56.83-.87,1.19-1.93,3.2-2.81,5.8-.9,2.59-1.6,5.77-1.93,9.09-.34,3.31-.34,6.75-.02,9.83.69,5.22,1.91,8.49,2.5,10.52.68,1.99.6,2.87-.24,2.8-.8-.1-2.49-1.16-4.26-3.27-1.72-2.1-3.51-5.19-4.77-8.82.06.4-.72-1.56-1.41-4.86-.68-3.29-1.2-7.92-.92-12.7.23-4.77,1.42-9.71,3.1-13.38.22-.46.43-.9.64-1.31.2-.4.41-.86.57-1.12.33-.61.63-1.13.87-1.57.51-.88.8-1.38.8-1.38,1.35-2.02,2.8-4.06,4.46-6.03.41-.49.85-.97,1.28-1.46.22-.24.43-.49.66-.72l.85-.87c.74-.78,1.57-1.48,2.35-2.22.83-.68,1.64-1.4,2.5-2.03,3.41-2.59,7.04-4.68,10.68-6.43,3.66-1.75,7.29-3.21,11.1-4.52,7.59-2.53,15.44-4.18,23.33-4.9,1.97-.21,3.95-.31,5.92-.42l2.96-.1,4.96.04h1.26s1.34.09,1.34.09l2.7.16,2.7.16,2.54.27,2.53.28,1.27.14,1.02.25,4.03,1.01,1.22,1.23.61.61.15.15s.04.09.07.14l.12.28.46,1.11.12.28s.02.06.03.11v.04s.02.06.02.06l.04.25.04.25c.02.08.01.27.02.4l.02.43v.22s0,.11,0,.11l-.04.18-.3,1.43-.04.18c0,.06-.12.18-.18.26l-.42.56-.83,1.12-.42.56-.21.28s-.04.09-.13.14l-.3.17-1.22.66-1.33.6-2.65,1.2c-.42.2-.94.4-1.27.6l-1.02.61-4.05,2.42-3.18,2.44-.8.61-.36.32-.68.62c-.46.41-.91.83-1.33,1.28-.88.86-1.67,1.79-2.47,2.7-1.52,1.88-2.85,3.88-3.95,5.97-1.1,2.08-1.89,4.33-2.43,6.52-.55,2.14-.7,4.43-.6,6.7,0,1.14.22,2.28.36,3.41.25,1.12.46,2.25.84,3.33,1.66,5.31,5.05,9.98,9.42,12.43Z"/>
  </g>
  <g id="_レイヤー_4" data-name="レイヤー 4">
    <ellipse class="cls-1" cx="240.17" cy="166.77" rx="10.32" ry="11.46"/>
  </g>
</svg>