<?xml version="1.0" encoding="UTF-8"?>
<svg id="_レイヤー_2" data-name="レイヤー_2" xmlns="http://www.w3.org/2000/svg" viewBox="0 0 211.08 21.6">
  <defs>
    <style>
      .cls-1 {
        fill: #00a0e9;
      }
    </style>
  </defs>
  <g id="_レイヤー_1-2" data-name="レイヤー_1">
    <g>
      <path class="cls-1" d="M0,2.88h8.16V0h4.22l-1.63,1.63v1.25h8.16v18.72H0V2.88ZM16.32,8.33v-3.05H2.59v3.05h13.73ZM16.32,13.75v-3.02H2.59v3.02h13.73ZM16.32,19.2v-3.05H2.59v3.05h13.73Z"/>
      <path class="cls-1" d="M23.42,4.32h8.76V0h4.18l-1.63,1.63v2.69h8.76v17.28h-20.07V4.32ZM32.18,11.52v-4.8h-6.22v4.8h6.22ZM32.18,19.2v-5.28h-6.22v5.28h6.22ZM40.95,11.52v-4.8h-6.22v4.8h6.22ZM40.95,19.2v-5.28h-6.22v5.28h6.22Z"/>
      <path class="cls-1" d="M51.48,1.56h4.22l-1.63,1.63v14.98c4.27,0,8.81-2.45,9.58-6.58l-1.42-1.44h4.13v.26c0,5.88-5.76,10.35-12.12,10.35h-2.76V1.56Z"/>
      <path class="cls-1" d="M77.38,6.14v6.38h-2.33v-4.92l-1.46-1.46h3.79ZM74.26,18.46h3.07c5.35,0,8.33-2.38,8.33-7.75v-3.1l-1.49-1.46h3.79v4.56c0,6.62-4.03,10.06-10.63,10.06h-.77l-2.3-2.3ZM81.6,6.14v6.38h-2.3v-4.92l-1.46-1.46h3.77Z"/>
      <path class="cls-1" d="M95.76,18.22h1.54c3.79,0,7.13-1.61,9.62-4.44,2.02-2.28,3.5-5.5,3.55-8.5h-11.02l-1.63,1.63V2.78h15.27v2.5c-.07,3.43-1.61,7.03-3.79,9.7l5.78,5.79h-3.65l-3.91-3.91c-2.57,2.33-5.76,3.72-9.19,3.94l-2.57-2.57Z"/>
      <path class="cls-1" d="M121.1,18.17h3.82c6.91,0,10.44-3.38,10.44-10.08v-3.67l-1.63-1.63h4.22v5.3c0,8.26-4.8,12.67-13.03,12.67h-1.22l-2.59-2.59ZM121.2,4.25h8.64v2.5h-7.01l-1.63,1.63v-4.13Z"/>
      <path class="cls-1" d="M161.43,20.28h-15.94v-4.13l1.63,1.63h11.71V5.45h-11.71l-1.63,1.63V2.95h15.94v17.33Z"/>
      <path class="cls-1" d="M169.63,10.56h15.6l-2.4,2.4h-11.57l-1.63,1.63v-4.03Z"/>
      <path class="cls-1" d="M191.76,18.22h1.54c3.79,0,7.13-1.61,9.62-4.44,2.02-2.28,3.5-5.5,3.55-8.5h-11.02l-1.63,1.63V2.78h15.27v2.5c-.07,3.43-1.61,7.03-3.79,9.7l5.78,5.79h-3.65l-3.91-3.91c-2.57,2.33-5.76,3.72-9.19,3.94l-2.57-2.57Z"/>
    </g>
  </g>
</svg>