<?xml version="1.0" encoding="UTF-8"?>
<svg id="_レイヤー_2" data-name="レイヤー_2" xmlns="http://www.w3.org/2000/svg" viewBox="0 0 212.43 22.03">
  <defs>
    <style>
      .cls-1 {
        fill: #9a58a0;
      }
    </style>
  </defs>
  <g id="_レイヤー_1-2" data-name="レイヤー_1">
    <g>
      <path class="cls-1" d="M16.03,13.73H5.57L0,19.3v-3.46l2.11-2.11h-1.1l-1.01,1.01v-3.26h3.72v-6.94H1.61l-1.01,1.01v-3.27h3.12V0h4.22l-1.63,1.63v.65h8.98v-.65l-1.63-1.63h4.22v2.28h3.12v3.27l-1.01-1.01h-2.11v6.94h3.72v3.26l-1.01-1.01h-1.1l2.11,2.11v3.46l-5.57-5.57ZM1.2,18.19l1.01,1.01h7.32v-1.1h-4.58l-.62.62v-3.02h5.21v-1.78h3.55l-1.01,1.01v.77h5.21v3.02l-.62-.62h-4.58v1.1h7.32l1.01-1.01v3.41H1.2v-3.41ZM15.29,5.35v-.82H6.31v.82h8.98ZM15.29,8.4v-.79H6.31v.79h8.98ZM15.29,11.47v-.82H6.31v.82h8.98Z"/>
      <path class="cls-1" d="M23.88,9.58c2.02-1.97,3.07-4.03,3.38-6.14h-1.34l-1.63,1.63V1.03h7.3v2.4h-1.92c-.14,1.3-.5,2.57-1.08,3.77h2.62v11.14h-5.62v-7.06l-1.7,1.7v-3.41ZM28.94,15.94v-6.34h-1.1v6.34h1.1ZM30.94,18.84l1.87-1.87v-2.83h3.94l-1.63,1.63v2.21c.17,1.06.84,1.32,2.09,1.35v-6.41h-4.1l-1.63,1.63v-4.03h14.52c-.12,1.78-.55,3.65-1.68,5.02l-1.54-1.54c.29-.41.43-.7.58-1.08h-3.65v1.92h3.7v3.41l-1.01-1.01h-2.69v2.09h6.14l-2.28,2.28h-6.29c-1.82,0-3.26-.6-3.96-1.92l-2.38,2.35v-3.19ZM32.02,6.94c.58-.81.98-1.61,1.27-2.38h-.38l-1.01,1.01v-3.12h2.21V0h2.93l-1.01,1.01v1.44h2.06v2.11h-1.39l1.82,1.82-2.06,2.06v-1.42l-.43-.43v3.53h-2.93l1.01-1.01v-1.51c-.29.46-.6.91-.96,1.35l-2.02-2.02h.89ZM38.11,8.06c.91-.98,1.63-1.99,2.09-3.5h-.91l-1.01,1.01v-3.12h2.45V0h2.93l-1.01,1.01v1.44h3.05v2.11h-2.62c.5,1.25,1.2,2.47,2.14,3.38h1.08l-1.99,1.99c-.67-.53-1.2-1.13-1.66-1.75v1.95h-2.93l1.01-1.01v-.91c-.5.72-1.08,1.32-1.68,1.94l-2.06-2.09h1.13Z"/>
      <path class="cls-1" d="M52.82,1.56h4.22l-1.63,1.63v14.98c4.27,0,8.81-2.45,9.58-6.58l-1.42-1.44h4.13v.26c0,5.88-5.76,10.35-12.12,10.35h-2.76V1.56Z"/>
      <path class="cls-1" d="M78.72,6.14v6.38h-2.33v-4.92l-1.46-1.46h3.79ZM75.6,18.46h3.07c5.35,0,8.33-2.38,8.33-7.75v-3.1l-1.49-1.46h3.79v4.56c0,6.62-4.03,10.06-10.63,10.06h-.77l-2.3-2.3ZM82.94,6.14v6.38h-2.3v-4.92l-1.46-1.46h3.77Z"/>
      <path class="cls-1" d="M97.1,18.22h1.54c3.79,0,7.13-1.61,9.62-4.44,2.02-2.28,3.5-5.5,3.55-8.5h-11.02l-1.63,1.63V2.78h15.27v2.5c-.07,3.43-1.61,7.03-3.79,9.7l5.78,5.79h-3.65l-3.91-3.91c-2.57,2.33-5.76,3.72-9.19,3.94l-2.57-2.57Z"/>
      <path class="cls-1" d="M122.45,18.17h3.82c6.91,0,10.44-3.38,10.44-10.08v-3.67l-1.63-1.63h4.22v5.3c0,8.26-4.8,12.67-13.03,12.67h-1.22l-2.59-2.59ZM122.54,4.25h8.64v2.5h-7.01l-1.63,1.63v-4.13Z"/>
      <path class="cls-1" d="M162.77,20.28h-15.94v-4.13l1.63,1.63h11.71V5.45h-11.71l-1.63,1.63V2.95h15.94v17.33Z"/>
      <path class="cls-1" d="M170.98,10.56h15.6l-2.4,2.4h-11.57l-1.63,1.63v-4.03Z"/>
      <path class="cls-1" d="M193.1,18.22h1.54c3.79,0,7.13-1.61,9.62-4.44,2.02-2.28,3.5-5.5,3.55-8.5h-11.02l-1.63,1.63V2.78h15.27v2.5c-.07,3.43-1.61,7.03-3.79,9.7l5.78,5.79h-3.65l-3.91-3.91c-2.57,2.33-5.76,3.72-9.19,3.94l-2.57-2.57Z"/>
    </g>
  </g>
</svg>