<?xml version="1.0" encoding="UTF-8"?>
<svg id="_レイヤー_2" data-name="レイヤー_2" xmlns="http://www.w3.org/2000/svg" viewBox="0 0 236.43 21.96">
  <defs>
    <style>
      .cls-1 {
        fill: #22ac38;
      }
    </style>
  </defs>
  <g id="_レイヤー_1-2" data-name="レイヤー_1">
    <g>
      <path class="cls-1" d="M12.1,9.46v.5h7.87l1.63-1.63v4.03h-9.5v9.5h-5.23l2.64-2.64v-6.86H0v-2.4h9.5v-2.98h1.46l3.6-3.6H3.96l-1.66,1.63V.98h18.27l-8.47,8.47Z"/>
      <path class="cls-1" d="M24,5.98L30,0v3.38l-1.66,1.66v16.83h-2.59V7.63l-1.75,1.75v-3.41ZM30.05,19.42c2.04,0,2.88-.94,2.88-2.98h3.24l-.77.79c-.17,2.42-1.73,4.15-4.13,4.58l-2.4-2.4h1.18ZM29.04,11.59l1.63,1.63h2.3v-6.07h-1.58l-1.63,1.63v-4.03h3.22V.26h4.13l-1.63,1.63v2.86h3.7V.26h4.13l-1.63,1.63v2.86h3.22v4.03l-1.63-1.63h-1.58v6.07h2.3l1.63-1.63v4.03h-16.56v-4.03ZM39.17,13.22v-6.07h-3.7v6.07h3.7ZM41.67,16.44c0,2.04.84,2.98,2.88,2.98h1.15l-2.38,2.4c-2.4-.43-3.91-2.06-4.13-4.49l-.89-.89h3.36Z"/>
      <path class="cls-1" d="M48.5,20.86V.98h7.92v20.88h-2.45l-1.63-1.63h1.63v-5.14h-3.02v6.77h-3.46l1.01-1.01ZM53.98,6.84v-3.46h-3.02v3.46h3.02ZM53.98,12.7v-3.46h-3.02v3.46h3.02ZM65.21,20.71c-.79.6-1.68,1.01-2.69,1.22l-2.18-2.18h.29c1.01,0,2.06-.27,2.9-.79-1.46-2.11-1.87-4.51-1.87-7.13h3.38l-.96.94c.07,1.71.48,3.24,1.18,4.42.91-1.46,1.46-3.53,1.58-6.05h-6.62v10.73h-2.5V.98h11.74v2.23c0,2.76-1.2,4.3-3.72,4.73l-2.26-2.26c2.16,0,3.55-.05,3.58-2.3h-6.84v5.35h9.07c0,3.65-.36,7.49-2.35,10.25.82.55,1.82.84,2.98.87l-2.11,2.11c-.96-.24-1.82-.67-2.59-1.25Z"/>
      <path class="cls-1" d="M76.82,1.82h4.22l-1.63,1.63v14.98c4.27,0,8.81-2.45,9.58-6.58l-1.42-1.44h4.13v.26c0,5.88-5.76,10.35-12.12,10.35h-2.76V1.82Z"/>
      <path class="cls-1" d="M102.72,6.41v6.38h-2.33v-4.92l-1.46-1.46h3.79ZM99.6,18.72h3.07c5.35,0,8.33-2.38,8.33-7.75v-3.1l-1.49-1.46h3.79v4.56c0,6.62-4.03,10.06-10.63,10.06h-.77l-2.3-2.3ZM106.94,6.41v6.38h-2.3v-4.92l-1.46-1.46h3.77Z"/>
      <path class="cls-1" d="M121.1,18.48h1.54c3.79,0,7.13-1.61,9.62-4.44,2.02-2.28,3.5-5.5,3.55-8.5h-11.02l-1.63,1.63V3.05h15.27v2.5c-.07,3.43-1.61,7.03-3.79,9.7l5.78,5.79h-3.65l-3.91-3.91c-2.57,2.33-5.76,3.72-9.19,3.94l-2.57-2.57Z"/>
      <path class="cls-1" d="M146.45,18.43h3.82c6.91,0,10.44-3.38,10.44-10.08v-3.67l-1.63-1.63h4.22v5.3c0,8.26-4.8,12.67-13.03,12.67h-1.22l-2.59-2.59ZM146.54,4.51h8.64v2.5h-7.01l-1.63,1.63v-4.13Z"/>
      <path class="cls-1" d="M186.77,20.54h-15.94v-4.13l1.63,1.63h11.71V5.71h-11.71l-1.63,1.63V3.21h15.94v17.33Z"/>
      <path class="cls-1" d="M194.98,10.82h15.6l-2.4,2.4h-11.57l-1.63,1.63v-4.03Z"/>
      <path class="cls-1" d="M217.1,18.48h1.54c3.79,0,7.13-1.61,9.62-4.44,2.02-2.28,3.5-5.5,3.55-8.5h-11.02l-1.63,1.63V3.05h15.27v2.5c-.07,3.43-1.61,7.03-3.79,9.7l5.78,5.79h-3.65l-3.91-3.91c-2.57,2.33-5.76,3.72-9.19,3.94l-2.57-2.57Z"/>
    </g>
  </g>
</svg>