<?xml version="1.0" encoding="UTF-8"?>
<svg id="_レイヤー_2" data-name="レイヤー_2" xmlns="http://www.w3.org/2000/svg" viewBox="0 0 309.27 21.67">
  <defs>
    <style>
      .cls-1 {
        fill: #e60012;
      }
    </style>
  </defs>
  <g id="_レイヤー_1-2" data-name="レイヤー_1">
    <g>
      <path class="cls-1" d="M2.33,19.01l-2.33-2.33h.53c2.69,0,3.86-1.18,3.86-3.89v-1.99H.84v-3.26l1.01,1.01h8.52v-1.06H3.29l-1.01,1.01v-3.26h8.09v-1.06H2.45l-1.01,1.01V1.92h5.02v-.29l-1.63-1.63h4.22v1.92h5.18V0h4.22l-1.63,1.63v.29h5.02v3.26l-1.01-1.01h-7.92v1.06h8.09v3.26l-1.01-1.01h-7.08v1.06h8.52l1.01-1.01v3.26H6.89v.72h14.02v10.08H5.95v-4.99c-.77,1.25-2.11,2.09-3.62,2.4ZM18.41,14.23v-.79h-9.96v.79h9.96ZM18.41,16.97v-.82h-9.96v.82h9.96ZM18.41,19.68v-.79h-9.96v.79h9.96Z"/>
      <path class="cls-1" d="M25.75,4.13V.96h3.1v-.96h4.08l-1.63,1.63v2.62h2.3v3.41l-1.01-1.01h-1.3v7.03h1.92v.02l-1.92,1.92v5.98h-2.45v-5.52h-4.01v-3.41l1.01,1.01h3v-7.03h-.91c-.22,1.27-.7,2.59-1.51,3.65l-1.73-1.7c.84-1.22,1.06-2.95,1.06-4.46ZM28.85,4.25V1.22l-.7.7v2.33h.7ZM39.46,19.23h1.22c2.88,0,3.22-2.42,3.22-5.33V4.9h-1.03v1.42c0,5.54-1.37,13.03-6.77,14.35l-2.26-2.28h.7c4.73,0,5.88-7.3,5.88-12.07v-1.42h-.79v1.44c0,3.74-.72,8.16-4.13,9.7l-1.94-1.94c3.17-.5,3.62-4.58,3.62-7.75v-1.44h-.53c-.02,2.06-.24,4.51-2.35,5.95l-1.78-1.8c1.56-.72,1.68-2.52,1.68-4.44V0h4.06l-1.61,1.61v.89h9.79v11.4c0,3.58-.77,7.18-4.54,7.78l-2.45-2.45Z"/>
      <path class="cls-1" d="M52.39,18.17h1.75c6.31,0,9.67-2.42,9.67-8.54V3.67l-1.63-1.63h4.22v7.58c0,7.61-4.58,10.9-11.45,11.14l-2.57-2.59ZM52.44,2.04h4.22l-1.63,1.63v6.46h.53l1.63-1.63v4.03h-4.75V2.04Z"/>
      <path class="cls-1" d="M74.09,18.17h1.44c3.19,0,6.36-.89,8.74-2.98l-5.69-5.71h-.43l-1.63,1.63v-4.03h3.31l6.17,6.17c1.68-2.45,2.35-5.54,2.38-9.82l-1.63-1.63h4.22v2.21c0,4.25-.84,8.04-3.12,11.09l4.58,4.58h-3.65l-2.66-2.66c-2.69,2.42-6.07,3.53-9.48,3.72l-2.54-2.57Z"/>
      <path class="cls-1" d="M107.28,19.13v-9.87l-4.46,4.39c-.82.86-1.32,1.63-1.56,2.38l1.32,1.32h-3.96v-.31c0-2.33,1.37-4.03,2.42-5.11l7.25-7.15c1.97-2.09,3.82-3.02,5.98-3.02h2.09v4.08l-1.58-1.58h-.5c-1.85,0-3.1,1.13-4.39,2.47v14.04h-4.22l1.63-1.63Z"/>
      <path class="cls-1" d="M124.13,18.17h3.07c6.24,0,9.07-2.86,9.07-9.31v-4.32h-7.73v2.78c0,2.57-.72,5.11-3.02,6.19l-2.09-2.09c2.14-.24,2.52-2.04,2.52-4.13V2.04h12.91v6.82c0,7.73-3.91,11.91-11.67,11.91h-.48l-2.59-2.59Z"/>
      <path class="cls-1" d="M149.66,1.56h4.22l-1.63,1.63v14.98c4.27,0,8.81-2.45,9.58-6.58l-1.42-1.44h4.13v.26c0,5.88-5.76,10.34-12.12,10.34h-2.76V1.56Z"/>
      <path class="cls-1" d="M175.56,6.14v6.38h-2.33v-4.92l-1.46-1.46h3.79ZM172.44,18.46h3.07c5.35,0,8.33-2.38,8.33-7.75v-3.1l-1.49-1.46h3.79v4.56c0,6.62-4.03,10.06-10.63,10.06h-.77l-2.3-2.3ZM179.79,6.14v6.38h-2.3v-4.92l-1.46-1.46h3.77Z"/>
      <path class="cls-1" d="M193.94,18.22h1.54c3.79,0,7.13-1.61,9.62-4.44,2.02-2.28,3.5-5.5,3.55-8.5h-11.02l-1.63,1.63V2.78h15.27v2.5c-.07,3.43-1.61,7.03-3.79,9.7l5.78,5.78h-3.65l-3.91-3.91c-2.57,2.33-5.76,3.72-9.19,3.94l-2.57-2.57Z"/>
      <path class="cls-1" d="M219.29,18.17h3.82c6.91,0,10.44-3.38,10.44-10.08v-3.67l-1.63-1.63h4.22v5.3c0,8.26-4.8,12.67-13.03,12.67h-1.22l-2.59-2.59ZM219.38,4.25h8.64v2.5h-7.01l-1.63,1.63v-4.13Z"/>
      <path class="cls-1" d="M259.61,20.28h-15.94v-4.13l1.63,1.63h11.71V5.45h-11.71l-1.63,1.63V2.95h15.94v17.33Z"/>
      <path class="cls-1" d="M267.82,10.56h15.6l-2.4,2.4h-11.57l-1.63,1.63v-4.03Z"/>
      <path class="cls-1" d="M289.94,18.22h1.54c3.79,0,7.13-1.61,9.62-4.44,2.02-2.28,3.5-5.5,3.55-8.5h-11.02l-1.63,1.63V2.78h15.27v2.5c-.07,3.43-1.61,7.03-3.79,9.7l5.78,5.78h-3.65l-3.91-3.91c-2.57,2.33-5.76,3.72-9.19,3.94l-2.57-2.57Z"/>
    </g>
  </g>
</svg>