<?xml version="1.0" encoding="UTF-8"?>
<svg id="_レイヤー_2" data-name="レイヤー_2" xmlns="http://www.w3.org/2000/svg" viewBox="0 0 237.04 22.54">
  <defs>
    <style>
      .cls-1 {
        fill: #036eb8;
      }

      .cls-2 {
        fill: #ea5514;
      }

      .cls-3 {
        fill: #e60012;
      }

      .cls-4 {
        fill: #198d3b;
      }

      .cls-5 {
        fill: #231815;
      }

      .cls-6 {
        fill: #833790;
      }
    </style>
  </defs>
  <g id="_レイヤー_1-2" data-name="レイヤー_1">
    <g>
      <path class="cls-1" d="M0,19.41s3.6-4.42,4.87-6.24c-1.63.05-2.81.29-4.51.34l-.05-2.4s8.88-.77,10.51-.72l-.05,2.78s-2.78.24-3.43.24c0,0-2.54,3.29-2.69,3.43,0,0,2.47-1.54,3.58-1.03.62.29-.36,3.26.34,3.5,1.18.41,3.02-.29,3.82-.77v2.88s-2.64,1.25-6.46.05c0,0,.05-2.23-.05-3.1-1.7,1.1-2.35,1.66-3.91,3l-1.97-1.97ZM3.43,6.64l2.38-2.02q1.78,1.61,2.71,2.81l-2.57,1.99s-1.2-1.66-2.52-2.78Z"/>
      <path class="cls-6" d="M28.46,8.34s-.41,5.18-.41,5.86c.72-.41,1.63-.6,2.52-.53,1.78.17,3.6,1.27,3.6,3.79,0,5.09-6.5,4.97-8.02,3.31,3.77-.1,4.9-1.94,4.73-3.34-.05-.55-.65-1.61-2.09-1.63-1.13,0-1.92.26-3.53,1.06,0,0,.05-7.66.05-8.62l3.14.1ZM33.12,9.64s-2.04-1.32-3.48-2.06l1.37-2.21s2.06,1.03,3.58,1.9l-1.46,2.38Z"/>
      <path class="cls-4" d="M52.42,8.92s8.4,5.28,10.01,6.53l-2.45,2.83c-1.99-1.58-5.81-4.99-7.58-5.86-2.04,1.51-3.48,3.07-4.66,4.08,0,0-1.66-1.99-2.02-2.45,0,0,5.95-4.8,6.7-5.14ZM58.08,9.33s-.62.17-1.06.38l-.46-1.87,1.51-.29v1.78ZM60.12,8.99s-.62.17-1.03.38l-.31-1.87,1.49-.29-.14,1.78Z"/>
      <path class="cls-3" d="M82.9,16.67c0,3.98-3.72,5.42-6.98,4.63-1.9-.46-2.42-2.26-2.11-3.29.24-.86,1.08-1.68,2.59-1.61.7.05,1.92.53,2.33,2.09.5-.07,1.18-.86,1.18-1.73,0-2.57-3.05-3.19-5.28-3.1l3.07-4.13s-3.26.14-4.34.14l-.05-3.07s6.26-.02,8.69.07c-1.27,2.5-2.04,3.6-3.62,5.71,1.03.14,4.54.79,4.54,4.27ZM76.94,18.81c-.07-.24-.29-.53-.55-.62-.41-.12-.84.12-.77.5.07.38.38.48.55.53.53.05.79-.29.77-.41Z"/>
    </g>
    <path class="cls-2" d="M96.67,18.39c4.61-9.18,6.26-13.46,9.18-18.36l6.84-.04c.11.79-.04,12.13-.04,13.43l3.31-.07-.04,4.71s-1.4-.04-3.1-.04v3.56c-2.09,0-3.82,0-5.51.07,0,0,.11-1.91.18-3.24-4.25-.04-6.52.25-10.83-.04ZM102.97,13.82c1.91.04,3.35.14,4.54.04,0,0,.32-6.95.36-10.66-2.2,4.5-3.13,7.06-4.9,10.62Z"/>
    <g>
      <path class="cls-5" d="M132.04,20.46c2.52-1.03,4.37-2.83,4.2-4.9-.19-2.62-5.98-1.49-10.08-.53l-.53-3.07c6.67-1.34,13.83-2.69,14.33,2.88.26,2.88-1.94,5.78-7.92,5.62Z"/>
      <path class="cls-5" d="M161.1,15.15c.02-2.23-1.37-3.53-3.02-3.7-1.1,3.55-3,6.77-5.47,8.81-1.66-.96-2.76-2.98-2.57-5.64.24-3.82,3.53-5.98,7.15-5.81,4.54.22,6.91,3.24,6.62,6.74-.29,3.22-2.5,5.16-6.02,5.52,2.59-2.14,3.29-3.86,3.31-5.93ZM155.7,11.36c-1.15-.05-2.95.86-3.31,2.78-.17,1.03.1,1.92.6,2.62,1.42-1.7,2.45-4.03,2.71-5.4Z"/>
      <path class="cls-2" d="M187.27,9.03c.1,1.75.22,8.28-.46,12.05,0,0-6.48.31-11.23.1l-.19-2.98s4.94.07,8.35-.05l.14-6.46s-4.3.02-8.52.6l-.14-3.36s7.3-.36,12.05.1Z"/>
      <path class="cls-2" d="M197.99,12.85c3.29.05,12.41.14,14.21-.07l-.24,3.24s-7.37-.02-13.56.07l-.41-3.24Z"/>
      <path class="cls-2" d="M230.18,10.5q-6.26.5-7.51.5s0-2.18-.14-3.17c0,0,11.21-.22,11.86-.34,0,0-.38,4.51-3.07,7.97,0,0,3.53,3.91,5.74,3.79l-2.16,3.29s-2.9-2.26-5.28-4.8c-.79,1.32-4.22,3.22-7.99,3.7,5.02-3.82,7.94-8.04,8.57-10.95Z"/>
    </g>
  </g>
</svg>