<?xml version="1.0" encoding="UTF-8"?>
<svg id="_レイヤー_2" data-name="レイヤー_2" xmlns="http://www.w3.org/2000/svg" viewBox="0 0 468 34.95">
  <defs>
    <style>
      .cls-1 {
        fill: #3e3a39;
      }
    </style>
  </defs>
  <g id="_レイヤー_1-2" data-name="レイヤー_1">
    <g>
      <path class="cls-1" d="M32.76,15.77h-12.13c.14,7.23-1.94,13.43-10.26,16.23h-2.48c-.07-.25-.14-.5-.25-.76,6.77-2.09,10.01-6.8,9.86-15.48H2.74v-.76h30.02v.76ZM6.37,5.29h21.02v.72H6.37v-.72ZM25.63,1.26c.14-.14.32-.32.5-.47h2.48c1.15,1.76,2.2,3.56,3.13,5.47-.22.11-.43.18-.65.25h-2.34l-3.13-5.26ZM36.14,5.65l-.54.36h-2.48c-.97-1.87-2.02-3.71-3.13-5.51.18-.18.32-.32.54-.5h2.48c1.08,1.87,2.12,3.74,3.13,5.65Z"/>
      <path class="cls-1" d="M69.12,10.76h-6.77c0,12.09-1.4,19.55-15.08,20.88h-2.52v-.76c11.99-1.12,14.51-6.52,14.51-20.12h-11.99v9h-3.13v-9h-6.51v-.72h6.51V3.13h3.13v6.91h11.99V3.13h2.99c-.4-.61-.76-1.22-1.12-1.87.18-.14.32-.32.5-.47h2.48c1.15,1.76,2.2,3.6,3.13,5.47-.22.11-.43.18-.61.25h-2.38c-.65-1.04-1.3-2.12-1.91-3.24v6.77h6.77v.72ZM72.14,5.65l-.65.36h-2.48c-.94-1.87-1.98-3.74-3.13-5.51l.65-.5h2.34c1.19,1.84,2.27,3.71,3.28,5.65Z"/>
      <path class="cls-1" d="M93.63,13.17v18.83h-3.24V14.76c-3.89,1.94-7.99,3.24-12.27,3.89h-2.48v-.76c11.3-1.8,20.52-7.85,25.38-13.86h2.34l.65.36c-2.88,3.71-6.52,6.52-10.37,8.78Z"/>
      <path class="cls-1" d="M113.62,5.65c.11-.22.18-.43.25-.65.43-.04.83-.04,1.26-.07.14,0,.29-.04.43-.04.29,0,.54.04.79.11,3.49,2.02,6.88,4.18,10.15,6.52-.14.18-.25.4-.36.61h-2.52c-3.24-2.34-6.55-4.5-10.01-6.48ZM116.85,30.52h-2.34c-.07-.25-.11-.5-.14-.79,12.31-.9,21.63-8.31,23.61-21.6h2.48l.65.14c-2.23,14.11-11.81,21.2-24.26,22.25Z"/>
      <path class="cls-1" d="M154.26,31.24h-2.77V4.25h3.13v26.13c8.49-.54,15.95-6.19,18.75-14.72h2.52l.58.25c-3.38,9.86-11.99,15.48-22.21,15.33Z"/>
      <path class="cls-1" d="M189.14,21.13c-.72-3.17-1.51-6.34-2.38-9.47.18-.11.4-.18.61-.25h2.48c.9,3.13,1.66,6.3,2.38,9.47l-.61.25h-2.48ZM193.1,31.39h-2.48l-.11-.61c3.74-.72,8.89-2.23,11.84-6.12,2.88-3.78,3.89-9.18,4-14.4h2.52l.61.11c-.22,11.45-4.14,19.15-16.38,21.02ZM194.25,10.51c.25-.07.5-.14.76-.25h2.34c.94,3.38,1.8,6.73,2.52,10.15l-.76.11h-2.38c-.76-3.35-1.58-6.7-2.48-10.01Z"/>
      <path class="cls-1" d="M247.89,30.63c-.14.18-.29.36-.4.54h-2.48c-3.02-3.56-6.16-7.06-9.4-10.44-3.92,3.85-8.24,7.09-12.99,9.79h-2.52c-.11-.22-.22-.43-.36-.65,9.9-5.58,18.54-13.61,22.39-23.87h-19.51v-.72h22.75v.72c-1.73,4.79-4.57,9.03-7.99,12.89,3.6,3.82,7.09,7.74,10.51,11.73Z"/>
      <path class="cls-1" d="M257.62,5.65c.11-.22.18-.43.25-.65.43-.04.83-.04,1.26-.07.14,0,.29-.04.43-.04.29,0,.54.04.79.11,3.49,2.02,6.88,4.18,10.15,6.52-.14.18-.25.4-.36.61h-2.52c-3.24-2.34-6.55-4.5-10.01-6.48ZM260.85,30.52h-2.34c-.07-.25-.11-.5-.14-.79,12.31-.9,21.63-8.31,23.61-21.6h2.48l.65.14c-2.23,14.11-11.81,21.2-24.26,22.25Z"/>
      <path class="cls-1" d="M317.98,30.88c-2.66.54-5.36.79-8.13.76h-2.48c-4.21,0-11.55-.36-11.34-6.12.18-4.82,5.25-7.16,10.73-8.64-.54-2.3-1.08-4.46-3.49-4-2.16.58-6.26,4.68-8.64,8.5h-2.52c-.14-.18-.32-.32-.47-.5,2.88-4.32,5.29-8.89,7.24-13.71h-7.34v-.76h7.74c.54-1.58,1.12-3.2,1.73-4.79h2.52c.22.07.4.11.61.14-.5,1.58-1.08,3.13-1.76,4.64h15.26v.76h-15.48l-2.66,5.62c1.12-.61,2.27-.97,3.53-1.04h2.48c2.56,0,3.78,2.09,4.25,4.43,2.02-.43,4-.79,6.01-1.15h2.48c.04.25.07.5.14.76-2.81.43-5.62.94-8.39,1.62.47,2.7.5,5.94.5,8.5h-3.13c.04-2.56-.07-5.11-.4-7.63-3.2,1.26-7.74,3.17-7.85,7.27,0,4.79,5.54,5.18,9.25,5.36,2.38-.07,4.68-.29,7.02-.76h2.48l.11.76Z"/>
      <path class="cls-1" d="M326.63,10.91h7.23c-.83-1.84-1.73-3.64-2.74-5.36h-3.02v-.79c8.53,0,16.95-.83,25.27-2.48h2.38c.04.25.07.5.14.76-4.68.9-9.39,1.55-14.15,1.98,1.01,1.94,1.91,3.92,2.74,5.9h2.52c1.04-2.05,2.02-4.14,2.88-6.26h2.48c.22.11.43.18.65.25-.86,2.02-1.8,4.03-2.77,6.01h7.13v6.84h-3.13v-6.08h-24.48v6.08h-3.13v-6.84ZM357.37,31.75v.79h-2.52c-4.57-.79-8.78-2.41-12.71-4.9-4,2.52-8.35,4.14-12.99,4.9h-2.52v-.79c4.97-.76,9.5-2.56,13.61-5.36-2.99-2.12-5.47-4.68-7.49-7.74.18-.14.32-.29.5-.4h2.48c1.8,2.59,3.96,4.9,6.41,6.91,3.13-2.38,5.65-5.22,7.59-8.64h-19.22v-.76h22.5v.76c-2.27,3.96-5.26,7.23-9,9.86,4.03,2.81,8.46,4.61,13.35,5.36ZM338.61,5.29c-1.4.07-2.84.14-4.25.25,1.01,1.73,1.87,3.53,2.63,5.36h4.25c-.76-1.91-1.62-3.78-2.63-5.62Z"/>
      <path class="cls-1" d="M368.85,31.89l-.61.11h-2.48c-2.34-9.65-2.34-19.33,0-28.98h2.48l.61.25c-2.3,9.36-2.3,19.26,0,28.62ZM394.12,10.76h-6.01v6.37c0,3.35-.11,9.5-2.48,11.77-1.62,1.62-3.74,2.45-5.87,3.1h-2.52l-.11-.76c2.23-.61,5-1.69,6.23-3.74,1.4-2.3,1.62-6.7,1.51-10.37v-6.37h-12.74v-.72h12.74V2.74h3.24v7.31h6.01v.72Z"/>
      <path class="cls-1" d="M402.01,32.14h-2.38c-.22-.11-.43-.25-.65-.4,2.81-7.88,5.04-15.98,6.66-24.23h-5.65v-.76h5.76c.36-1.69.65-3.42.86-5.15h2.48c.25.07.54.11.79.14-.32,1.66-.68,3.35-1.04,5h12.78v.76h-12.89c-1.58,8.39-3.82,16.59-6.73,24.62ZM428.14,30.63c-2.45.32-8.06.94-11.66.5-3.13-.47-6.59-1.84-6.73-5.26-.11-2.38,2.84-4.5,4.1-5.36h2.52c.14.18.25.4.36.61-2.05,1.33-3.74,2.74-3.85,4.75,0,3.24,4.54,4.64,7.56,4.57,1.8-.04,3.56-.25,5.29-.72h2.52l.11.79c-.07.07-.14.11-.22.11ZM425.26,13.25h2.38v.76c-4.36-.04-8.71.32-12.99,1.01h-2.52l-.14-.72c4.39-.68,8.82-1.04,13.28-1.04Z"/>
      <path class="cls-1" d="M452.88,20.88c-.43,1.37-.94,2.7-1.51,4-2.23,4.75-5.29,7.49-9.5,6.15-2.66-.9-4.5-5-5.08-8.24-.9-4.57-.32-11.55.83-16.92h2.52c.25.07.5.18.72.25-1.3,5.22-1.8,11.88-.97,16.41.36,1.94,1.22,4.07,2.09,5.47.72,1.19,1.66,2.23,2.77,1.55.83-.54,2.95-3.71,3.6-5.11.58-1.22,1.08-2.52,1.51-3.78h2.52c.18.04.36.14.5.22ZM464.76,27.64h-3.13c-.04-3.96-.47-7.88-1.26-11.73-.72-3.38-1.87-6.59-3.49-9.65l.61-.4h2.48c1.62,3.17,2.81,6.44,3.53,9.9.86,3.92,1.3,7.88,1.26,11.88Z"/>
      <path class="cls-1" d="M0,34.95v-1.8h468v1.8H0Z"/>
    </g>
  </g>
</svg>