<?xml version="1.0" encoding="UTF-8"?>
<svg id="_レイヤー_2" data-name="レイヤー_2" xmlns="http://www.w3.org/2000/svg" viewBox="0 0 288 33.69">
  <defs>
    <style>
      .cls-1 {
        fill: #3e3a39;
      }
    </style>
  </defs>
  <g id="_レイヤー_1-2" data-name="レイヤー_1">
    <g>
      <path class="cls-1" d="M4.36,25.88H1.87c-.22-.14-.43-.25-.61-.4,2.95-5.44,4.9-11.23,5.87-17.35h2.52l.72.11c-1.08,6.08-3.02,12.2-6.01,17.64ZM19.87,28.47c0,3.74-.86,3.28-5.25,3.28-1.62,0-3.28-.04-4.86-.14v-.72h2.38c1.12.04,2.23.07,3.38.14,1.33,0,1.3-1.01,1.22-2.56V.5h3.13v27.97ZM34.74,25.88c-.25.07-.5.14-.76.25h-2.34c-1.73-6.08-3.89-11.99-6.41-17.75.22-.14.43-.29.65-.4h2.38c2.63,5.79,4.79,11.77,6.48,17.89Z"/>
      <path class="cls-1" d="M46.37,19.4v12.74h-2.99v-12.02c-1.12.25-2.2.54-3.28.86h-2.48l-.11-.72c1.98-.4,3.96-.9,5.87-1.51V6.88h-1.37c-.43,2.74-1.01,5.44-1.76,8.1h-2.48c-.18-.04-.32-.14-.5-.22,1.3-4.21,2.09-8.5,2.38-12.89h2.99c-.14,1.48-.32,2.95-.5,4.39h1.26V.5h2.99v5.76h4.5v.61h-4.5v10.91c.76-.29,1.51-.54,2.27-.79h2.48l.25.79c-1.69.47-3.35,1.01-5,1.62ZM69.26,18.9c-.18,2.66-.43,5.33-.79,7.99-.11,1.19-.4,2.38-.83,3.49-.36.4-.79.58-1.26.65h-2.52c-1.84-.07-3.67-.14-5.51-.29.04-.25.11-.47.14-.76h2.38c1.08.14,2.16.25,3.24.25.36-.22.61-.5.76-.86.4-1.12.61-2.3.61-3.49.32-2.52.54-5.08.65-7.63l.5-13.1h-.5c-.29,2.63-.76,5.22-1.37,7.77-.65,2.59-1.51,5.04-2.63,7.45-.9,2.09-1.98,4.07-3.2,5.98-1.26,1.91-2.74,3.64-4.43,5.15h-2.52c-.14-.14-.25-.32-.36-.47,3.24-3.13,5.76-6.77,7.52-10.91,2.02-4.79,3.31-9.75,3.85-14.97h-2.12c-.72,3.6-1.87,7.06-3.35,10.37-1.4,2.88-3.2,5.44-5.4,7.74h-2.48c-.14-.22-.29-.43-.4-.65,2.12-2.2,3.85-4.68,5.15-7.49,1.55-3.17,2.66-6.52,3.35-9.97h-2.12c-1.33,3.67-3.13,7.02-5.47,10.11h-2.52c-.14-.18-.32-.36-.5-.5,1.62-2.09,3.02-4.36,4.14-6.77,1.15-2.56,2.02-5.22,2.59-7.99h2.52c.22.07.4.11.61.11-.25,1.48-.61,2.88-1.12,4.28h13.75l-.36,14.51Z"/>
      <path class="cls-1" d="M101.98,29.62c-2.66.54-5.36.79-8.13.76h-2.48c-4.21,0-11.55-.36-11.34-6.12.18-4.82,5.25-7.16,10.73-8.64-.54-2.3-1.08-4.46-3.49-4-2.16.58-6.26,4.68-8.64,8.5h-2.52c-.14-.18-.32-.32-.47-.5,2.88-4.32,5.29-8.89,7.24-13.71h-7.34v-.76h7.74c.54-1.58,1.12-3.2,1.73-4.79h2.52c.22.07.4.11.61.14-.5,1.58-1.08,3.13-1.76,4.64h15.26v.76h-15.48l-2.66,5.62c1.12-.61,2.27-.97,3.53-1.04h2.48c2.56,0,3.78,2.09,4.25,4.43,2.02-.43,4-.79,6.01-1.15h2.48c.04.25.07.5.14.76-2.81.43-5.62.94-8.39,1.62.47,2.7.5,5.94.5,8.5h-3.13c.04-2.56-.07-5.11-.4-7.63-3.2,1.26-7.74,3.17-7.85,7.27,0,4.79,5.54,5.18,9.25,5.36,2.38-.07,4.68-.29,7.02-.76h2.48l.11.76Z"/>
      <path class="cls-1" d="M119.88,29.26h-2.48v-.79c1.69,0,3.42-.07,5.15-.22,7.67-.61,15.08-3.89,14.94-11.99-.11-6.41-4.32-11.12-12.2-10.4-3.89.36-7.6,1.58-11.41,2.92h-2.48c-.07-.29-.14-.54-.25-.79,1.01-.4,9.47-2.88,15.69-2.88,2.74,0,13.93-.68,13.93,11.16,0,9.93-10.22,12.99-20.88,12.99Z"/>
      <path class="cls-1" d="M170.75,31.14c-.14.14-.25.32-.4.47h-2.48c-2.38-2.2-4.79-4.39-7.24-6.52-2.45-2.16-5-4.18-7.63-6.08-1.51-1.15-2.81-1.98-2.74-3.38-.14-1.44,1.91-3.02,3.24-3.85,4.64-3.38,9.11-7.02,13.39-10.87h2.48c.11.22.25.4.36.58-4.28,3.85-8.75,7.45-13.35,10.91-1.08.79-3.17,1.94-2.99,3.24,0,1.12-.04.68,2.48,2.74,5.29,3.89,10.22,8.13,14.87,12.78Z"/>
      <path class="cls-1" d="M199.51,29.59c-2.66.61-4.5.83-9.4.79v-.76c2.84,0,6.16-.4,8.82-1.4,5.51-2.12,8.03-7.42,7.92-14.07,0-3.49-.68-9.65-5-10.08-2.7-.29-5.65,2.74-6.98,4.57-2.59,3.42-4.07,7.31-4.36,11.63h-3.13V2.27h3.13v7.88c2.23-3.64,5.18-7.24,10.47-7.24,7.24-.58,9.14,5.54,9,11.23.14,8.13-3.31,13.68-10.47,15.44Z"/>
      <path class="cls-1" d="M222.01,30.88h-2.38c-.22-.11-.43-.25-.65-.4,2.81-7.88,5.04-15.98,6.66-24.23h-5.65v-.76h5.76c.36-1.69.65-3.42.86-5.15h2.48c.25.07.54.11.79.14-.32,1.66-.68,3.35-1.04,5h12.78v.76h-12.89c-1.58,8.39-3.82,16.59-6.73,24.62ZM248.14,29.37c-2.45.32-8.06.94-11.66.5-3.13-.47-6.59-1.84-6.73-5.25-.11-2.38,2.84-4.5,4.1-5.36h2.52c.14.18.25.4.36.61-2.05,1.33-3.74,2.74-3.85,4.75,0,3.24,4.54,4.64,7.56,4.57,1.8-.04,3.56-.25,5.29-.72h2.52l.11.79c-.07.07-.14.11-.22.11ZM245.26,11.99h2.38v.76c-4.36-.04-8.71.32-12.99,1.01h-2.52l-.14-.72c4.39-.68,8.82-1.04,13.28-1.04Z"/>
      <path class="cls-1" d="M272.88,19.62c-.43,1.37-.94,2.7-1.51,4-2.23,4.75-5.29,7.49-9.5,6.16-2.66-.9-4.5-5-5.08-8.24-.9-4.57-.32-11.55.83-16.92h2.52c.25.07.5.18.72.25-1.3,5.22-1.8,11.88-.97,16.41.36,1.94,1.22,4.07,2.09,5.47.72,1.19,1.66,2.23,2.77,1.55.83-.54,2.95-3.71,3.6-5.11.58-1.22,1.08-2.52,1.51-3.78h2.52c.18.04.36.14.5.22ZM284.76,26.38h-3.13c-.04-3.96-.47-7.88-1.26-11.73-.72-3.38-1.87-6.59-3.49-9.65l.61-.4h2.48c1.62,3.17,2.81,6.44,3.53,9.9.86,3.92,1.3,7.88,1.26,11.88Z"/>
      <path class="cls-1" d="M0,33.69v-1.8h288v1.8H0Z"/>
    </g>
  </g>
</svg>