<?xml version="1.0" encoding="UTF-8"?>
<svg id="_レイヤー_2" data-name="レイヤー_2" xmlns="http://www.w3.org/2000/svg" viewBox="0 0 360 33.91">
  <defs>
    <style>
      .cls-1 {
        fill: #3e3a39;
      }
    </style>
  </defs>
  <g id="_レイヤー_1-2" data-name="レイヤー_1">
    <g>
      <path class="cls-1" d="M1.37,9.72c.14-.14.29-.32.4-.5h2.48c2.05,1.66,3.92,3.46,5.62,5.4-.11.14-.25.32-.36.5h-2.52c-1.8-1.87-3.67-3.67-5.62-5.4ZM5.62,31.71h-2.48c-.18-.14-.32-.32-.5-.47,2.3-3.42,4.1-7.06,5.4-10.91h2.48l.61.25c-1.37,3.96-3.17,7.67-5.51,11.12ZM2.99,1.84c.14-.14.25-.32.4-.47h2.48c1.8,1.55,3.53,3.2,5.15,4.97l-.5.5h-2.38c-1.62-1.76-3.35-3.42-5.15-5ZM34.38,23.36h-10.12v9h-3.02v-9h-10.47v-.76h10.47v-7.74h-9.11v-.65h9.11v-7.38h-9.86v-.72h13.14c1.08-1.94,2.12-3.89,3.13-5.9h2.48c.14.07.32.18.5.25-.83,1.98-1.76,3.85-2.88,5.65h6.12v.72h-9.61v7.38h9v.65h-9v7.74h10.12v.76ZM14.87.47c.18-.14.32-.25.5-.36h2.48c.97,1.62,1.8,3.35,2.52,5.11-.14.11-.32.18-.5.25h-2.52c-.79-1.69-1.62-3.35-2.48-5Z"/>
      <path class="cls-1" d="M51.01,28.36c.04.9-.07,1.8-.25,2.74-.22.22-.5.36-.83.43-.32.04-.61.07-.94.07h-2.48c-1.3,0-2.63-.04-3.89-.11v-.79h2.52c.68.04,1.4.11,2.12.14.18,0,.36-.07.47-.25.11-.76.14-1.48.14-2.23v-8.28h-5c-.11,2.05-.36,4.07-.72,6.08-.4,1.98-.97,3.92-1.8,5.8h-2.48c-.18-.07-.4-.14-.61-.25.94-2.2,1.58-4.5,1.98-6.88.4-3.24.58-6.48.5-9.72V1.69h11.27v26.67ZM42.88,10.22h5V2.48h-5v7.74ZM47.88,10.98h-5v8.39h5v-8.39ZM70.23,31.5c-.11.18-.22.4-.36.58h-2.38c-1.66-1.3-3.06-2.77-4.25-4.5-1.3,1.66-2.74,3.17-4.36,4.5h-2.52c-.07-.22-.18-.4-.25-.58,2.16-1.8,4-3.89,5.51-6.26-2.12-3.42-3.67-7.09-4.64-11.01.22-.04.43-.07.65-.14h2.38c.72,2.95,1.73,5.72,3.13,8.42,1.58-3.24,2.59-6.59,3.1-10.15h-10.87v19.87h-3.13V1.69h17.28c-.22,1.98-.5,3.89-.9,5.79-.36.72-.94,1.12-1.76,1.12h-2.48l-6.84-.14v-.76h2.48c1.58.04,3.17.07,4.75.14.18-.04.36-.11.5-.22.18-.43.36-.83.47-1.3.25-1.26.4-2.56.5-3.85h-10.87v9.11h13.89v.76c-.54,4.64-2.05,8.93-4.5,12.89,1.48,2.38,3.31,4.43,5.47,6.26Z"/>
      <path class="cls-1" d="M95,29.84h-2.52c0-.25-.04-.5-.11-.76,6.52-.5,9.65-6.23,9.5-12.6.07-6.23-4.07-11.05-10.01-11.77-.58,6.98-1.51,15.19-4.86,21.24-1.4,2.52-3.82,3.64-6.51,2.77-3.92-1.26-5.62-5.65-5.51-10.01-.07-3.92,1.22-7.78,4.14-10.62,3.53-3.24,6.12-4.14,13.5-4.14s12.53,5.58,12.38,12.53c.14,6.8-3.24,12.78-10.01,13.35ZM88.74,5.08c-2.74.58-5.08,1.91-6.98,3.92-2.74,2.74-3.56,6.12-3.64,9.72-.07,2.66,1.3,8.75,4,8.75,1.58-.65,3.1-3.35,3.78-5.76,1.12-4.1,2.45-11.48,2.84-16.63Z"/>
      <path class="cls-1" d="M124.23,14.36h4.03c5.54-.14,11.09,2.81,11.09,7.59.14,5.58-3.74,8.53-9.36,9h-2.48v-.76c3.6-.22,7.09-1.87,8.24-5.11.36-1.01.54-2.05.5-3.13,0-4.28-4.97-6.8-9.29-6.84-.9,0-1.8.07-2.74.22v10.87c.11,2.59-1.91,4.25-4.32,4.25-4.28.25-8.46-2.45-8.53-6.73.11-3.67,2.59-6.3,5.83-7.77,1.22-.54,2.52-.9,3.89-1.08V6.84h-8.75v-.72h8.75V.72h3.13v5.4h9.9c-.29-.29-.54-.58-.76-.9.11-.14.25-.32.36-.5h2.52c2.16,2.09,4.07,4.39,5.72,6.88-.14.14-.32.32-.47.54h-2.52c-1.33-2.16-2.88-4.1-4.64-5.94v.65h-10.11v7.52ZM121.1,16.23c-1.58.5-2.99,1.33-4.25,2.48-1.51,1.33-2.3,2.99-2.34,5,.11,2.45,2.05,4.64,4.14,5.47,1.55.5,2.45-1.04,2.45-2.99v-9.97Z"/>
      <path class="cls-1" d="M177.37,3.96h-13c-.29,1.3-.54,2.59-.76,3.89h10.76v18h-20.62V7.85h6.73l.76-3.89h-14.61v-.76h14.61c.18-1.04.36-2.12.5-3.2h3.13c-.11,1.08-.22,2.16-.4,3.2h12.89v.76ZM177.37,30.2h-25.88v2.16h-3.24V9h3.24v20.48h25.88v.72ZM156.85,13.5h14.4v-4.9h-14.4v4.9ZM156.85,14.22v5h14.4v-5h-14.4ZM171.25,19.98h-14.4v5.11h14.4v-5.11Z"/>
      <path class="cls-1" d="M199.15,31.5c-2.92.36-7.42-.14-9.39-3.02-1.73-2.7-2.02-6.37-2.02-10.15.04-5.54.18-11.09.4-16.63h3.13c-.22,5.54-.29,11.09-.25,16.63-.11,2.99.11,6.33,1.22,8.78.9,2.34,3.2,3.42,5.47,3.2,6.33-.76,9.9-7.45,11.3-11.73h2.48l.65.14c-1.76,5.25-5.51,11.81-12.99,12.78Z"/>
      <path class="cls-1" d="M245.98,29.84c-2.66.54-5.36.79-8.13.76h-2.48c-4.21,0-11.55-.36-11.34-6.12.18-4.82,5.25-7.16,10.73-8.64-.54-2.3-1.08-4.46-3.49-4-2.16.58-6.26,4.68-8.64,8.5h-2.52c-.14-.18-.32-.32-.47-.5,2.88-4.32,5.29-8.89,7.24-13.71h-7.34v-.76h7.74c.54-1.58,1.12-3.2,1.73-4.79h2.52c.22.07.4.11.61.14-.5,1.58-1.08,3.13-1.76,4.64h15.26v.76h-15.48l-2.66,5.62c1.12-.61,2.27-.97,3.53-1.04h2.48c2.56,0,3.78,2.09,4.25,4.43,2.02-.43,4-.79,6.01-1.15h2.48c.04.25.07.5.14.76-2.81.43-5.62.94-8.39,1.62.47,2.7.5,5.94.5,8.5h-3.13c.04-2.56-.07-5.11-.4-7.63-3.2,1.26-7.74,3.17-7.85,7.27,0,4.79,5.54,5.18,9.25,5.36,2.38-.07,4.68-.29,7.02-.76h2.48l.11.76Z"/>
      <path class="cls-1" d="M271.15,31.5c-2.92.36-7.42-.14-9.39-3.02-1.73-2.7-2.02-6.37-2.02-10.15.04-5.54.18-11.09.4-16.63h3.13c-.22,5.54-.29,11.09-.25,16.63-.11,2.99.11,6.33,1.22,8.78.9,2.34,3.2,3.42,5.47,3.2,6.33-.76,9.9-7.45,11.3-11.73h2.48l.65.14c-1.76,5.25-5.51,11.81-12.99,12.78Z"/>
      <path class="cls-1" d="M294.01,31.1h-2.38c-.22-.11-.43-.25-.65-.4,2.81-7.88,5.04-15.98,6.66-24.23h-5.65v-.76h5.76c.36-1.69.65-3.42.86-5.15h2.48c.25.07.54.11.79.14-.32,1.66-.68,3.35-1.04,5h12.78v.76h-12.89c-1.58,8.39-3.82,16.59-6.73,24.62ZM320.14,29.59c-2.45.32-8.06.94-11.66.5-3.13-.47-6.59-1.84-6.73-5.26-.11-2.38,2.84-4.5,4.1-5.36h2.52c.14.18.25.4.36.61-2.05,1.33-3.74,2.74-3.85,4.75,0,3.24,4.54,4.64,7.56,4.57,1.8-.04,3.56-.25,5.29-.72h2.52l.11.79c-.07.07-.14.11-.22.11ZM317.26,12.2h2.38v.76c-4.36-.04-8.71.32-12.99,1.01h-2.52l-.14-.72c4.39-.68,8.82-1.04,13.28-1.04Z"/>
      <path class="cls-1" d="M344.88,19.83c-.43,1.37-.94,2.7-1.51,4-2.23,4.75-5.29,7.49-9.5,6.15-2.66-.9-4.5-5-5.08-8.24-.9-4.57-.32-11.55.83-16.92h2.52c.25.07.5.18.72.25-1.3,5.22-1.8,11.88-.97,16.41.36,1.94,1.22,4.07,2.09,5.47.72,1.19,1.66,2.23,2.77,1.55.83-.54,2.95-3.71,3.6-5.11.58-1.22,1.08-2.52,1.51-3.78h2.52c.18.04.36.14.5.22ZM356.76,26.6h-3.13c-.04-3.96-.47-7.88-1.26-11.73-.72-3.38-1.87-6.59-3.49-9.65l.61-.4h2.48c1.62,3.17,2.81,6.44,3.53,9.9.86,3.92,1.3,7.88,1.26,11.88Z"/>
      <path class="cls-1" d="M0,33.91v-1.8h360v1.8H0Z"/>
    </g>
  </g>
</svg>