<?xml version="1.0" encoding="UTF-8"?>
<svg id="_レイヤー_2" data-name="レイヤー_2" xmlns="http://www.w3.org/2000/svg" viewBox="0 0 360 33.69">
  <defs>
    <style>
      .cls-1 {
        fill: #3e3a39;
      }
    </style>
  </defs>
  <g id="_レイヤー_1-2" data-name="レイヤー_1">
    <g>
      <path class="cls-1" d="M11.99,22.39c1.73,1.69,3.31,3.53,4.75,5.51-.18.14-.32.32-.5.5h-2.34c-1.04-1.3-2.09-2.52-3.13-3.78-.86,1.51-1.8,2.92-2.92,4.25-1.08,1.33-2.34,2.48-3.74,3.53H1.62l-.36-.54c3.2-2.48,5.65-5.62,7.34-9.36-.86-.86-1.8-1.66-2.84-2.38-.07.25-.14.5-.29.79h-2.48c-.22-.11-.4-.22-.61-.29,1.58-4.36,2.74-8.78,3.49-13.35H1.51v-.65h4.5c.29-2.2.61-4.39.86-6.62h2.52l.58.11c-.22,2.2-.5,4.36-.83,6.52h6.23c0,5.47-1.12,10.73-3.38,15.77ZM6.52,17.89c1.04.76,2.09,1.55,3.13,2.38,1.73-4.14,2.66-8.5,2.74-12.99h-3.38c-.61,3.56-1.44,7.13-2.48,10.62ZM35.13,16.49h-7.38v11.52c.04.9-.14,1.8-.5,2.63-.32.25-.65.43-1.04.5-.43.07-.83.14-1.22.14h-2.48l-4.36-.25.11-.65h2.48l2.63.11c.36-.04.68-.14,1.01-.36.22-.68.29-1.4.25-2.12v-11.52h-10.01v-.72h10.01v-4.64h.36c2.16-2.56,3.96-5.33,5.4-8.35h-14.4v-.65h17.64v.65c-1.55,3.28-3.53,6.26-5.87,9v4h7.38v.72Z"/>
      <path class="cls-1" d="M63.97,29.98c-3.06.65-5.44.79-10.22.76-6.73,0-11.84-1.87-11.73-7.24,0-5.26,5.62-6.55,11.09-6.3,2.27.14,4.5.54,6.66,1.15-1.01-1.69-1.87-3.49-2.63-5.33-5,.14-10.01.22-17.49.25v-.79c5.76,0,11.52-.11,17.24-.36-.76-1.87-1.3-3.85-1.62-5.87-4.03.11-8.06.14-14.61.11v-.72c4.79.04,9.57-.04,14.33-.25-.22-1.62-.4-3.24-.47-4.9.22-.04.4-.07.61-.14h2.52c.07,1.66.25,3.28.47,4.9l7.16-.25h2.38l.11.65c-3.13.22-6.26.36-9.39.47.36,2.09.9,4.07,1.66,6.01,1.94-.14,3.89-.29,5.87-.36h2.48v.72c-2.66.18-5.4.29-8.1.4.97,2.52,2.2,4.93,3.6,7.24-.11.18-.22.32-.36.5h-2.52c-3.35-1.37-6.01-2.59-10.47-2.3-3.17.22-5.43,2.2-5.36,5.18.14,4.75,4.1,6.41,9.32,6.41,3.82,0,3.56-.36,7.02-.65h2.38l.11.72Z"/>
      <path class="cls-1" d="M77,25.12h-2.38c-.22-.14-.4-.25-.61-.36,2.59-5.94,4.93-11.99,6.98-18.14h-6.37v-.72h6.62c.61-1.94,1.22-3.92,1.76-5.9h2.48c.22.07.43.18.65.25-.5,1.91-1.08,3.78-1.76,5.65h7.23v.72h-7.38c-2.12,6.3-4.54,12.45-7.24,18.5ZM97.63,6.62v15.01c2.84,1.44,5.51,3.13,7.99,5.15-.18.18-.36.4-.5.58h-2.38c-1.66-1.22-3.38-2.45-5.11-3.6.18,4.86-2.05,6.73-7.63,6.88-3.6,0-8.03-1.19-8.03-5.76,0-5.8,7.31-5.87,12.53-4.5V5.9h2.48c2.95-.04,5.87.22,8.78.72-.07.22-.11.43-.14.65h-2.52c-1.84-.29-3.64-.5-5.47-.65ZM94.5,23.5v-1.37c-4.07-1.94-9.39-1.91-9.39,2.74-.07,2.88,2.23,4.64,4.64,4.64,3.67.18,4.75-2.41,4.75-6.01Z"/>
      <path class="cls-1" d="M123.01,28.15c.04.9-.07,1.8-.25,2.74-.22.22-.5.36-.83.43-.32.04-.61.07-.94.07h-2.48c-1.3,0-2.63-.04-3.89-.11v-.79h2.52c.68.04,1.4.11,2.12.14.18,0,.36-.07.47-.25.11-.76.14-1.48.14-2.23v-8.28h-5c-.11,2.05-.36,4.07-.72,6.08-.4,1.98-.97,3.92-1.8,5.8h-2.48c-.18-.07-.4-.14-.61-.25.94-2.2,1.58-4.5,1.98-6.88.4-3.24.58-6.48.5-9.72V1.48h11.27v26.67ZM114.88,10.01h5V2.27h-5v7.74ZM119.88,10.76h-5v8.39h5v-8.39ZM142.23,31.28c-.11.18-.22.4-.36.58h-2.38c-1.66-1.3-3.06-2.77-4.25-4.5-1.3,1.66-2.74,3.17-4.36,4.5h-2.52c-.07-.22-.18-.4-.25-.58,2.16-1.8,4-3.89,5.51-6.26-2.12-3.42-3.67-7.09-4.64-11.01.22-.04.43-.07.65-.14h2.38c.72,2.95,1.73,5.72,3.13,8.42,1.58-3.24,2.59-6.59,3.1-10.15h-10.87v19.87h-3.13V1.48h17.28c-.22,1.98-.5,3.89-.9,5.79-.36.72-.94,1.12-1.76,1.12h-2.48l-6.84-.14v-.76h2.48c1.58.04,3.17.07,4.75.14.18-.04.36-.11.5-.22.18-.43.36-.83.47-1.3.25-1.26.4-2.56.5-3.85h-10.87v9.11h13.89v.76c-.54,4.64-2.05,8.93-4.5,12.89,1.48,2.38,3.31,4.43,5.47,6.26Z"/>
      <path class="cls-1" d="M173.98,29.62c-2.66.54-5.36.79-8.13.76h-2.48c-4.21,0-11.55-.36-11.34-6.12.18-4.82,5.25-7.16,10.73-8.64-.54-2.3-1.08-4.46-3.49-4-2.16.58-6.26,4.68-8.64,8.5h-2.52c-.14-.18-.32-.32-.47-.5,2.88-4.32,5.29-8.89,7.24-13.71h-7.34v-.76h7.74c.54-1.58,1.12-3.2,1.73-4.79h2.52c.22.07.4.11.61.14-.5,1.58-1.08,3.13-1.76,4.64h15.26v.76h-15.48l-2.66,5.62c1.12-.61,2.27-.97,3.53-1.04h2.48c2.56,0,3.78,2.09,4.25,4.43,2.02-.43,4-.79,6.01-1.15h2.48c.04.25.07.5.14.76-2.81.43-5.62.94-8.39,1.62.47,2.7.5,5.94.5,8.5h-3.13c.04-2.56-.07-5.11-.4-7.63-3.2,1.26-7.74,3.17-7.85,7.27,0,4.79,5.54,5.18,9.25,5.36,2.38-.07,4.68-.29,7.02-.76h2.48l.11.76Z"/>
      <path class="cls-1" d="M191.88,29.26h-2.48v-.79c1.69,0,3.42-.07,5.15-.22,7.67-.61,15.08-3.89,14.94-11.99-.11-6.41-4.32-11.12-12.2-10.4-3.89.36-7.6,1.58-11.41,2.92h-2.48c-.07-.29-.14-.54-.25-.79,1.01-.4,9.47-2.88,15.69-2.88,2.74,0,13.93-.68,13.93,11.16,0,9.93-10.22,12.99-20.88,12.99Z"/>
      <path class="cls-1" d="M242.75,31.14c-.14.14-.25.32-.4.47h-2.48c-2.38-2.2-4.79-4.39-7.24-6.52-2.45-2.16-5-4.18-7.63-6.08-1.51-1.15-2.81-1.98-2.74-3.38-.14-1.44,1.91-3.02,3.24-3.85,4.64-3.38,9.11-7.02,13.39-10.87h2.48c.11.22.25.4.36.58-4.28,3.85-8.75,7.45-13.35,10.91-1.08.79-3.17,1.94-2.99,3.24,0,1.12-.04.68,2.48,2.74,5.29,3.89,10.22,8.13,14.87,12.78Z"/>
      <path class="cls-1" d="M271.51,29.59c-2.66.61-4.5.83-9.4.79v-.76c2.84,0,6.16-.4,8.82-1.4,5.51-2.12,8.03-7.42,7.92-14.07,0-3.49-.68-9.65-5-10.08-2.7-.29-5.65,2.74-6.98,4.57-2.59,3.42-4.07,7.31-4.36,11.63h-3.13V2.27h3.13v7.88c2.23-3.64,5.18-7.24,10.47-7.24,7.24-.58,9.14,5.54,9,11.23.14,8.13-3.31,13.68-10.47,15.44Z"/>
      <path class="cls-1" d="M294.01,30.88h-2.38c-.22-.11-.43-.25-.65-.4,2.81-7.88,5.04-15.98,6.66-24.23h-5.65v-.76h5.76c.36-1.69.65-3.42.86-5.15h2.48c.25.07.54.11.79.14-.32,1.66-.68,3.35-1.04,5h12.78v.76h-12.89c-1.58,8.39-3.82,16.59-6.73,24.62ZM320.14,29.37c-2.45.32-8.06.94-11.66.5-3.13-.47-6.59-1.84-6.73-5.26-.11-2.38,2.84-4.5,4.1-5.36h2.52c.14.18.25.4.36.61-2.05,1.33-3.74,2.74-3.85,4.75,0,3.24,4.54,4.64,7.56,4.57,1.8-.04,3.56-.25,5.29-.72h2.52l.11.79c-.07.07-.14.11-.22.11ZM317.26,11.99h2.38v.76c-4.36-.04-8.71.32-12.99,1.01h-2.52l-.14-.72c4.39-.68,8.82-1.04,13.28-1.04Z"/>
      <path class="cls-1" d="M344.88,19.62c-.43,1.37-.94,2.7-1.51,4-2.23,4.75-5.29,7.49-9.5,6.15-2.66-.9-4.5-5-5.08-8.24-.9-4.57-.32-11.55.83-16.92h2.52c.25.07.5.18.72.25-1.3,5.22-1.8,11.88-.97,16.41.36,1.94,1.22,4.07,2.09,5.47.72,1.19,1.66,2.23,2.77,1.55.83-.54,2.95-3.71,3.6-5.11.58-1.22,1.08-2.52,1.51-3.78h2.52c.18.04.36.14.5.22ZM356.76,26.38h-3.13c-.04-3.96-.47-7.88-1.26-11.73-.72-3.38-1.87-6.59-3.49-9.65l.61-.4h2.48c1.62,3.17,2.81,6.44,3.53,9.9.86,3.92,1.3,7.88,1.26,11.88Z"/>
      <path class="cls-1" d="M0,33.69v-1.8h360v1.8H0Z"/>
    </g>
  </g>
</svg>