<?xml version="1.0" encoding="UTF-8"?>
<svg id="_レイヤー_2" data-name="レイヤー_2" xmlns="http://www.w3.org/2000/svg" viewBox="0 0 360 33.91">
  <defs>
    <style>
      .cls-1 {
        fill: #3e3a39;
      }
    </style>
  </defs>
  <g id="_レイヤー_1-2" data-name="レイヤー_1">
    <g>
      <path class="cls-1" d="M33.98,13.61H12.38c-.14,1.04-.32,2.09-.65,3.1h18.9v15.51h-3.13v-1.87h-15.77v1.87h-3.13v-8.75c-1.33,2.09-2.92,3.96-4.75,5.62H1.51c-.18-.22-.36-.43-.54-.61,4.57-3.96,7.31-8.93,8.28-14.87H1.87v-.65h14.87v-3.96H4.64v-.79h12.09v-3.71H2.88v-.79h9.11c-.68-1.15-1.44-2.3-2.23-3.38.18-.11.36-.22.5-.32h2.48c.97,1.15,1.84,2.41,2.63,3.71h5.25c.94-1.19,1.76-2.45,2.52-3.71h2.48c.22.11.43.22.61.32-.72,1.15-1.48,2.27-2.23,3.38h9v.79h-13.14v3.71h11.48v.79h-11.48v3.96h14.11v.65ZM11.73,20.99h15.77v-3.53h-15.77v3.53ZM11.73,21.71v3.64h15.77v-3.64h-15.77ZM27.5,26.1h-15.77v3.49h15.77v-3.49Z"/>
      <path class="cls-1" d="M46.37,19.62v12.74h-2.99v-12.02c-1.12.25-2.2.54-3.28.86h-2.48l-.11-.72c1.98-.4,3.96-.9,5.87-1.51V7.09h-1.37c-.43,2.74-1.01,5.44-1.76,8.1h-2.48c-.18-.04-.32-.14-.5-.22,1.3-4.21,2.09-8.49,2.38-12.89h2.99c-.14,1.48-.32,2.95-.5,4.39h1.26V.72h2.99v5.76h4.5v.61h-4.5v10.91c.76-.29,1.51-.54,2.27-.79h2.48l.25.79c-1.69.47-3.35,1.01-5,1.62ZM69.26,19.11c-.18,2.66-.43,5.33-.79,7.99-.11,1.19-.4,2.38-.83,3.49-.36.4-.79.58-1.26.65h-2.52c-1.84-.07-3.67-.14-5.51-.29.04-.25.11-.47.14-.76h2.38c1.08.14,2.16.25,3.24.25.36-.22.61-.5.76-.86.4-1.12.61-2.3.61-3.49.32-2.52.54-5.08.65-7.63l.5-13.1h-.5c-.29,2.63-.76,5.22-1.37,7.78-.65,2.59-1.51,5.04-2.63,7.45-.9,2.09-1.98,4.07-3.2,5.98-1.26,1.91-2.74,3.64-4.43,5.15h-2.52c-.14-.14-.25-.32-.36-.47,3.24-3.13,5.76-6.77,7.52-10.91,2.02-4.79,3.31-9.75,3.85-14.97h-2.12c-.72,3.6-1.87,7.05-3.35,10.37-1.4,2.88-3.2,5.44-5.4,7.74h-2.48c-.14-.22-.29-.43-.4-.65,2.12-2.2,3.85-4.68,5.15-7.49,1.55-3.17,2.66-6.52,3.35-9.97h-2.12c-1.33,3.67-3.13,7.02-5.47,10.11h-2.52c-.14-.18-.32-.36-.5-.5,1.62-2.09,3.02-4.36,4.14-6.77,1.15-2.56,2.02-5.22,2.59-7.99h2.52c.22.07.4.11.61.11-.25,1.48-.61,2.88-1.12,4.28h13.75l-.36,14.51Z"/>
      <path class="cls-1" d="M101.98,29.84c-2.66.54-5.36.79-8.13.76h-2.48c-4.21,0-11.55-.36-11.34-6.12.18-4.82,5.25-7.16,10.73-8.64-.54-2.3-1.08-4.46-3.49-4-2.16.58-6.26,4.68-8.64,8.49h-2.52c-.14-.18-.32-.32-.47-.5,2.88-4.32,5.29-8.89,7.24-13.71h-7.34v-.76h7.74c.54-1.58,1.12-3.2,1.73-4.79h2.52c.22.07.4.11.61.14-.5,1.58-1.08,3.13-1.76,4.64h15.26v.76h-15.48l-2.66,5.62c1.12-.61,2.27-.97,3.53-1.04h2.48c2.56,0,3.78,2.09,4.25,4.43,2.02-.43,4-.79,6.01-1.15h2.48c.04.25.07.5.14.76-2.81.43-5.62.94-8.39,1.62.47,2.7.5,5.94.5,8.5h-3.13c.04-2.56-.07-5.11-.4-7.63-3.2,1.26-7.74,3.17-7.85,7.27,0,4.79,5.54,5.18,9.25,5.36,2.38-.07,4.68-.29,7.02-.76h2.48l.11.76Z"/>
      <path class="cls-1" d="M118.51,18.72h-3.13V3.2h3.13v15.51ZM121.64,30.96h-2.52l-.11-.76c9.65-1.66,14.69-6.62,14.47-18.36V3.2h3.13c0,19.08-.86,24.87-14.97,27.75Z"/>
      <path class="cls-1" d="M175.24,26.74c-.14.14-.32.32-.5.47h-2.48c-2.56-2.66-5.26-5.26-7.99-7.74-3.64,4.86-8.35,8.57-13.64,11.37h-2.52c-.11-.22-.22-.43-.36-.65,5.83-3.06,10.94-7.34,14.51-12.6-3.28-2.92-6.66-5.69-10.12-8.39.11-.14.22-.32.36-.47h2.52c2.95,2.16,5.76,4.43,8.5,6.84,2.23-4.03,3.89-8.35,5-12.85h2.48c.22.07.43.14.65.25-1.37,5.15-3.17,9.97-6.01,14.47,3.31,2.95,6.52,6.05,9.61,9.29Z"/>
      <path class="cls-1" d="M201.63,12.13v18.83h-3.24V13.71c-3.89,1.94-7.99,3.24-12.27,3.89h-2.48v-.76c11.3-1.8,20.52-7.85,25.38-13.86h2.34l.65.36c-2.88,3.71-6.52,6.51-10.37,8.78Z"/>
      <path class="cls-1" d="M245.98,5.72c0,15.05-6.48,22.64-21.85,24.12h-2.52c-.04-.25-.07-.5-.14-.76,14.54-1.04,21.09-8.21,21.38-22.96h-12.85c-1.22,4.43-3.46,8.21-6.77,11.34h-2.34l-.54-.5c4.32-4.28,6.73-9.5,7.27-15.59h2.52l.61.11c-.07,1.3-.29,2.59-.61,3.89h15.84v.36Z"/>
      <path class="cls-1" d="M271.15,31.5c-2.92.36-7.42-.14-9.39-3.02-1.73-2.7-2.02-6.37-2.02-10.15.04-5.54.18-11.09.4-16.63h3.13c-.22,5.54-.29,11.09-.25,16.63-.11,2.99.11,6.34,1.22,8.78.9,2.34,3.2,3.42,5.47,3.2,6.33-.76,9.9-7.45,11.3-11.73h2.48l.65.14c-1.76,5.25-5.51,11.81-12.99,12.78Z"/>
      <path class="cls-1" d="M294.01,31.1h-2.38c-.22-.11-.43-.25-.65-.4,2.81-7.88,5.04-15.98,6.66-24.22h-5.65v-.76h5.76c.36-1.69.65-3.42.86-5.15h2.48c.25.07.54.11.79.14-.32,1.66-.68,3.35-1.04,5h12.78v.76h-12.89c-1.58,8.39-3.82,16.59-6.73,24.62ZM320.14,29.59c-2.45.32-8.06.94-11.66.5-3.13-.47-6.59-1.83-6.73-5.25-.11-2.38,2.84-4.5,4.1-5.36h2.52c.14.18.25.4.36.61-2.05,1.33-3.74,2.74-3.85,4.75,0,3.24,4.54,4.64,7.56,4.57,1.8-.04,3.56-.25,5.29-.72h2.52l.11.79c-.07.07-.14.11-.22.11ZM317.26,12.2h2.38v.76c-4.36-.04-8.71.32-12.99,1.01h-2.52l-.14-.72c4.39-.68,8.82-1.04,13.28-1.04Z"/>
      <path class="cls-1" d="M344.88,19.83c-.43,1.37-.94,2.7-1.51,4-2.23,4.75-5.29,7.49-9.5,6.16-2.66-.9-4.5-5-5.08-8.24-.9-4.57-.32-11.55.83-16.92h2.52c.25.07.5.18.72.25-1.3,5.22-1.8,11.88-.97,16.41.36,1.94,1.22,4.07,2.09,5.47.72,1.19,1.66,2.23,2.77,1.55.83-.54,2.95-3.71,3.6-5.11.58-1.22,1.08-2.52,1.51-3.78h2.52c.18.04.36.14.5.22ZM356.76,26.6h-3.13c-.04-3.96-.47-7.88-1.26-11.73-.72-3.38-1.87-6.59-3.49-9.65l.61-.4h2.48c1.62,3.17,2.81,6.44,3.53,9.9.86,3.92,1.3,7.88,1.26,11.88Z"/>
      <path class="cls-1" d="M0,33.91v-1.8h360v1.8H0Z"/>
    </g>
  </g>
</svg>