<?xml version="1.0" encoding="UTF-8"?>
<svg id="_レイヤー_2" data-name="レイヤー_2" xmlns="http://www.w3.org/2000/svg" viewBox="0 0 396 34.16">
  <defs>
    <style>
      .cls-1 {
        fill: #3e3a39;
      }
    </style>
  </defs>
  <g id="_レイヤー_1-2" data-name="レイヤー_1">
    <g>
      <path class="cls-1" d="M33.98,17.1h-13.71v11.12c0,2.77-.36,3.28-2.92,3.28h-2.48c-1.62,0-3.28-.07-4.9-.14v-.76h2.56c1.08.11,2.16.14,3.24.11,1.33.14,1.37-1.04,1.37-2.48v-11.12H2.02v-.76h15.12v-4.61h.22c3.49-2.38,6.59-5.22,9.25-8.5H6.37v-.65h23.61v.65c-2.81,3.46-6.05,6.44-9.72,9v4.1h13.71v.76Z"/>
      <path class="cls-1" d="M65.73,30.45c-4,.58-6.16.72-12.24.76-4.07,0-13-.54-12.85-7.24,0-4.32,4.1-6.88,6.84-8.39-1.15-4.43-2.09-8.93-2.74-13.5.22-.04.43-.07.65-.14h2.48c.65,4.14,1.4,8.24,2.38,12.27,4.07-1.62,8.28-2.95,12.6-4h2.41l.11.72c-8.78,2.38-21.63,6.12-21.63,13.03,0,3.96,4.07,5.94,7.77,6.26,3.89.36,7.85,0,11.74-.5h2.38c.07.22.11.47.11.72ZM57.24,1.94c.14-.14.32-.32.5-.47h2.27c1.12,1.94,2.16,3.96,3.13,6.01-.22.11-.43.25-.65.4h-2.23c-.86-2.09-1.87-4.03-3.02-5.94ZM68,6.12l-.5.32h-2.23c-.97-2.05-2.02-4.03-3.13-5.98l.47-.47h2.27c1.12,1.98,2.16,4.03,3.13,6.12Z"/>
      <path class="cls-1" d="M103.64,26.1c-1.44,3.1-4.36,4.68-7.52,5.08-1.66.18-3.35.22-5,.04-6.59-.22-7.38-2.92-7.38-9,0-2.05.04-4.07.14-6.12h-8.24v-.72h8.24l.36-8.03h-7.99v-.61h8.14c.07-1.84.18-3.67.36-5.51h2.38c.25.04.5.11.76.14-.18,1.76-.32,3.56-.36,5.36h14.47v.61h-14.47c-.14,2.66-.29,5.33-.5,8.03h13.35v.72h-13.35c-.11,2.05-.14,4.07-.14,6.12,0,3.38.11,7.38,4.1,8.06,1.08.22,2.12.22,3.13.11,3.63-.36,6.33-3.31,6.66-6.01-.04-1.3-.11-2.59-.25-3.89,1.04-.14,2.09-.22,3.13-.25.47,2.09.68,4.07,0,5.87Z"/>
      <path class="cls-1" d="M131,30.09h-2.52c0-.25-.04-.5-.11-.76,6.52-.5,9.65-6.23,9.5-12.6.07-6.23-4.07-11.05-10.01-11.77-.58,6.98-1.51,15.19-4.86,21.24-1.4,2.52-3.82,3.64-6.51,2.77-3.92-1.26-5.62-5.65-5.51-10.01-.07-3.92,1.22-7.78,4.14-10.62,3.53-3.24,6.12-4.14,13.5-4.14s12.53,5.58,12.38,12.53c.14,6.8-3.24,12.78-10.01,13.35ZM124.74,5.33c-2.74.58-5.08,1.91-6.98,3.92-2.74,2.74-3.56,6.12-3.64,9.72-.07,2.66,1.3,8.75,4,8.75,1.58-.65,3.1-3.35,3.78-5.76,1.12-4.1,2.45-11.48,2.84-16.63Z"/>
      <path class="cls-1" d="M159.01,28.62c.04.9-.07,1.8-.25,2.74-.22.22-.5.36-.83.43-.32.04-.61.07-.94.07h-2.48c-1.3,0-2.63-.04-3.89-.11v-.79h2.52c.68.04,1.4.11,2.12.14.18,0,.36-.07.47-.25.11-.76.14-1.48.14-2.23v-8.28h-5c-.11,2.05-.36,4.07-.72,6.08-.4,1.98-.97,3.92-1.8,5.8h-2.48c-.18-.07-.4-.14-.61-.25.94-2.2,1.58-4.5,1.98-6.88.4-3.24.58-6.48.5-9.72V1.94h11.27v26.67ZM150.88,10.47h5V2.74h-5v7.74ZM155.88,11.23h-5v8.39h5v-8.39ZM178.23,31.75c-.11.18-.22.4-.36.58h-2.38c-1.66-1.3-3.06-2.77-4.25-4.5-1.3,1.66-2.74,3.17-4.36,4.5h-2.52c-.07-.22-.18-.4-.25-.58,2.16-1.8,4-3.89,5.51-6.26-2.12-3.42-3.67-7.09-4.64-11.01.22-.04.43-.07.65-.14h2.38c.72,2.95,1.73,5.72,3.13,8.42,1.58-3.24,2.59-6.59,3.1-10.15h-10.87v19.87h-3.13V1.94h17.28c-.22,1.98-.5,3.89-.9,5.79-.36.72-.94,1.12-1.76,1.12h-2.48l-6.84-.14v-.76h2.48c1.58.04,3.17.07,4.75.14.18-.04.36-.11.5-.22.18-.43.36-.83.47-1.3.25-1.26.4-2.56.5-3.85h-10.87v9.11h13.89v.76c-.54,4.64-2.05,8.93-4.5,12.89,1.48,2.38,3.31,4.43,5.47,6.26Z"/>
      <path class="cls-1" d="M209.98,30.09c-2.66.54-5.36.79-8.13.76h-2.48c-4.21,0-11.55-.36-11.34-6.12.18-4.82,5.25-7.16,10.73-8.64-.54-2.3-1.08-4.46-3.49-4-2.16.58-6.26,4.68-8.64,8.5h-2.52c-.14-.18-.32-.32-.47-.5,2.88-4.32,5.29-8.89,7.24-13.71h-7.34v-.76h7.74c.54-1.58,1.12-3.2,1.73-4.79h2.52c.22.07.4.11.61.14-.5,1.58-1.08,3.13-1.76,4.64h15.26v.76h-15.48l-2.66,5.62c1.12-.61,2.27-.97,3.53-1.04h2.48c2.56,0,3.78,2.09,4.25,4.43,2.02-.43,4-.79,6.01-1.15h2.48c.04.25.07.5.14.76-2.81.43-5.62.94-8.39,1.62.47,2.7.5,5.94.5,8.5h-3.13c.04-2.56-.07-5.11-.4-7.63-3.2,1.26-7.74,3.17-7.85,7.27,0,4.79,5.54,5.18,9.25,5.36,2.38-.07,4.68-.29,7.02-.76h2.48l.11.76Z"/>
      <path class="cls-1" d="M227.88,29.73h-2.48v-.79c1.69,0,3.42-.07,5.15-.22,7.67-.61,15.08-3.89,14.94-11.99-.11-6.41-4.32-11.12-12.2-10.4-3.89.36-7.59,1.58-11.41,2.92h-2.48c-.07-.29-.14-.54-.25-.79,1.01-.4,9.47-2.88,15.69-2.88,2.74,0,13.93-.68,13.93,11.16,0,9.93-10.22,12.99-20.88,12.99Z"/>
      <path class="cls-1" d="M278.75,31.6c-.14.14-.25.32-.4.47h-2.48c-2.38-2.2-4.79-4.39-7.24-6.52-2.45-2.16-5-4.18-7.63-6.08-1.51-1.15-2.81-1.98-2.74-3.38-.14-1.44,1.91-3.02,3.24-3.85,4.64-3.38,9.11-7.02,13.39-10.87h2.48c.11.22.25.4.36.58-4.28,3.85-8.75,7.45-13.35,10.91-1.08.79-3.17,1.94-2.99,3.24,0,1.12-.04.68,2.48,2.74,5.29,3.89,10.22,8.13,14.87,12.78Z"/>
      <path class="cls-1" d="M307.51,30.06c-2.66.61-4.5.83-9.4.79v-.76c2.84,0,6.16-.4,8.82-1.4,5.51-2.12,8.03-7.42,7.92-14.07,0-3.49-.68-9.65-5-10.08-2.7-.29-5.65,2.74-6.98,4.57-2.59,3.42-4.07,7.31-4.36,11.63h-3.13V2.74h3.13v7.88c2.23-3.64,5.18-7.24,10.47-7.24,7.24-.58,9.14,5.54,9,11.23.14,8.13-3.31,13.68-10.47,15.44Z"/>
      <path class="cls-1" d="M330.01,31.35h-2.38c-.22-.11-.43-.25-.65-.4,2.81-7.88,5.04-15.98,6.66-24.23h-5.65v-.76h5.76c.36-1.69.65-3.42.86-5.15h2.48c.25.07.54.11.79.14-.32,1.66-.68,3.35-1.04,5h12.78v.76h-12.89c-1.58,8.39-3.82,16.59-6.73,24.62ZM356.14,29.84c-2.45.32-8.06.94-11.66.5-3.13-.47-6.59-1.84-6.73-5.26-.11-2.38,2.84-4.5,4.1-5.36h2.52c.14.18.25.4.36.61-2.05,1.33-3.74,2.74-3.85,4.75,0,3.24,4.54,4.64,7.56,4.57,1.8-.04,3.56-.25,5.29-.72h2.52l.11.79c-.07.07-.14.11-.22.11ZM353.26,12.45h2.38v.76c-4.36-.04-8.71.32-12.99,1.01h-2.52l-.14-.72c4.39-.68,8.82-1.04,13.28-1.04Z"/>
      <path class="cls-1" d="M380.88,20.09c-.43,1.37-.94,2.7-1.51,4-2.23,4.75-5.29,7.49-9.5,6.16-2.66-.9-4.5-5-5.08-8.24-.9-4.57-.32-11.55.83-16.92h2.52c.25.07.5.18.72.25-1.3,5.22-1.8,11.88-.97,16.41.36,1.94,1.22,4.07,2.09,5.47.72,1.19,1.66,2.23,2.77,1.55.83-.54,2.95-3.71,3.6-5.11.58-1.22,1.08-2.52,1.51-3.78h2.52c.18.04.36.14.5.22ZM392.76,26.85h-3.13c-.04-3.96-.47-7.88-1.26-11.73-.72-3.38-1.87-6.59-3.49-9.65l.61-.4h2.48c1.62,3.17,2.81,6.44,3.53,9.9.86,3.92,1.3,7.88,1.26,11.88Z"/>
      <path class="cls-1" d="M0,34.16v-1.8h396v1.8H0Z"/>
    </g>
  </g>
</svg>