<?xml version="1.0" encoding="UTF-8"?>
<svg id="_レイヤー_2" data-name="レイヤー_2" xmlns="http://www.w3.org/2000/svg" viewBox="0 0 226.8 41.86">
  <defs>
    <style>
      .cls-1 {
        fill: #231815;
      }
    </style>
  </defs>
  <g id="_レイヤー_1-2" data-name="レイヤー_1">
    <g>
      <path class="cls-1" d="M31.78,24.72h-12.1l1.78,14.26-3.12.72-1.54-14.98H0v-2.88h16.42l-1.06-10.08-12.24.14v-3.02h12c-.38-2.74-.62-5.52-.96-8.16l2.88-.34c.34,2.74.72,5.52,1.06,8.5h9.74v2.88h-9.5l1.1,10.08h12.34v2.88ZM33.12,8.06c-1.1-1.1-2.16-2.16-3.36-3.12l1.68-1.58c1.3.96,2.4,1.92,3.36,2.78l-1.68,1.92ZM36.48,4.7c-1.1-1.1-2.16-2.16-3.36-3.12l1.68-1.58c1.3.96,2.4,1.92,3.36,2.78l-1.68,1.92Z"/>
      <path class="cls-1" d="M63.94,15.84h17.28c-.58,3.98-2.26,7.82-4.8,10.46l-2.26-1.34c2.26-2.74,3.12-4.32,3.84-6.48h-13.83c.38,6.14,1.92,22.42,1.92,22.42l-2.74.24s-1.1-11.95-1.92-22.66h-8.88v-2.64h8.74c0-.24-.58-6.24-.58-6.24l2.5-.24s.48,4.08.72,6.48Z"/>
      <path class="cls-1" d="M113.76,41.14l-2.4-1.92c7.06-5.38,12.34-13.39,13.78-22.51h-26.98v-3.02h30.24c-.62,12.86-7.92,22.08-14.64,27.46ZM107.28,4.22V1.2h12.58v3.02h-12.58Z"/>
      <path class="cls-1" d="M152.74,20.16h-2.88V2.06h2.88v18.1ZM163.06,41.86l-2.98-.96c6-8.64,8.88-15.46,8.88-30.34,0-2.5,0-5.62-.24-9.36h2.98c.14,4.22.24,7.58.24,10.08,0,13.2-2.16,20.88-8.88,30.58Z"/>
      <path class="cls-1" d="M226.8,20.88h-34.56v-2.74h34.56v2.74Z"/>
    </g>
  </g>
</svg>