<?xml version="1.0" encoding="UTF-8"?>
<svg id="_レイヤー_2" data-name="レイヤー_2" xmlns="http://www.w3.org/2000/svg" viewBox="0 0 91.44 43.3">
  <defs>
    <style>
      .cls-1 {
        fill: #231815;
      }
    </style>
  </defs>
  <g id="_レイヤー_1-2" data-name="レイヤー_1">
    <g>
      <path class="cls-1" d="M0,8.16h13.83v2.98H0v-2.98ZM1.2,31.16h11.18v10.7H1.2v-10.7ZM3.98,23.14h5.76v2.88H3.98v-2.88ZM9.98,18.48h-5.9v-3.02h5.9v3.02ZM4.22,38.84h5.28v-4.66h-5.28v4.66ZM8.54,5.04h-3.02V.24h3.02v4.8ZM44.16,33.32v3.02h-3.7v6.82c-2.06.24-3.12.14-5.42-.1l-.1-2.88c.72.1,1.68.1,2.64.1v-3.94h-13.58v6.72h-2.98v-6.72h-3.84v-3.02h3.84v-10.51h8.26v-3.36h3.02v3.36h8.16v10.51h3.7ZM42.96,17.62h-24.72v-2.98h6.48v-2.88h-3.46v-3.03h3.46v-2.5h-5.52v-2.88h5.52V0h3.02v3.36h5.86V0h3.02v3.36h5.62v2.88h-5.62v2.5h3.6v3.03h-3.6v2.88h6.34v2.98ZM29.28,25.78h-5.28v2.54h5.28v-2.54ZM29.28,30.82h-5.28v2.5h5.28v-2.5ZM27.75,8.74h5.86v-2.5h-5.86v2.5ZM33.6,11.76h-5.86v2.88h5.86v-2.88ZM37.59,25.78h-5.28v2.54h5.28v-2.54ZM37.59,30.82h-5.28v2.5h5.28v-2.5Z"/>
      <path class="cls-1" d="M60.38,3.46c-3.12,2.64-7.1,4.71-11.67,6.38l-1.44-2.64c4.32-1.68,8.3-3.74,11.28-6l1.82,2.26ZM63.27,40.76h-14.06V13.2h14.06v10.9h-11.04v5.66h11.04v10.99ZM60.24,21.22v-5.04h-8.02v5.04h8.02ZM60.24,37.78v-5.04h-8.02v5.04h8.02ZM91.44,6.1h-9.6v8.54h7.92v17.95c-1.2.24-4.08.14-5.86-.1l-.24-2.98c1.54.24,2.26.24,3.12.24v-12.14h-4.94v25.54h-2.98v-25.54h-5.04v14.16h-2.88V14.64h7.92V6.1h-9.5v-2.88h22.08v2.88Z"/>
    </g>
  </g>
</svg>