<?xml version="1.0" encoding="UTF-8"?>
<svg id="_レイヤー_2" data-name="レイヤー_2" xmlns="http://www.w3.org/2000/svg" viewBox="0 0 314.88 36.34">
  <defs>
    <style>
      .cls-1 {
        fill: #231815;
      }
    </style>
  </defs>
  <g id="_レイヤー_1-2" data-name="レイヤー_1">
    <g>
      <path class="cls-1" d="M0,34.8V0h3.02v31.44c5.52-.96,14.16-3.98,19.54-8.16l.96,2.78c-6.1,4.9-16.66,8.11-23.52,8.74Z"/>
      <path class="cls-1" d="M48.38,17.67l-2.3,1.3c-.72-1.2-1.68-2.64-3.22-4.66l2.16-1.34c1.06,1.34,2.26,2.78,3.36,4.7ZM54,15.6c-.72-1.2-1.92-2.98-3.36-4.66l2.3-1.34c1.2,1.44,2.4,3.12,3.36,4.7l-2.3,1.3ZM70.56,11.67c-2.16,10.8-7.68,19.06-16.66,24.67l-1.92-2.02c8.74-5.52,14.02-13.06,16.08-23.14l2.5.48Z"/>
      <path class="cls-1" d="M91.58,34.66l-2.3-2.16c13.44-8.35,19.44-18.91,21.6-28.42h-18.1V1.1h21.7c-1.54,12.96-10.18,26.26-22.9,33.55ZM121.59,34.9c-3.26-.82-7.58-2.98-10.32-5.38l1.78-2.3c2.88,2.3,5.42,3.5,9.84,4.94l-1.3,2.74Z"/>
      <path class="cls-1" d="M145.44,10.56c-2.88-2.26-4.9-3.6-6.82-4.8l2.02-2.26c2.3,1.3,4.22,2.64,6.72,4.66l-1.92,2.4ZM143.76,36.1l-1.44-2.64c10.22-3.6,20.55-11.71,25.92-24.58l2.54,1.58c-5.28,12.58-14.3,21.22-27.03,25.63Z"/>
      <path class="cls-1" d="M214.08,32.64h-24.1v-2.88h20.98c.38-6.82.86-14.64.86-24.1h-22.23v-2.88h25.35c0,7.2-.24,17.14-.86,29.86Z"/>
      <path class="cls-1" d="M266.79,17.76h-34.56v-2.74h34.56v2.74Z"/>
      <path class="cls-1" d="M283.58,34.66l-2.3-2.16c13.44-8.35,19.44-18.91,21.6-28.42h-18.1V1.1h21.7c-1.54,12.96-10.18,26.26-22.9,33.55ZM313.59,34.9c-3.26-.82-7.58-2.98-10.32-5.38l1.78-2.3c2.88,2.3,5.42,3.5,9.84,4.94l-1.3,2.74Z"/>
    </g>
  </g>
</svg>