<?xml version="1.0" encoding="UTF-8"?>
<svg id="_レイヤー_2" data-name="レイヤー_2" xmlns="http://www.w3.org/2000/svg" viewBox="0 0 200.6 43.2">
  <defs>
    <style>
      .cls-1 {
        fill: #231815;
      }
    </style>
  </defs>
  <g id="_レイヤー_1-2" data-name="レイヤー_1">
    <g>
      <path class="cls-1" d="M12.54,27.84c.16,9.64.23,14.65.23,15.02,0,.22-.12.33-.35.33h-1.48c-.22,0-.33-.11-.33-.33,0-.05.02-1.66.07-4.85.05-3.38.09-6.64.12-9.8-2.22,4.5-5.13,8.23-8.74,11.18-.3.23-.48.35-.56.35-.09,0-.26-.18-.49-.54-.27-.41-.6-.74-1.01-1.01,4.05-2.88,7.38-6.73,9.98-11.55h-2.93l-5.51.09c-.23,0-.35-.13-.35-.4v-1.34c0-.22.12-.33.35-.33l5.51.09h3.66v-1.55c0-2.2-.1-3.7-.3-4.5.97.05,1.73.11,2.27.19.31.06.47.19.47.38,0,.17-.06.38-.19.63-.19.45-.28,1.55-.28,3.3v1.55h1.57l5.53-.09c.19,0,.28.11.28.33v1.34c0,.27-.09.4-.28.4l-5.53-.09h-.96c1.88,2.83,4.16,5.1,6.87,6.82-.38.31-.68.66-.91,1.03-.19.34-.34.52-.45.52-.08,0-.27-.12-.56-.35-2.31-1.89-4.21-4.16-5.7-6.82ZM22.52,8.44c.02,2.62.08,5.51.19,8.65.09,2.47.14,3.72.14,3.75,0,.22-.11.33-.33.33h-1.78c-.23,0-.35-.11-.35-.33l.3-12.4c-2.22,2.75-5.01,5.08-8.37,6.98-2.48,1.41-5.49,2.7-9.02,3.89-.27.09-.45.14-.54.14-.19,0-.39-.2-.61-.59-.31-.52-.68-.91-1.1-1.2,4.28-1.22,7.8-2.59,10.57-4.1,2.69-1.47,5.1-3.3,7.24-5.51h-8.16l-6.68.09c-.22,0-.33-.11-.33-.33v-1.45c0-.22.11-.33.33-.33l6.68.09h9.84v-1.2c0-2.02-.12-3.62-.35-4.8,1,.05,1.83.14,2.48.28.39.06.59.2.59.4,0,.12-.04.28-.12.47-.09.22-.15.37-.16.45-.19.62-.28,1.65-.28,3.07v1.34h10.64l6.73-.09c.22,0,.33.11.33.33v1.45c0,.22-.11.33-.33.33l-6.73-.09h-9.02c2.7,2.5,5.56,4.49,8.58,5.98,2.58,1.27,5.87,2.46,9.87,3.59-.52.39-.88.82-1.1,1.29-.2.41-.41.61-.61.61-.11,0-.29-.05-.54-.14-7.59-2.41-13.59-6.05-18-10.95ZM32.02,27.75c.16,9.39.23,14.41.23,15.07,0,.22-.09.33-.28.33h-1.5c-.22,0-.33-.11-.33-.33,0-.81.08-5.82.23-15.02-2.33,4.81-5.75,8.75-10.27,11.81-.28.19-.46.28-.54.28-.12,0-.3-.17-.52-.52-.33-.47-.7-.8-1.1-.98,5.11-3.08,8.9-6.99,11.37-11.74h-.87l-5.84.09c-.23,0-.35-.12-.35-.38v-1.36c0-.22.12-.33.35-.33l5.84.09h1.73v-1.64c0-2.03-.08-3.48-.23-4.36.95.05,1.73.11,2.32.19.25.05.38.16.38.33,0,.2-.06.43-.19.68-.17.38-.26,1.41-.26,3.12v1.69h4.52l5.81-.09c.22,0,.33.11.33.33v1.36c0,.25-.11.38-.33.38l-5.81-.09h-3.89c3.09,4.72,7,8.37,11.72,10.95-.41.34-.74.74-1.01,1.2-.23.38-.41.56-.52.56-.09,0-.26-.08-.49-.23-4.66-3.22-8.16-7.01-10.52-11.37Z"/>
      <path class="cls-1" d="M47.91,40.57c2.73-2.8,4.66-6.32,5.77-10.57.8-2.95,1.2-7.88,1.2-14.79v-5.6c0-3.28-.14-5.72-.42-7.31.98.06,1.8.16,2.46.3.39.05.59.17.59.38,0,.12-.08.43-.23.91-.12.52-.19,2.45-.19,5.81v4.85c0,7.64-.4,12.95-1.2,15.94-1.22,4.5-3.08,8.2-5.58,11.09-.2.28-.36.42-.47.42-.09,0-.29-.16-.59-.47-.39-.44-.84-.76-1.34-.96ZM69,4.17c.8.05,1.66.12,2.58.23.36.06.54.2.54.4,0,.17-.09.45-.26.82-.19.58-.28,2.16-.28,4.73v18.91l.09,7.5c0,.22-.11.33-.33.33h-1.78c-.19,0-.28-.11-.28-.33l.09-7.5V10.52c0-2.78-.12-4.9-.38-6.35ZM84.02,2.11c.89.05,1.75.12,2.58.23.36.06.54.21.54.45,0,.2-.06.48-.19.82-.23.61-.35,2.19-.35,4.73v25.55l.09,7.78c0,.22-.11.33-.33.33h-1.78c-.22,0-.33-.11-.33-.33l.09-7.78V8.51c0-2.95-.11-5.09-.33-6.4Z"/>
      <path class="cls-1" d="M117.19,15.94c-2.58-3.06-4.98-5.54-7.2-7.43-.09-.11-.14-.19-.14-.23,0-.06.09-.24.28-.54l.45-.63c.19-.27.33-.4.42-.4.06,0,.16.05.28.16.53.45,1.26,1.14,2.18,2.06,1.52-2.31,2.76-4.44,3.73-6.38.47-.91.79-1.76.96-2.55.88.3,1.55.6,2.02.91.3.16.45.35.45.59,0,.17-.11.33-.33.47-.28.2-.55.52-.82.96-1.45,2.44-3.02,4.87-4.71,7.29.64.61,1.86,1.92,3.66,3.94,1.56-2.44,2.84-4.55,3.82-6.33.61-1.11,1.06-2.13,1.36-3.07.83.36,1.5.73,2.02,1.1.25.19.38.36.38.52s-.14.35-.42.59c-.27.2-.8.94-1.59,2.2-2.84,4.53-5.59,8.58-8.25,12.14,3.09-.16,5.88-.36,8.34-.61-.59-1.34-1.19-2.55-1.78-3.61-.06-.09-.09-.16-.09-.19,0-.06.2-.19.59-.38l.47-.21c.27-.11.43-.16.49-.16.08,0,.16.08.23.23,1.06,1.89,2.23,4.52,3.49,7.9.03.09.05.16.05.21,0,.12-.19.27-.56.42l-.63.23c-.28.11-.46.16-.54.16-.09,0-.16-.1-.21-.3-.22-.66-.51-1.54-.87-2.65-1.16.14-2.73.3-4.71.49v12.73l.05,7.24c0,.19-.09.28-.28.28h-1.64c-.22,0-.33-.09-.33-.28l.09-7.24v-12.54c-2.23.19-3.87.31-4.9.38-.88.08-1.47.21-1.78.4-.25.12-.42.19-.52.19-.19,0-.34-.2-.45-.59-.09-.31-.22-1.03-.38-2.16.86.09,1.76.14,2.7.14h.75c1.95-2.64,3.25-4.46,3.89-5.46ZM109.95,38.7c1.25-2.89,2.02-6.09,2.32-9.61.05-.5.07-.94.07-1.31,0-.27,0-.58-.02-.94.78.09,1.44.22,1.97.38.34.12.52.27.52.45,0,.12-.06.31-.19.56s-.22.66-.28,1.24c-.39,3.59-1.12,6.78-2.18,9.56-.14.39-.27.59-.38.59-.08,0-.27-.12-.56-.35-.34-.25-.77-.44-1.27-.56ZM123.73,26.6c.19-.06.32-.09.4-.09.12,0,.22.08.28.23.97,2.55,1.77,5.42,2.39,8.62.02.06.02.12.02.16,0,.14-.16.28-.49.42l-.73.28c-.27.09-.44.14-.52.14-.11,0-.18-.09-.21-.28-.64-3.52-1.39-6.45-2.25-8.79-.03-.08-.05-.13-.05-.16,0-.11.2-.23.59-.35l.56-.19ZM140.2,1.73c3.98,6.22,8.41,10.66,13.29,13.34-.53.34-.93.74-1.2,1.2-.22.38-.39.56-.52.56-.09,0-.29-.1-.59-.3-4.64-3.25-8.64-7.62-12-13.12-3.28,5.61-6.88,10.12-10.8,13.55-.3.25-.5.38-.61.38-.12,0-.29-.16-.49-.47-.25-.34-.67-.68-1.27-1.01,4.34-3.27,8.05-7.59,11.11-12.96.5-.89.84-1.82,1.01-2.79.84.09,1.55.23,2.13.4.39.08.59.23.59.47,0,.14-.11.3-.33.49-.09.05-.2.14-.33.28ZM131.27,38.48c2.2-4.97,3.72-9.03,4.55-12.19h-.91l-6.33.09c-.22,0-.33-.11-.33-.33v-1.5c0-.22.11-.33.33-.33l6.33.09h10.76l6.33-.09c.23,0,.35.11.35.33v1.5c0,.22-.12.33-.35.33l-6.33-.09h-7.52c-1.38,4.42-2.85,8.41-4.43,11.95,4.31-.47,8.71-1.05,13.2-1.73-1.16-1.84-2.3-3.49-3.45-4.95-.08-.11-.12-.19-.12-.23,0-.08.12-.19.35-.33l.77-.45c.19-.11.32-.16.4-.16s.17.06.28.19c2.31,2.81,4.55,6.21,6.7,10.2.05.09.07.18.07.26,0,.14-.15.3-.45.47l-.77.4c-.28.14-.48.21-.59.21s-.2-.09-.28-.26c-.47-.98-1.11-2.17-1.92-3.56-6.94,1.09-12.92,1.89-17.95,2.39-1.11.11-1.8.27-2.06.49-.17.12-.31.19-.42.19-.19,0-.34-.14-.45-.42-.22-.62-.41-1.4-.56-2.32.25.02.56.02.94.02,1.44,0,2.68-.05,3.73-.16h.14ZM136.97,15.84h4.9l4.66-.09c.22,0,.33.11.33.33v1.55c0,.22-.11.33-.33.33l-4.66-.09h-4.9l-4.69.09c-.23,0-.35-.11-.35-.33v-1.55c0-.22.12-.33.35-.33l4.69.09Z"/>
      <path class="cls-1" d="M180.14,29.72c3.69,6.11,10.51,9.88,20.46,11.32-.45.36-.8.8-1.05,1.34-.2.47-.41.7-.61.7-.08,0-.25-.02-.52-.07-9.67-1.92-16.27-6.11-19.8-12.56-1,2.73-2.8,5.12-5.39,7.15-3.2,2.5-7.59,4.3-13.15,5.41-.3.06-.48.09-.54.09-.19,0-.38-.2-.56-.61-.23-.52-.57-.97-1.01-1.36,6.03-.94,10.69-2.66,13.97-5.18,2.23-1.75,3.79-3.83,4.66-6.23h-10.24l-6.52.09c-.22,0-.33-.11-.33-.33v-1.45c0-.22.11-.33.33-.33l6.52.09h10.76c.06-.19.12-.51.19-.96.14-.81.21-1.55.21-2.2,0-.48-.04-.97-.12-1.45.73.08,1.45.18,2.16.3.48.11.73.28.73.52,0,.06-.11.32-.33.77-.16.3-.34,1.08-.54,2.34l-.09.68h12.77l6.59-.09c.22,0,.33.11.33.33v1.45c0,.22-.11.33-.33.33l-6.59-.09h-11.95ZM177.7,8.7h-9.21l-6.77.09c-.22,0-.33-.11-.33-.33v-1.45c0-.22.11-.33.33-.33l6.77.09h14.11c.89-1.39,1.75-2.9,2.58-4.52.31-.62.54-1.3.68-2.02.83.22,1.52.46,2.06.73.28.17.42.34.42.49,0,.22-.12.41-.38.56-.36.25-.63.55-.82.91-.59,1.12-1.42,2.41-2.48,3.84h5.32l6.77-.09c.22,0,.33.11.33.33v1.45c0,.22-.11.33-.33.33l-6.77-.09h-10.12v4.64h7.55l6.8-.09c.23,0,.35.11.35.33v1.41c0,.22-.12.33-.35.33l-6.8-.09h-7.55v5.09h13.38l6.4-.09c.22,0,.33.11.33.33v1.45c0,.22-.11.33-.33.33l-6.4-.09h-28.01l-6.4.09c-.22,0-.33-.11-.33-.33v-1.45c0-.22.11-.33.33-.33l6.4.09h12.47v-5.09h-6.82l-6.82.09c-.19,0-.28-.11-.28-.33v-1.41c0-.22.09-.33.28-.33l6.82.09h6.82v-4.64ZM171.26.59c1.14,1.28,2.16,2.7,3.05,4.27.05.08.07.15.07.21,0,.12-.11.24-.33.35l-.87.49c-.34.19-.55.28-.61.28s-.13-.08-.21-.23c-.66-1.5-1.61-2.95-2.86-4.36-.11-.11-.16-.2-.16-.28,0-.12.15-.26.45-.4l.73-.33c.22-.12.38-.19.47-.19s.19.06.28.19Z"/>
    </g>
  </g>
</svg>