<?xml version="1.0" encoding="UTF-8"?>
<svg id="_レイヤー_2" data-name="レイヤー_2" xmlns="http://www.w3.org/2000/svg" viewBox="0 0 210.74 27.07">
  <defs>
    <style>
      .cls-1 {
        fill: #231815;
      }
    </style>
  </defs>
  <g id="_レイヤー_1-2" data-name="レイヤー_1">
    <g>
      <path class="cls-1" d="M0,26.65V1.44h12.29v2.14H2.34v9.25h9.21v2.11H2.34v9.58h10.51v2.13H0Z"/>
      <path class="cls-1" d="M40.36,26.65v-10.58c0-1.08-.08-1.99-.25-2.73s-.42-1.35-.76-1.82-.79-.81-1.32-1.02-1.17-.32-1.91-.32c-.66,0-1.28.16-1.86.47s-1.1.74-1.54,1.28-.79,1.19-1.04,1.92-.38,1.54-.38,2.39v10.41h-2.25v-10.81c0-3.77-1.45-5.66-4.34-5.66-.67,0-1.29.15-1.86.45s-1.08.72-1.5,1.26-.76,1.19-1,1.94-.36,1.59-.36,2.5v10.32h-2.25V8.65h2.25v2.92h.07c1.27-2.23,3.11-3.34,5.54-3.34.63,0,1.23.1,1.79.29s1.07.46,1.51.81.83.76,1.15,1.24.57,1.01.73,1.58c.63-1.28,1.46-2.25,2.47-2.92s2.16-1,3.44-1c3.95,0,5.92,2.44,5.92,7.31v11.11h-2.25Z"/>
      <path class="cls-1" d="M49.13,4.1c-.43,0-.81-.15-1.12-.46s-.47-.69-.47-1.16.16-.83.47-1.13.69-.45,1.12-.45c.22,0,.43.04.63.11s.37.18.52.33.26.31.35.5.13.41.13.64-.04.43-.12.63-.2.37-.35.52-.33.26-.52.34-.41.12-.64.12ZM48.02,26.65V8.65h2.25v18h-2.25Z"/>
      <path class="cls-1" d="M88.61,26.65V9.25c0-.89.07-2.33.21-4.31h-.07c-.16.53-.31.98-.45,1.37s-.26.7-.38.95l-8.79,19.39h-1l-8.81-19.27c-.26-.59-.52-1.41-.79-2.48h-.07c.05.54.08,1.15.1,1.85s.03,1.46.03,2.3v17.6h-2.29V1.44h2.76l8.56,18.95c.18.4.35.81.52,1.22s.33.86.47,1.33h.11c.16-.47.31-.9.45-1.28s.3-.8.5-1.25L88.29,1.44h2.62v25.21h-2.3Z"/>
      <path class="cls-1" d="M104.45,27.07c-1.34,0-2.53-.22-3.59-.67s-1.97-1.08-2.72-1.89-1.32-1.79-1.72-2.93-.6-2.4-.6-3.78c0-1.5.21-2.84.63-4.03s1.02-2.19,1.8-3.01,1.72-1.46,2.82-1.89,2.33-.65,3.69-.65,2.47.21,3.52.64,1.93,1.05,2.65,1.85,1.28,1.79,1.67,2.95.58,2.48.58,3.96-.2,2.69-.61,3.84-.98,2.15-1.73,2.98-1.66,1.48-2.74,1.93-2.3.69-3.66.69ZM104.62,10.18c-.98,0-1.88.17-2.67.51s-1.48.83-2.05,1.49-1,1.45-1.31,2.39-.46,2.01-.46,3.21c0,1.12.15,2.14.46,3.04s.74,1.68,1.29,2.32,1.23,1.14,2.03,1.49,1.69.52,2.67.52,1.9-.17,2.67-.5,1.43-.82,1.97-1.46.95-1.42,1.22-2.35.41-1.98.41-3.16c0-2.43-.54-4.28-1.62-5.56s-2.62-1.92-4.62-1.92Z"/>
      <path class="cls-1" d="M126.65,10.95c-.53-.39-1.21-.58-2.04-.58-.6,0-1.12.11-1.58.34s-.86.54-1.2.92-.64.83-.88,1.34-.43,1.04-.58,1.59-.25,1.11-.32,1.67-.1,1.1-.1,1.6v8.81h-2.23V8.65h2.23v3.85h.07c.21-.66.48-1.25.8-1.77s.69-.96,1.12-1.32.88-.63,1.38-.82,1.02-.28,1.57-.28c.36,0,.69.02.98.07s.55.12.78.21v2.36Z"/>
      <path class="cls-1" d="M131.03,4.1c-.43,0-.81-.15-1.12-.46s-.47-.69-.47-1.16.16-.83.47-1.13.69-.45,1.12-.45c.22,0,.43.04.63.11s.37.18.52.33.26.31.35.5.13.41.13.64-.04.43-.12.63-.2.37-.35.52-.33.26-.52.34-.41.12-.64.12ZM129.92,26.65V8.65h2.25v18h-2.25Z"/>
      <path class="cls-1" d="M148.57,26.65l-8.28-8.77h-.07v8.77h-2.25V0h2.25v17.03h.07l7.86-8.38h2.94l-8.44,8.7,9.11,9.3h-3.18Z"/>
      <path class="cls-1" d="M165.27,26.65v-3.2h-.07c-.59,1.15-1.39,2.04-2.4,2.67s-2.16.95-3.44.95c-.87,0-1.65-.12-2.35-.37s-1.29-.59-1.78-1.05-.86-.99-1.12-1.63-.4-1.33-.4-2.09c0-1.63.5-2.93,1.51-3.89s2.53-1.6,4.57-1.89l5.47-.79c0-3.46-1.34-5.19-4.03-5.19-2.1,0-4.04.77-5.84,2.3v-2.46c.38-.27.8-.51,1.27-.73s.98-.4,1.5-.56,1.07-.28,1.63-.37,1.1-.13,1.63-.13c2,0,3.52.56,4.54,1.69s1.54,2.8,1.54,5.03v11.71h-2.25ZM160.63,17.91c-.81.12-1.5.26-2.07.44s-1.05.41-1.42.71-.65.67-.83,1.11-.26.98-.26,1.63c0,.48.08.93.25,1.34s.42.76.74,1.06.71.53,1.18.69.99.25,1.57.25c.8,0,1.53-.15,2.2-.46s1.25-.73,1.73-1.27.87-1.18,1.14-1.93.41-1.56.41-2.44v-1.78l-4.64.65Z"/>
      <path class="cls-1" d="M189.19,26.65h-2.25l-3.81-13.22c-.12-.41-.21-.94-.28-1.6h-.07c-.02.18-.06.39-.11.65s-.14.56-.25.91l-4.2,13.25h-2.2l-5.45-18h2.41l3.96,13.96c.12.41.2.93.25,1.56h.14c.02-.21.06-.45.11-.72s.13-.56.22-.86l4.36-13.94h1.86l3.9,13.97c.11.4.19.92.26,1.56h.14c-.01-.2.01-.43.07-.69s.13-.55.23-.87l3.96-13.97h2.27l-5.5,18Z"/>
      <path class="cls-1" d="M208.49,26.65v-3.2h-.07c-.59,1.15-1.39,2.04-2.4,2.67s-2.16.95-3.44.95c-.87,0-1.65-.12-2.35-.37s-1.29-.59-1.78-1.05-.86-.99-1.12-1.63-.4-1.33-.4-2.09c0-1.63.5-2.93,1.51-3.89s2.53-1.6,4.57-1.89l5.47-.79c0-3.46-1.34-5.19-4.03-5.19-2.1,0-4.04.77-5.84,2.3v-2.46c.38-.27.8-.51,1.27-.73s.98-.4,1.5-.56,1.07-.28,1.63-.37,1.1-.13,1.63-.13c2,0,3.52.56,4.54,1.69s1.54,2.8,1.54,5.03v11.71h-2.25ZM203.85,17.91c-.81.12-1.5.26-2.07.44s-1.05.41-1.42.71-.65.67-.83,1.11-.26.98-.26,1.63c0,.48.08.93.25,1.34s.42.76.74,1.06.71.53,1.18.69.99.25,1.57.25c.8,0,1.53-.15,2.2-.46s1.25-.73,1.73-1.27.87-1.18,1.14-1.93.41-1.56.41-2.44v-1.78l-4.64.65Z"/>
    </g>
  </g>
</svg>