<?xml version="1.0" encoding="UTF-8"?>
<svg id="_レイヤー_2" data-name="レイヤー_2" xmlns="http://www.w3.org/2000/svg" viewBox="0 0 391.5 55.74">
  <defs>
    <style>
      .cls-1 {
        fill: #231815;
      }
    </style>
  </defs>
  <g id="_レイヤー_1-2" data-name="レイヤー_1">
    <g>
      <path class="cls-1" d="M37.5,39.6c0,5.34-2.58,10.14-8.88,14.94l-3.12-2.22c5.7-3.9,8.1-8.1,8.1-12.9,0-7.2-6.48-13.92-17.4-12.12v24.42c-8.4.6-16.2-3.9-16.2-13.2,0-7.92,5.52-12.6,12.42-14.22v-9.6h-7.32v-3.6h7.32V3.72h3.78v7.38h9.6v3.6h-9.6v9.12c12.12-1.62,21.3,4.68,21.3,15.78ZM12.42,28.02c-5.1,1.5-9,5.1-9,10.38,0,6.84,5.1,8.94,9,9.54v-19.92ZM42.9,15.72h-3.78c.6-3.3.3-6.12.18-7.32h3.72c.3,1.8.3,5.52-.12,7.32Z"/>
      <path class="cls-1" d="M62.52,24.9l-1.92,3.42c-1.98-1.02-4.08-2.22-6.6-3.12l1.8-3.48c2.52.9,4.5,1.98,6.72,3.18ZM66.42,43.44c-3,2.4-6.42,4.08-11.1,5.28l-1.2-3.78c4.2-1.2,7.68-2.7,10.98-5.04l1.32,3.54ZM63.72,13.02l-1.92,3.48c-1.98-1.2-4.08-2.28-6.6-3.18l1.8-3.42c2.52.9,4.5,1.92,6.72,3.12ZM104.52,37.2h-13.32v18.54h-3.78v-18.54h-13.32v-3.78h13.32v-7.5h-6.42v-3.72h6.42v-8.28h-11.4v-3.72h27v3.72h-11.82v8.28h6.12v3.72h-6.12v7.5h13.32v3.78ZM79.92,7.32c-1.32-1.62-2.82-3.42-4.5-4.92l3.18-2.4c2.1,2.1,3.6,3.72,4.62,5.1l-3.3,2.22ZM98.4,7.5l-3-2.58c1.8-1.5,3.12-3,4.62-4.8l3.18,2.28c-1.5,1.92-3,3.6-4.8,5.1Z"/>
      <path class="cls-1" d="M132.42,52.92c-2.4.12-5.4.12-6.9,0l-.3-4.08c.9.18,2.1.3,3.48.3v-17.82h-7.5v-3.6h7.5v-6.9h-7.5v-3.6h7.5v-8.1h-10.38c.18,13.68.48,29.28-2.82,42.3l-3.78-.18c2.58-10.32,3.3-24.72,3-45.72h17.7v47.4ZM162,22.8c-1.2,0-6,.12-9,0l-.48-3.78c1.98.18,3.78.18,5.7.18v-10.8h-12.3v46.32h-3.72V4.62h19.8v18.18ZM164.82,54.72c-4.62-1.8-7.62-3.48-10.92-6.6-1.2,1.2-2.58,2.22-3.9,3.3l-3.18-2.58c1.5-1.02,3.18-2.4,4.38-3.6-.9-1.2-1.98-2.52-2.88-3.72l3.18-2.1c.6.9,1.32,1.8,2.1,2.82,1.92-2.64,3.3-5.82,4.02-9.12h-8.7v-3.72h13.08c-.48,6.12-2.4,11.34-5.58,15.72,3.18,3,5.4,4.02,10.5,6.3l-2.1,3.3Z"/>
      <path class="cls-1" d="M185.4,42.54c-4.2-4.02-6.48-8.52-6.6-13.92-.18-11.22,9.72-18.9,19.92-18.9,11.58,0,20.28,7.68,20.28,19.68-.18,7.2-2.7,14.64-10.5,21.42l-3.6-1.68c7.32-6.72,10.32-13.32,10.32-19.92,0-7.32-4.5-15.72-16.32-15.9-9.9-.12-16.8,7.38-16.5,15.3.12,3.48,1.2,6.18,3.3,8.4l13.92-13.5,2.28,2.88c-9.3,8.82-14.88,14.34-16.5,16.14Z"/>
      <path class="cls-1" d="M277.5,39.6c0,5.34-2.58,10.14-8.88,14.94l-3.12-2.22c5.7-3.9,8.1-8.1,8.1-12.9,0-7.2-6.48-13.92-17.4-12.12v24.42c-8.4.6-16.2-3.9-16.2-13.2,0-7.92,5.52-12.6,12.42-14.22v-9.6h-7.32v-3.6h7.32V3.72h3.78v7.38h9.6v3.6h-9.6v9.12c12.12-1.62,21.3,4.68,21.3,15.78ZM252.42,28.02c-5.1,1.5-9,5.1-9,10.38,0,6.84,5.1,8.94,9,9.54v-19.92ZM282.9,15.72h-3.78c.6-3.3.3-6.12.18-7.32h3.72c.3,1.8.3,5.52-.12,7.32Z"/>
      <path class="cls-1" d="M341.22,54.54h-43.8v-20.52h3.78v16.92h40.02v3.6ZM340.2,11.4h-16.68v3.6h-3.72v-3.6h-17.88v-3.78h17.88V.72h3.72v6.9h16.68v3.78ZM333.9,45.54h-23.7v-27.12h23.7v27.12ZM330.12,41.82v-4.5h-12.6v-3.6h12.6v-3.72h-12.6v-3.78h12.6v-4.02h-16.2v19.62h16.2Z"/>
      <path class="cls-1" d="M390.42,50.22c-15.6-.6-18.72-5.88-18.6-19.5V6.9h3.78v25.62c0,10.32,2.4,13.5,15.9,14.1l-1.08,3.6Z"/>
    </g>
  </g>
</svg>