<?xml version="1.0" encoding="UTF-8"?>
<svg id="_レイヤー_2" data-name="レイヤー_2" xmlns="http://www.w3.org/2000/svg" viewBox="0 0 362.16 64.95">
  <defs>
    <style>
      .cls-1 {
        fill: #036eb8;
      }

      .cls-2 {
        fill: #e60012;
      }

      .cls-3 {
        fill: #e83828;
      }

      .cls-4 {
        fill: #40220f;
      }

      .cls-5 {
        fill: #006934;
      }

      .cls-6 {
        fill: #3e3a39;
      }
    </style>
  </defs>
  <g id="_レイヤー_1-2" data-name="レイヤー_1">
    <g>
      <path class="cls-2" d="M10.2,23.24c.05,1.32.33,4.62.56,6.1l-3.59.26c.06-.17.04-.48.07-.73-.53.04-1.01.07-1.6.12.07.24.09.55.11.79l-3.59.26c.14-1.45-.1-5.72-.26-6.31-.09-.23-.48-.62-.98-.94.67-.7,1.29-1.46,1.72-2.17-.59.12-1.07.2-1.42.3.24-.69.44-2.2.44-2.87,1.21.03,4.76-.1,5.99-.36.18-.13.34-.34.44-.58-.25-.15-.5-.21-.66-.19-1.4-.02-4.79.3-6.45.66.24-.69.44-2.2.44-2.87,1.21.11,4.76-.1,5.99-.31.18-.18.4-.44.55-.76-1.62-.12-6,.15-7.94.69.3-.79.31-2.43.32-2.96,1.64,0,6.12-.27,7.73-.56.04-.08.11-.13.11-.2-.51-.37-.82-.35-1.18-.4-1.33-.02-4.61.17-6.26.57.19-.74.43-2.32.43-3.04,1.16.11,4.64-.02,5.83-.3.35-.19.59-.77.81-1.14.52.56,1.57,1.69,2.19,2.01-.34.34-.6.72-.81,1.14.67.91,1.22,1.91,1.92,2.58-.72.65-1.37,1.66-1.8,2.46.39.45.78.79,1.08.96-.61.53-.92,1.2-1.31,1.83.53.64,1.13,1.31,1.55,1.52-.57.45-.89,1.08-1.21,1.65.47.57,1.16,1.12,1.75,1.56-.54.21-.77.99-.94,1.25ZM3.1,20.57c.31.29.77.62,1.06.72.79,0,2.48-.01,3.18-.23.23-.09.57-.4.84-.73-.25-.1-.42-.09-.54-.13-1.2.02-3.07.15-4.54.38ZM7.11,26.11c-.07-1-.15-2.03-.18-2.51-.67.05-.91.07-1.56.11.04.55.04,1.51.06,2.52.6-.04,1.13-.08,1.68-.12ZM21.66,10.28c.02,1.92.37,6.83.8,8.41l-4.19.3c.03-.24.01-.53.06-.85-.91.02-1.88.01-2.88.16-.07,1.69.17,3.96.32,5.37.21,1.26.4,1.25,2.08,1.12,2.75-.2,3.65-1.11,4.46-4.89l1.37.58c-.69,1.47-1.13,2.7-1.1,3.06.06.84.73,1.75,1.56,2.54-.84.73-1.55,1.87-1.98,2.62-1.01-.65-1.77-.55-4.84-.32-2.39.17-3.99.41-5.04.8l-.26-.22c.24-2.3-.15-9.42-.65-11.31-.44-.4-.46-.69-1.27-.87,1.03-.8,1.9-2.01,2.45-2.7.51.37,1.15.88,1.89,1.23,1.28.1,2.65,0,3.79-.2-.08-1.8-.22-3.71-.35-4.86-1.56.06-5.11.25-7.65.67.22-.91.37-2.24.36-3.32,1.86.11,6.04-.27,7.78-.51.58-.28,1.3-.98,1.58-1.44,1.08,1,1.89,2.15,3.03,2.98-.7.34-1.16,1.29-1.32,1.66Z"/>
      <path class="cls-2" d="M44.43,12.37c-1.21-.11-2.24-.32-3.23-.68-.62.72-1.16,1.65-1.52,2.23-.72-.62-1.13-.71-1.49-.69-2.29,0-6.58.48-9.27.91.05-.25.15-.61.24-1.03-1.49.4-3.15.64-4.82.83l-.2-.47c1.56-.79,3-1.78,4.06-2.77,1.58-1.44,2.91-3.03,3.55-4.11-.19-.28-.63-.44-1.13-.64,1.01-.36,2.42-.82,3.26-1.44,1.31.51,3.02.86,4.52,1-.34.22-.69.41-1.03.75,2.58,1.43,5.89,2.27,9.38,2.33-.75.58-2.02,3.03-2.33,3.78ZM24.88,25.62c.78-.9,1.76-3.01,2.11-4.12.65.67,2.44,1.44,3.25,1.62-.85.9-1.78,2.97-2.07,3.95-1.02-.77-2.39-1.39-3.28-1.45ZM33.97,21.47c-.17.25-.03,1.21,0,1.68.04.6.45.62,2.68.46,2.92-.21,3.04-.22,3.98-1.61.67.99,1.82,1.91,2.38,2.36-.83.9-1.32,1.73-1.85,2.73-.82-.66-1.41-.57-4.72-.33-2.99.22-4.54.45-5.96.79.05-1.01-.04-4.81-.35-5.8-.33-.29-.96-.65-1.38-.74,1.16-.57,1.74-.9,2.52-1.75.56.39,1.37.7,2.23.92.91-.67,1.93-1.63,2.29-2.33.53.68,1.5,1.46,2.39,2.07.54-.88,1.22-2.13,1.17-2.73-2.77,0-9,.41-13.39,1.21.37-.94.54-2.57.47-3.47,3.56-.07,11.04-.44,13.97-.89.39-.32,1.3-.98,1.58-1.49.91.9,1.89,2.15,3.22,2.94-.77.37-1.32,1.01-1.81,1.65-.37,1.59-1.26,3.56-1.42,4.65-1-.46-2.28-.85-3.45-1.05-.68.58-1.62,1.54-2.01,2.12-.34-.65-1.31-1.42-2.11-1.94-.18.18-.33.43-.44.56ZM37.85,10.31c-1.08-.6-1.96-1.13-2.77-1.68-.56.64-1.18,1.36-1.96,2.14,1.75-.08,3.54-.26,4.73-.46ZM47.99,23.39c-1.05.44-2.19,1.31-3.14,2.22-.81-1.94-1.45-3.38-2.68-4.45,1.29-.5,2.55-1.32,3.41-2.15.52,1.5,1.56,3.3,2.41,4.38Z"/>
      <path class="cls-2" d="M63.43,13.04c.33-1.06.3-1.47-.34-1.42-1.15.13-3.05.39-5.12.73.04,2.16.19,4.25.36,5.99.21,1.84.26,1.96,4.4,1.66,2.56-.19,4.64-.7,6.63-1.56-.25,1.58-.14,4.03-.18,5.12-1.67.24-4.11.42-5.54.52-3.83.28-7.63.26-9.47.52l-.25-.17c.16-2.78-.12-7.31-.45-11.21-1.78.32-3.44.73-4.38,1.04.18-.78.08-3.9-.04-4.62,1.2-.09,2.63-.26,4.06-.42-.11-.83-.16-1.55-.27-2.1-.33-.51-1.08-1-1.81-1.12,1.09-.51,2.67-1.4,3.56-2.3,1.01.65,3.24,1.5,4.74,1.7-.79.66-1.35,1.35-1.45,1.6,0,.55.03,1.03,0,1.57,2.86-.38,5.43-.8,6.89-1.27.8-.61,1.71-1.33,1.91-1.82.81,1.15,2.35,3.2,3.44,4.25-.85.54-1.18.93-2.64,4.11-1.36,2.87-3.55,3.55-6.07,4.22l-.4-.57c1.49-1.72,1.84-2.78,2.45-4.44Z"/>
      <path class="cls-2" d="M75.09,16.17c-.67-.91-1.98-3.06-2.8-3.72.72-.7,1.78-2.7,2.25-3.77.32.41,1.17,1.19,1.79,1.51,3.06.07,14.68-.65,18.47-1.53-.17.97-.44,3.95-.47,5.16-2.95-.22-14.92.64-17.65,1.16-.59.21-1.04.56-1.6,1.2Z"/>
      <path class="cls-2" d="M118.72,9.93c.02,1.88.09,2.95-.01,5.46-.18,3.5-2.18,4.13-8.48,5.19-.59.12-1.16.64-1.66.96-.8-1.07-1.74-2.4-2.62-2.99.68-.6.68-1.25,1.05-2.12.11-4.1-.4-11.16-.7-13.06-.45-.26-.77-.59-1.33-.79-.6.69-.8,1.26-.82,2.59.02,1.97.26,6.24.41,8.32.36,4.96-1.57,7.26-6.92,9.16l-.44-.45c2.48-2.3,2.88-5.82,2.83-8.15.03-2.89-.21-7.21-.59-9.82-.32-.46-.95-.77-1.75-.96,1.1-.73,2.13-1.53,2.9-2.5,1.19.83,3.29,1.52,4.57,1.67.97-.62,2.06-1.47,2.83-2.44,1.38.74,2.75,1.44,4.46,1.84-.86.78-1.26.81-1.36,2.1-.12,2.3.4,9.53.73,11.79.85.11,2.38-.29,3.09-.58,1.46-.71,2.74-2,2.94-5.27l.89.06Z"/>
    </g>
    <g>
      <path class="cls-4" d="M14.1,41.6c-.05.19-.24.31-.48.34,2.38,3.12,6.74,6.62,10.44,8.47-.38.38-.79.91-1.08,1.39-3.77-2.09-8.09-5.62-10.37-8.66-1.99,2.9-6,6.48-10.15,8.83-.22-.36-.65-.94-1.01-1.27,4.2-2.28,8.4-6.1,10.3-9.27l2.35.17ZM20.94,53.41v6.82c0,1.85-1.01,1.9-4.75,1.9-.1-.48-.36-1.1-.6-1.54.74,0,1.44.02,2.02.02,1.51,0,1.68,0,1.68-.43v-5.28h-7.32v8.93h-1.66v-8.93H3.71v-1.49h17.23ZM7.57,48.8h10.32v1.49H7.57v-1.49Z"/>
      <path class="cls-4" d="M30.76,44.43c-1.49.34-3.05.65-4.51.89-.07-.36-.29-.89-.5-1.25,3.36-.6,7.2-1.51,9.24-2.54l1.49,1.25c-.1.07-.14.07-.48.07-.98.43-2.26.84-3.67,1.2v4.7h4.13v1.51h-4.13v1.44c1.01.91,3.48,3.43,4.08,4.1l-1.01,1.32c-.58-.82-1.99-2.45-3.07-3.67v10.34h-1.56v-11.14c-1.2,2.9-2.83,5.81-4.42,7.51-.19-.46-.6-1.08-.91-1.46,1.82-1.9,3.79-5.33,4.9-8.45h-4.58v-1.51h5.02v-4.32ZM37.43,44.17h9.34v18.79h-1.66v-1.68h-6.1v1.87h-1.58v-18.99ZM39.01,59.72h6.1v-13.99h-6.1v13.99Z"/>
    </g>
    <path class="cls-5" d="M258.38,57.19c.44.04.6.44,0,.72-1.52.76-2.44,2.32-3.24,4.04-.28.52-.76.96-1.8.64-3.68-1.24-8.84-4.84-10.32-12.52h-.48v12.2c0,1.12.04,1.32-.84,1.84-.84.52-2.36.8-3.24.84-.72,0-1.12-.36-1.12-1.08v-9.92c-4.68,4.96-9.84,7.64-15,9.64-.36.16-.64-.16-.24-.44,4.76-3.36,8.64-7.36,11.64-13.08h-1.4v.36c0,.8-.12,1.24-.88,1.56-.84.4-1.96.72-2.76.72-.68,0-1.16-.32-1.16-.96v-15.32c1.08.2,3.36.8,5.08,1.28h4.72v-3.92h-7.12s-5.4.12-7.4.2l-.48-1.04c2.92.04,8.04.08,8.04.08h6.96v-5.04c1.84.2,3.6.48,4.88.76,1.92.44,2,1.36.32,2.12v2.16h7.24c.72-1.24,1.44-2.4,1.96-3.08.52-.76.68-.8,1.48-.36,1.32.72,3,1.8,4.16,2.64.52.36.52.64.24,1.04-.32.44-.4.52-1.4.52h-13.68v3.92h4.76c.48-.64,1.08-1.36,1.4-1.76.48-.56.72-.52,1.24-.28,1.68.76,2.28,1.28,3.4,2.12,1.4,1,1.24,1.44-.36,2.52l-.04.04v9.08c0,1.08-.04,1.36-.88,1.72-.96.48-2.4.68-3.36.68-.76,0-1.12-.32-1.12-1.04v-.72h-3.92c3.12,4.56,8.04,5.96,14.72,7.12ZM232.35,43.39h5v-4.96h-5v4.96ZM237.34,49.31v-5.16h-5v5.16h5ZM242.54,43.39h5.04v-4.96h-5.04v4.96ZM247.58,49.31v-5.16h-5.04v5.16h5.04Z"/>
    <path class="cls-6" d="M325.4,51.81c0-3.87-2.67-7.44-7.23-7.44.81.6,1.56,1.53,1.56,2.49,0,.6-.36,1.95-.57,2.58-1.08,3.24-2.91,8.01-3.9,9.48-.6.93-1.56,2.25-2.85,2.25-.75,0-1.14-.51-1.2-1.2-.09-1.14-.75-3.09-1.62-3.72-1.32-.9-2.7-1.83-2.7-4.02,0-4.59,6.3-9,11.37-8.94,7.74.06,11.16,5.19,11.16,9,0,6.63-6.36,8.91-10.38,10.08-.39.09-.57-.12-.21-.33,3.12-1.68,6.57-5.25,6.57-10.23ZM316.73,45.69c0-.42-.09-.84-.18-1.14-3.54.78-7.05,3.57-7.05,7.95,0,2.46,2.01,4.02,3,4.53.51.27,1.08.12,1.41-.48,1.05-2.04,2.82-7.2,2.82-10.86Z"/>
    <path class="cls-1" d="M360.72,37.23v23.8c0,1.2-.04,1.48-.96,1.88-1.04.52-2.6.76-3.64.76-.88,0-1.24-.36-1.24-1.12v-2.12h-10.72v1.12c0,.92-.12,1.44-.96,1.88-.96.48-2.4.84-3.32.84-.76,0-1.2-.4-1.2-1.16v-30.44c1.44.36,3.84,1.12,5.92,1.84h9.88c.52-.8,1.28-1.8,1.72-2.32.52-.64.8-.6,1.36-.32,1.84.92,2.32,1.36,3.56,2.32,1.52,1.2,1.36,1.72-.4,3.04ZM344.17,35.31v11.36h10.72v-11.36h-10.72ZM354.88,59.59v-12.12h-10.72v12.12h10.72Z"/>
    <path class="cls-3" d="M262.58,46.98c7.6-5.24,10.96-11.88,13.36-18.48,1.96.44,3.88.84,5.76,1.24,1.56.32,1.96,1,1.44,1.6,3.28,4.84,9.76,7.48,15.84,9.6.52.2.36.6-.04.88-1.04.76-2.12,2.16-2.76,4.08-.24.64-.96.68-1.44.44-6.08-3.16-10.36-7.8-12.32-14.56-.16.08-.36.12-.6.2-4.2,6.76-9.68,12.08-19,15.36-.52.2-.6-.12-.24-.36ZM263.9,63.42c2.92.04,8.08.08,8.08.08h5.48v-11.8h-2.8s-5.4.16-7.4.2l-.52-1.04c2.96.08,8.08.08,8.08.08h2.64v-6.12h-1.56s-2.56.04-4.56.12l-.52-.96c2.96.08,5.24.08,5.24.08h6.44c.64-1.2,1.28-2.32,1.72-3,.44-.72.6-.76,1.32-.36,1.2.72,2.68,1.8,3.68,2.6.48.36.48.64.24,1.04-.28.44-.4.48-1.24.48h-4.44c.04.44-.28.92-1.08,1.16v4.96h3.88c.72-1.36,1.44-2.68,1.92-3.44.48-.8.68-.84,1.4-.36,1.32.8,2.92,1.96,4.04,2.84.48.44.52.72.24,1.16-.32.48-.4.56-1.36.56h-10.12v11.8h7.04c.76-1.28,1.52-2.48,2-3.16.52-.76.72-.8,1.52-.36,1.36.76,3.08,1.84,4.24,2.68.56.36.56.64.28,1.08-.32.44-.44.52-1.44.52h-24.52s-5.4.12-7.44.2l-.48-1.04ZM268.42,54.14c-.24-.24-.08-.6.32-.52,3.76.76,6.64,2.36,7.16,5.28.28,1.68-.52,3.32-2.44,3.72-1.28.28-2.56-.48-2.68-1.6-.16-1.84-.56-5.36-2.36-6.88ZM292.25,54.82c1.76.92,1.24,1.76-.16,1.92-2.56,2.36-4.32,3.76-7.64,6.2-.36.24-.64.24-.4-.28,1.4-3.08,2.32-5.64,3.52-9.68,1.56.48,3.6,1.28,4.68,1.84Z"/>
    <path class="cls-4" d="M54.36,36.86h15.8v1.91l-11.27,25.05h-3.06l11.27-24.41v-.07h-12.74v-2.48Z"/>
    <path class="cls-4" d="M98.78,56.75v1.58h-8.98v5.5h-1.63v-5.5h-11.38v-1.58h4.03v-6.6h7.34v-3.94h-6.19c-1.15,1.9-2.47,3.6-3.84,4.85-.29-.29-.91-.82-1.3-1.06,2.23-1.92,4.34-5.23,5.59-8.57l2.04.65c-.1.22-.31.26-.55.22-.31.79-.67,1.56-1.08,2.33h14.79v1.58h-7.83v3.94h7.3v1.54h-7.3v5.06h8.98ZM82.46,56.75h5.71v-5.06h-5.71v5.06Z"/>
    <path class="cls-4" d="M111.98,63.87v-24.15h-.07l-4.43,2.56-.72-2.23,5.58-3.13h2.56v26.96h-2.92Z"/>
    <path class="cls-4" d="M143.52,42.82v18.63c0,1.25-.34,1.8-1.22,2.09-.89.29-2.5.31-5.11.29-.12-.46-.43-1.22-.7-1.7,1.15.05,2.26.07,3.12.07,2.09,0,2.23,0,2.23-.74v-5.35h-11.88c-.62,2.81-1.87,5.64-4.42,7.78-.24-.36-.84-.96-1.2-1.2,4.13-3.5,4.54-8.47,4.54-12.46v-7.39h14.64ZM130.51,50.22c0,1.22-.05,2.74-.26,4.32h11.59v-4.32h-11.33ZM141.84,44.41h-11.33v4.27h11.33v-4.27Z"/>
    <g>
      <path class="cls-4" d="M157.19,63.87v-24.15h-.07l-4.43,2.56-.72-2.23,5.58-3.13h2.56v26.96h-2.92Z"/>
      <path class="cls-4" d="M169.11,50.48c0-9.43,3.67-14,8.71-14s8.24,4.82,8.24,13.64c0,9.36-3.28,14.18-8.64,14.18-4.9,0-8.32-4.82-8.32-13.82ZM183.04,50.27c0-6.73-1.62-11.37-5.4-11.37-3.2,0-5.47,4.28-5.47,11.37s1.98,11.59,5.36,11.59c4,0,5.51-5.18,5.51-11.59Z"/>
    </g>
    <path class="cls-4" d="M194.65,44.09h15.58v20.21h-1.68v-1.44h-12.24v1.58h-1.66v-20.35ZM208.55,45.72h-12.24v6.89h12.24v-6.89ZM196.31,61.23h12.24v-7.03h-12.24v7.03Z"/>
  </g>
</svg>