<?xml version="1.0" encoding="UTF-8"?>
<svg id="_レイヤー_2" data-name="レイヤー_2" xmlns="http://www.w3.org/2000/svg" viewBox="0 0 322.75 27.09">
  <defs>
    <style>
      .cls-1 {
        fill: #231815;
      }

      .cls-2 {
        fill: #fff100;
      }
    </style>
  </defs>
  <g id="_レイヤー_1-2" data-name="レイヤー_1">
    <rect class="cls-2" x="0" y="0" width="322.75" height="27.09" rx="13.55" ry="13.55"/>
    <g>
      <path class="cls-1" d="M74.87,8.73c.82-.02,3.38-.14,3.38-.14l-.07-3.65,2.95-.07s-.24,3.31-.26,3.62l4.54-.02.02,2.26s-3.86.46-4.56.41l.12,1.63,6.19.22v2.64s-3.65.19-4.94.12c-.02,2.88,2.02,3.72,4.37,3.6l-1.39,3.67s-4.99-1.3-5.21-6.99l-2.78-.05c.82,3.24-.55,6.89-5.38,6.75,1.75-1.82,3.53-5.06,3.26-6.79l-4.15-.02.1-2.45s6.38-.12,6.82-.24l-.05-2.11s-3.29-.14-3.98-.26c0,0-.77,1.27-2.81,1.61,1.03-2.52,1.9-4.49,1.73-7.22l3.07.53s-.43,1.9-.96,2.98Z"/>
      <path class="cls-1" d="M98.22,14.22h-3.24l.02-1.97s5.16.05,6.5-.02v-.84l-3.29-.05-.07-1.87s3.19.05,3.5-.05v-.82s-2.38.12-4.71.1l-.1-1.94s11.26.05,12.07-.07l-.1,2.06s-3.72-.05-4.3-.1l-.12.84,3.58.05-.19,1.56-3.48.02v1.1l5.78-.14-.07,2.26s-8.09-.02-9.24-.07c0,1.39-1.92,4.22-5.83,4.32,1.1-.74,2.93-2.64,3.26-4.37ZM101.8,5.18l-1.73,1.2-1.22-1.82,1.92-1.01,1.03,1.63ZM100.55,23.2s.05-6.48,0-6.96l7.15-.05s.36,4.95.14,6.91c0,0-4.44.34-7.3.1ZM102.85,22.14c1.2.19,2.74,0,2.74,0l-.1-.7-2.5-.05-.14.74ZM102.88,20.18c.98.22,2.64-.07,2.64-.07l-.02-.65h-2.54l-.07.72ZM103.04,18.3c.67,0,2.54-.05,2.54-.05l.02-.91-2.54.05-.02.91ZM108.04,5.46s-1.32.74-3.5.38c0,0,1.92-1.82,1.97-2.4l1.54,2.02Z"/>
      <path class="cls-1" d="M122.53,9.78s.02-2.23.14-3.48c0,0,5.35.02,6.14.07,0,0-.1,8.5.29,14.45,0,0-3.31.14-4.18.05,0,0,.53-10.22.48-11.09,0,0-2.35.07-2.88,0Z"/>
      <path class="cls-1" d="M144.52,12.83c.29-4.56,3.34-7.06,7.03-6.62,3.12.29,5.42,2.78,5.3,7.25-.17,6.46-3.91,7.78-6.48,7.58-2.93-.22-6.22-2.45-5.86-8.21ZM148,13.91c.07,1.8.96,3.1,2.54,3.22,1.8.12,2.66-1.34,2.66-3.77,0-2.02-1.03-3.26-2.3-3.36-1.8-.17-3.07,1.06-2.9,3.91Z"/>
      <path class="cls-1" d="M172.16,14.08s-1.08-.74-2.16-1.18l1.27-2.04s1.87.91,2.23,1.13c0,0,1.42-1.87,1.63-2.76l-3.46-.31s-1.58,1.82-4.08,2.02c0,0,2.88-3.53,3.53-6.48l2.66.62s-.46,1.68-.74,1.99c0,0,4.78.17,6.62.14-.94,3.41-3.55,6.65-5.38,7.73,0,0,4.32-.1,6.6.1,0,0,.14,6.29-.05,7.13-4.8.05-4.75.14-7.58.02,0,0-.02-4.73.02-5.83,0,0-2.21,1.85-5.93,2.06,0,0,4.15-2.93,4.8-4.34ZM175.81,19.7c.7.07,2.5-.07,2.5-.07.19-.55,0-2.28,0-2.28l-2.4.07c-.17.55-.1,2.28-.1,2.28Z"/>
      <path class="cls-1" d="M193.91,15.57l.31,6.19-1.92.05s.05-4.25.07-6c-.55.74-1.85,2.14-4.22,2.09,1.51-1.39,3.86-3.89,4.08-5.93v-.53l-2.14.48-.07-2.54,2.66.14-.41-2.66,2.35-.14-.07,2.74,2.14.19-.07,2.21s-1.39-.05-2.02-.14l-.05,1.54c-.05.7.96,1.68,2.14,1.8-.46.62-1.63,1.68-2.78.53ZM196.28,19.67c1.85,0,3.55-.84,3.55-.84-.55,1.97-1.85,3.14-1.85,3.14l-1.7-2.3ZM199.79,16.34l-.7,1.68s-1.1-.74-1.68-.98l.84-1.42,1.54.72ZM203.36,15.04s.1,6.89,0,8.26c0,0-1.51-1.75-2.78-2.93,0,0,.79.19,1.25.19,0,0,.02-4.87.02-5.67,0,0-1.85.31-3.58.24l-.12-2.02h3.46v-.84s-1.61,0-2.69.07l.07-2.04s2.4.07,2.69.02l.05-.98s-2.14-.22-3.22-.22l-.14-1.63s7.42-.29,8.09-.34l-.17,1.97s-2.52.07-2.86.07l.05.7,2.66.02.12,1.7s-2.54.19-2.71.19l-.07,1.03s2.38-.12,3.62-.19l-.05,2.21s-2.88.17-3.7.17ZM201.42,6.11l-1.82.74s-.53-1.3-.82-1.8l1.94-.82.7,1.87ZM205.62,4.05l1.56,1.92s-1.9.62-3.43.62c0,0,1.82-1.97,1.87-2.54ZM205.64,18.54s1.51,1.32,2.52,1.27l-1.54,2.14c-.17-.19-1.63-1.27-2.11-2.26l1.13-1.15ZM207.16,15.5l.82,2.47s-2.23.24-3.36-.72c0,0,2.04-.89,2.54-1.75Z"/>
      <path class="cls-1" d="M220.69,6.95l-2.3,4.18c.67.96,1.87,1.99,1.94,4.63.02,1.34-.29,2.21-.89,3.46-2.04-1.99-2.04-2.21-3.02-2.83,0,0,1.01.07,1.7.05-.12-1.73-.29-3.14-1.85-5.11l1.42-2.02s-1.44.12-2.14.14c0,0-.14,10.1.55,12.48l-2.33.17.02-15.05c.6.05,4.32.12,6.89-.1ZM224.53,20.34l2.14-.05s-2.52,1.97-4.13,2.98q-.12-13.95-.1-18.48c1.99-.1,7.51.26,7.97.14,0,0-.36,7.08-.26,7.46,0,0-4.66.14-5.52.05,0,0-.24,6.17-.1,7.9ZM228.73,16.58c1.46,1.37,3.19,2.35,4.46,2.59l-1.92,2.95s-5.23-4.78-6.34-7.25l1.22-1.42s.89,1.46,2.26,2.81c.79-.79,2.3-2.93,2.3-2.93.6.91,1.73,1.92,1.73,1.92-1.22.72-2.81,1.27-3.72,1.32ZM225.11,7.94c.7.1,2.33,0,2.33,0,0-.19-.05-1.3-.05-1.3l-2.09.05-.19,1.25ZM227.58,9.57l-2.18.19.05,1.18c1.22.1,2.14-.14,2.14-.14v-1.22Z"/>
      <path class="cls-1" d="M241.84,10.91s-1.61-.07-2.74-.22l.17-3.72s6-.17,6.5-.26l-.22-2.47,3.02.1-.19,2.35s5.98.14,6.98.1l-1.54,4.27s-.94-2.16-1.18-2.62c0,0-10.63.02-10.92.02l.1,2.45ZM243.4,18.64c-.34,1.87-1.7,3.75-3.84,4.32.91-2.4,2.09-5.42,1.73-7.42l2.95.07s-.02.89-.24,1.56c0,0,1.51,1.22,2.02,1.46l.02-4.99s-3.05,0-3.58-.1l-.22-2.47s9.29-.12,9.62-.12l-.17,2.26s-3.7.17-4.03.12l.07,1.61,2.81.05-.1,2.3-2.76.05.05,1.63c3.91,1.15,5.66,1.13,6.84.91l-1.01,3.62s-6.67-1.54-10.18-4.87Z"/>
    </g>
  </g>
</svg>