<?xml version="1.0" encoding="UTF-8"?>
<svg id="_レイヤー_2" data-name="レイヤー_2" xmlns="http://www.w3.org/2000/svg" viewBox="0 0 222.82 51.33">
  <defs>
    <style>
      .cls-1 {
        fill: #e60012;
      }

      .cls-2 {
        fill: #231815;
      }
    </style>
  </defs>
  <g id="_レイヤー_1-2" data-name="レイヤー_1">
    <g>
      <path class="cls-2" d="M24.49,9.72l-.05-2.18s-2.14.12-4.13.24l-.19-3.07s2.93.1,4.27.07l-.38-2.78h3.19l-.12,2.76,3.43-.31-.07,3.36s-1.9-.05-3.74.05c0,0-.14,1.06-.14,1.73,3.86-.12,5.78,2.14,6.05,4.34.22,1.66-.6,3.48-2.11,4.51.55-2.62.07-3.96-.89-4.92-.65-.58-1.7-1.18-3.05-1.06.02,2.47-.6,5.11-3.05,5.23-2.06.1-3.55-1.25-3.7-3.38-.14-2.04,1.25-4.34,4.68-4.58ZM22.95,15.27c.62-.05,1.03-1.58,1.03-2.71-.84-.05-1.97.36-2.04,1.46-.07.62.34,1.32,1.01,1.25ZM33.61,7.8s-.72-2.18-.89-2.5l2.35-.74s.55,1.46.82,2.54l-2.28.7Z"/>
      <path class="cls-2" d="M43.33,2.74l.65,2.5c-.79.14-2.35.67-2.35.67l-.77-2.5c.67-.05,2.47-.67,2.47-.67ZM44.72,13.25c.07,2.33-.79,4.99-.79,4.99l-2.93-2.21c2.5-1.13,3.72-2.78,3.72-2.78ZM41.34,8.18l2.28-.53.62,2.23s-.94.46-2.28.65l-.62-2.35ZM54.25,11.86s4.73-.02,5.3-.02v2.4s-4.85.31-5.18.38l.14,4.27h-3.07l.22-4.49s-3.48.17-4.68.05l.12-2.14s4.15-.12,4.73-.24v-1.37s-2.45,0-2.78-.12v-2.38s2.5,0,3-.05l-.1-1.2s-2.69.05-3.82,0l-.07-2.42s10.1-.41,10.44-.46l-.12,2.93s-3.5.07-4.01,0v1.13s3.07-.07,3.29-.12l-.05,2.38s-3.07-.07-3.36-.12v1.58ZM49.57,3.58s-.67-1.56-1.08-2.21l2.18-.82,1.06,2.04-2.16.98ZM58.72,2.83s-2.14.5-3.94.26c0,0,2.11-1.8,2.21-2.81l1.73,2.54Z"/>
      <path class="cls-2" d="M64.12,16.78c2.5-6.77,1.9-10.95,1.37-14.35l5.81-.07s.07,11.98.05,15.79c0,0-2.23-1.99-3.02-2.76l1.39-.02-.12-3.12s-2.04-.14-2.26-.14c-.02,2.78-2.06,4.34-3.22,4.68ZM67.67,4.34l.1,1.61c.5.29,1.44.19,1.44.19l.07-1.75-1.61-.05ZM69.18,8.04s-1.1.07-1.27,0l-.02,2.06s.48.19,1.22.1l.07-2.16ZM80.68,13.99s2.78,1.15,4.01,1.1l-1.39,3.19s-2.95-1.78-3.82-2.45c-.89.96-1.66,1.25-2.88,1.46,0,0,1.22-1.39,1.75-2.64l-1.66-.91.65-1.51c.79.48,1.27.62,1.61.79.24-.79.5-1.51.5-2.42-.74-.07-3.48-.07-3.67-.12l-.12,8.02-2.33-.02s.5-12.75.22-16.95c0,0,8.06-.07,8.74-.07,0,0,.1,4.3-.86,6.65,0,0-2.11-1.92-2.54-2.23l1.39.07.1-2.5c-2.47,0-4.01.05-4.54.05l-.14,5.5s5.83-.05,6.46-.19c-.07,1.49-.62,4.06-1.46,5.18Z"/>
      <path class="cls-2" d="M102.32,10.37c.02-2.23-1.37-3.53-3.02-3.7-1.1,3.55-3,6.77-5.47,8.81-1.66-.96-2.76-2.98-2.57-5.64.24-3.82,3.53-5.98,7.15-5.81,4.54.22,6.91,3.24,6.62,6.74-.29,3.22-2.5,5.16-6.02,5.52,2.59-2.14,3.29-3.86,3.31-5.93ZM96.92,6.58c-1.15-.05-2.95.86-3.31,2.78-.17,1.03.1,1.92.6,2.62,1.42-1.7,2.45-4.03,2.71-5.4Z"/>
      <path class="cls-2" d="M120.49,9.72l-.05-2.18s-2.14.12-4.13.24l-.19-3.07s2.93.1,4.27.07l-.38-2.78h3.19l-.12,2.76,3.43-.31-.07,3.36s-1.9-.05-3.74.05c0,0-.14,1.06-.14,1.73,3.86-.12,5.78,2.14,6.05,4.34.22,1.66-.6,3.48-2.11,4.51.55-2.62.07-3.96-.89-4.92-.65-.58-1.7-1.18-3.05-1.06.02,2.47-.6,5.11-3.05,5.23-2.06.1-3.55-1.25-3.7-3.38-.14-2.04,1.25-4.34,4.68-4.58ZM118.95,15.27c.62-.05,1.03-1.58,1.03-2.71-.84-.05-1.97.36-2.04,1.46-.07.62.34,1.32,1.01,1.25ZM129.61,7.8s-.72-2.18-.89-2.5l2.35-.74s.55,1.46.82,2.54l-2.28.7Z"/>
      <path class="cls-2" d="M139.02,18.34s-.36-6.55-.34-7.15h2.95s0,3.26-.02,5.14c0,0,10.56-.05,11.16-.34l-.07,2.78s-11.74.17-13.68-.43ZM141.06,1.92l5.33.02-.22-1.94,2.76.07-.22,2.04,4.8-.24-.05,2.45s-3.26-.07-4.83-.07l-.05,1.22s2.98.12,4.03.22c0,0,.19,5.11-.26,8.16,0,0-6.58.26-9.07-.22l-.19-7.85s2.9-.19,3.22-.19l-.05-1.2s-4.78.07-5.14.1l-.07-2.57ZM145.93,7.08v1.01c.96-.02,3.26,0,3.26,0l-.05-1.03-3.22.02ZM149.2,10.2l-.02-.98c-.14,0-3.19.14-3.19.14v.89c1.39,0,2.21.02,3.22-.05ZM149.39,11.57h-3.38v.91c.86,0,2.35.02,3.34-.02l.05-.89Z"/>
      <path class="cls-2" d="M169.69,3.5c-.67,5.45-.72,9.29,1.42,9.79,1.8.43,3.77-.43,4.85-2.06.14,3.38-2.45,6.19-6.41,5.38-3.5-.62-4.87-5.4-3.84-13.08l3.98-.02Z"/>
      <path class="cls-2" d="M186.68,8.93s-1.27,1.03-3.75,1.39c0,0,4.61-4.61,5.3-7.61l2.74,2.09s-1.13,1.9-2.5,3.26l.41,10.06h-2.38l.17-9.19ZM191.53,8.71l-.34-2.71s4.54-.55,4.92-.67l-.22-3.82,2.28-.1.07,3.79,3.58-.98.48,2.95-3.67.58c.34,2.4,2.81,6.96,4.32,7.75l.96-1.22s-.31,2.83-.7,4.92c-1.63-1.32-6.29-6.1-6.79-11.21,0,0-4.18.6-4.9.72ZM205.04,2.28l.07,2.59s-1.13.05-2.04.26l-.05-2.78,2.02-.07Z"/>
    </g>
    <g>
      <path class="cls-1" d="M.09,36.87c-.68-4.07,2.41-7.81,7.52-7.96,4.61-.11,8.6,3.13,7.92,7.81-.76,5.58-5.94,5.76-8.39,9.79,2.27-.04,3.92-.29,7.16-.61v5.29c-9.39-.04-7.09-.04-12.96-.11-1.15-7.81,7.6-10.58,8.71-14.07.76-2.27-.79-4.25-2.88-3.96-1.84.22-2.7,1.55-2.48,4.21l-4.61-.4Z"/>
      <path class="cls-1" d="M28.71,39c.43-6.84,5-10.58,10.55-9.94,4.68.43,8.13,4.18,7.96,10.87-.25,9.68-5.87,11.66-9.72,11.37-4.39-.32-9.32-3.67-8.78-12.31ZM33.93,40.62c.11,2.7,1.44,4.64,3.81,4.82,2.7.18,4-2.02,4-5.65,0-3.02-1.55-4.89-3.46-5.04-2.7-.25-4.61,1.58-4.35,5.87Z"/>
      <path class="cls-1" d="M60.19,47.85l-2.47-2.06c2.02-1.73,10.85-10.87,12.75-12.67l1.8,2.11s-11.64,12.1-12.07,12.62ZM58.22,35.37c.12-1.3,1.1-2.54,3.05-2.47,1.2.02,2.93.94,2.74,3.17-.12,1.46-1.2,2.69-3.12,2.54-1.03-.1-2.86-.82-2.66-3.24ZM60.14,35.78c.07.74.94,1.06,1.3,1.01.53-.05.91-.34.96-1.01.05-.6-.34-1.18-1.15-1.18-.74,0-1.2.5-1.1,1.18ZM72.43,45.19c-.12,2.23-1.82,2.81-3.29,2.71-1.61-.1-2.71-1.39-2.78-2.86-.07-2.09,1.8-3.24,3.29-3.07,1.03.12,2.9,1.03,2.78,3.22ZM69.58,43.65c-.82-.05-1.27.46-1.34,1.1-.12.96.46,1.42,1.13,1.49.48.05,1.08-.12,1.15-1.2.07-.98-.43-1.3-.94-1.39Z"/>
      <path class="cls-2" d="M87.36,36.16l-2.04.02.12-2.88,3.79-.24-.19-2.04,2.64.14-.34,2.06s3.17.05,4.44.17c0,0-1.2,3.19-1.32,3.62,0,0-.26-1.51-.82-2.21l-6.38.02.1,1.32ZM85.58,42.26s2.88-.19,3.65-.26l-.05-.65s-1.7-.22-2.16-.14l.07-1.34s1.87-.12,2.09-.12v-.84s-1.39.07-2.11.05l.02-1.58,2.38-.1-.07-1.01,2.06.02-.12,1.1,2.4.12-.12,1.37h-2.38l.05.72,2.16.1-.05,1.15s-1.78-.12-2.11-.07l-.05.67,3.55.26-.02,1.73s-6.14.02-9.17.24l-.02-1.42ZM87.79,48.52s-.22-3.58-.1-4.08c0,0,3.67-.17,5.26-.1,0,0,.17,4.06.12,4.61,0,0-3.67.43-5.28-.43ZM89.62,47.32c1.15.07,1.82-.05,1.82-.05l-.12-1.39h-1.63l-.07,1.44ZM99.07,39.76l.98-.17s-1.3,1.68-3.05,3.22c0,0-.1-6.38-.05-7.32h2.09l.02,4.27ZM101.57,46.03c.1-5.81-.07-10.92-.05-13.66l2.42.02s-.29,6.41-.26,10.51c.02,3.55.05,5.23-.43,6.91,0,0-2.04-2.11-4.01-3.86l2.33.07Z"/>
      <path class="cls-2" d="M110.62,43.22s.34-4.61.22-5.38c0,0,2.38.05,3.98-.07.1-.72.22-1.37.19-2.23,0,0-2.33.07-3.94.02l.1-2.11,5.71-.14c.12.89.26,4.7-.07,5.86l-4.06.22.31,2.26,4.92.05s-.31,5.71-.65,7.22c0,0-2.35-.5-3.98-2.33,0,0,.79.19,1.8.07.38-1.92.38-1.87.5-2.9-1.18.05-3.53-.1-5.04-.53ZM126.07,32.85c-.55,2.71-.05,16.01-.05,16.01l-3.46.17c.12-1.13.17-16.23.17-16.23l3.34.05Z"/>
      <path class="cls-2" d="M134.4,40.1l-.14-3.14s2.28.1,3.82.07l-.19-3.34,3.1.07-.12,3.31s1.15.1,3.79.05l-.5-4.03,3.65-.02s-.02,3.6-.02,4.06l3.19-.17-.12,3.05s-1.44-.05-3.14-.07c.26,4.92-1.99,7.87-6.91,8.98,3.1-3.02,3.96-5.5,3.74-8.93,0,0-2.74-.02-3.98.02l.26,3.38-2.83.02-.02-3.43s-2.9.07-3.55.12Z"/>
      <path class="cls-2" d="M159.77,38.71c3.29.05,12.41.14,14.21-.07l-.24,3.24s-7.37-.02-13.56.07l-.41-3.24Z"/>
      <path class="cls-2" d="M197.71,46.48c-4.58,1.32-10.54,1.44-13.13-.65,0,0,.07-10.06-.02-11.54l3.24-.05s-.07,2.3-.1,4.68c1.8-.82,4.61-2.98,6-4.8l2.11,3.62s-3.12,2.02-8.11,1.7c-.02,1.39-.07,3.07-.07,4.75,1.9.65,5.95-.14,7.13-.74l-.02-2.23s1.97,3.74,2.98,5.26ZM197.76,35.42s-.65.17-1.06.38l-.46-1.9,1.51-.26v1.78ZM198.43,33.57l1.51-.26-.14,1.78s-.62.14-1.06.38l-.31-1.9Z"/>
      <path class="cls-2" d="M215.95,36.35q-6.26.5-7.51.5s0-2.18-.14-3.17c0,0,11.21-.22,11.86-.34,0,0-.38,4.51-3.07,7.97,0,0,3.53,3.91,5.74,3.79l-2.16,3.29s-2.9-2.26-5.28-4.8c-.79,1.32-4.22,3.22-7.99,3.7,5.02-3.82,7.94-8.04,8.57-10.94Z"/>
    </g>
  </g>
</svg>