<?xml version="1.0" encoding="UTF-8"?>
<svg id="_レイヤー_2" data-name="レイヤー_2" xmlns="http://www.w3.org/2000/svg" viewBox="0 0 53.06 58.37">
  <defs>
    <style>
      .cls-1 {
        fill: #f6c37c;
      }

      .cls-2 {
        stroke: #50607a;
      }

      .cls-2, .cls-3 {
        stroke-width: 1.26px;
      }

      .cls-2, .cls-3, .cls-4 {
        fill: none;
        stroke-linecap: round;
        stroke-linejoin: round;
      }

      .cls-3, .cls-4 {
        stroke: #505f7a;
      }

      .cls-5 {
        fill: #50627c;
      }

      .cls-6 {
        fill: #7cccf0;
      }

      .cls-4 {
        stroke-width: 1px;
      }

      .cls-7 {
        fill: #505f7a;
      }
    </style>
  </defs>
  <g id="_レイヤー_1-2" data-name="レイヤー_1">
    <g id="_生成オブジェクト" data-name="生成オブジェクト">
      <g>
        <path class="cls-6" d="M31.54,13.71s-.09,0-.14,0l-.09.52c-1.99,4.26-6.98,4.28-9.41.02-.11-.18-.21-.36-.23-.58.91-.07,8.66-.03,9.74.04.05,0,.09,0,.14,0Z"/>
        <g>
          <path class="cls-1" d="M21.65,13.66c.03.22.13.39.23.58,2.43,4.27,7.42,4.25,9.41-.02l.09-.52s.09,0,.14,0c8.1.61,9.5,3.8,15,9.24.08.52-4.41,4.92-4.92,4.97-1.59-.5-2.61-2.3-3.75-3.36-.24,2.8.25,18.9-.02,19.85-.08.29-.08.46-.38.65-.92.58-19.23-.11-21.82-.08-.59-2.45.25-18.83-.5-19.68h0c-.8.42-2.88,2.74-3.55,2.6-.95-.76-5.22-4.27-4.77-5.22.29-.6,5.3-4.89,6.65-6.58,2.41-1.38,5.41-2.24,8.17-2.46Z"/>
          <path class="cls-5" d="M26.36,26.21c1.06-.26,1.36,1.28.5,1.51-.99.26-1.27-1.32-.5-1.51Z"/>
          <path class="cls-5" d="M26.48,28.22c1.33-.15.99,1.85-.13,1.51-.45-.14-.74-1.41.13-1.51Z"/>
          <path class="cls-5" d="M26.48,23.83c1-.15,1.21,1.38.25,1.51-.94.13-1.09-1.38-.25-1.51Z"/>
          <path class="cls-5" d="M26.23,21.32c1.18-.49,1.46,1.25.5,1.38-.86.12-.99-1.18-.5-1.38Z"/>
        </g>
      </g>
      <g>
        <line class="cls-3" x1="26.79" y1="3.15" x2="24.17" y2=".63"/>
        <path class="cls-3" d="M26.79,3.15C-5.39,4.53-9.08,48.15,22.4,54.75"/>
        <line class="cls-3" x1="26.79" y1="3.15" x2="24.45" y2="5.74"/>
        <path class="cls-2" d="M21.89,14.23c2.43,4.27,7.42,4.25,9.41-.02"/>
        <path class="cls-2" d="M15.15,25.32c-.8.42-2.88,2.74-3.55,2.6-.95-.76-5.22-4.27-4.77-5.22.29-.6,5.3-4.89,6.65-6.58,2.41-1.38,5.41-2.24,8.17-2.46.91-.07,8.66-.03,9.74.04.05,0,.09,0,.14,0,8.1.61,9.5,3.8,15,9.24.08.52-4.41,4.92-4.92,4.97-1.59-.5-2.61-2.3-3.75-3.36-.24,2.8.25,18.9-.02,19.85-.08.29-.08.46-.38.65-.92.58-19.23-.11-21.82-.08-.59-2.45.25-18.83-.5-19.68h0Z"/>
        <line class="cls-2" x1="26.67" y1="18.18" x2="26.67" y2="18.68"/>
        <path class="cls-4" d="M26.25,54.91c32.17-.49,36.17-44.92,4.57-51.37"/>
        <path class="cls-7" d="M25.9,54.55l2.55-2.46c.28-.2.55-.69.91-.56.89.33.23.88-.21,1.28,0,0-2.55,2.46-2.55,2.46-.46.46-1.17-.28-.7-.72h0Z"/>
        <line class="cls-4" x1="26.25" y1="54.91" x2="29.06" y2="57.87"/>
      </g>
    </g>
  </g>
</svg>