<?xml version="1.0" encoding="UTF-8"?>
<svg id="_レイヤー_2" data-name="レイヤー_2" xmlns="http://www.w3.org/2000/svg" viewBox="0 0 68.58 32.46">
  <defs>
    <style>
      .cls-1 {
        fill: #ea5514;
      }
    </style>
  </defs>
  <g id="_レイヤー_1-2" data-name="レイヤー_1">
    <g>
      <path class="cls-1" d="M0,6.12h10.37v2.23H0v-2.23ZM.9,23.36h8.39v8.03H.9v-8.03ZM2.99,17.35h4.32v2.16H2.99v-2.16ZM7.49,13.86H3.06v-2.27h4.43v2.27ZM3.17,29.12h3.96v-3.49h-3.96v3.49ZM6.41,3.78h-2.27V.18h2.27v3.6ZM33.12,24.98v2.27h-2.77v5.11c-1.55.18-2.34.11-4.07-.07l-.07-2.16c.54.07,1.26.07,1.98.07v-2.95h-10.19v5.04h-2.23v-5.04h-2.88v-2.27h2.88v-7.88h6.19v-2.52h2.27v2.52h6.12v7.88h2.77ZM32.22,13.21H13.68v-2.23h4.86v-2.16h-2.59v-2.27h2.59v-1.87h-4.14v-2.16h4.14V0h2.27v2.52h4.39V0h2.27v2.52h4.21v2.16h-4.21v1.87h2.7v2.27h-2.7v2.16h4.75v2.23ZM21.96,19.33h-3.96v1.91h3.96v-1.91ZM21.96,23.11h-3.96v1.87h3.96v-1.87ZM20.81,6.55h4.39v-1.87h-4.39v1.87ZM25.2,8.82h-4.39v2.16h4.39v-2.16ZM28.18,19.33h-3.96v1.91h3.96v-1.91ZM28.18,23.11h-3.96v1.87h3.96v-1.87Z"/>
      <path class="cls-1" d="M45.29,2.59c-2.34,1.98-5.33,3.53-8.75,4.79l-1.08-1.98c3.24-1.26,6.23-2.81,8.46-4.5l1.37,1.69ZM47.45,30.56h-10.55V9.9h10.55v8.17h-8.28v4.25h8.28v8.24ZM45.18,15.91v-3.78h-6.01v3.78h6.01ZM45.18,28.33v-3.78h-6.01v3.78h6.01ZM68.58,4.57h-7.2v6.41h5.94v13.46c-.9.18-3.06.11-4.39-.07l-.18-2.23c1.15.18,1.69.18,2.34.18v-9.11h-3.71v19.15h-2.23V13.21h-3.78v10.62h-2.16v-12.85h5.94v-6.41h-7.13v-2.16h16.56v2.16Z"/>
    </g>
  </g>
</svg>