<?xml version="1.0" encoding="UTF-8"?>
<svg id="_レイヤー_2" data-name="レイヤー_2" xmlns="http://www.w3.org/2000/svg" viewBox="0 0 128.08 27.25">
  <defs>
    <style>
      .cls-1 {
        fill: #ea5514;
      }
    </style>
  </defs>
  <g id="_レイヤー_1-2" data-name="レイヤー_1">
    <g>
      <path class="cls-1" d="M0,26.1V0h2.27v23.58c4.14-.72,10.62-2.99,14.65-6.12l.72,2.09c-4.57,3.67-12.49,6.08-17.64,6.55Z"/>
      <path class="cls-1" d="M36.29,13.25l-1.73.97c-.54-.9-1.26-1.98-2.41-3.49l1.62-1.01c.79,1.01,1.69,2.09,2.52,3.53ZM40.5,11.7c-.54-.9-1.44-2.23-2.52-3.49l1.73-1.01c.9,1.08,1.8,2.34,2.52,3.53l-1.73.97ZM52.92,8.75c-1.62,8.1-5.76,14.29-12.49,18.5l-1.44-1.51c6.55-4.14,10.51-9.79,12.06-17.35l1.87.36Z"/>
      <path class="cls-1" d="M68.69,25.99l-1.73-1.62c10.08-6.26,14.58-14.18,16.2-21.31h-13.57V.83h16.27c-1.15,9.72-7.63,19.69-17.17,25.16ZM91.19,26.17c-2.45-.61-5.69-2.23-7.74-4.03l1.33-1.73c2.16,1.73,4.07,2.63,7.38,3.71l-.97,2.05Z"/>
      <path class="cls-1" d="M109.08,7.92c-2.16-1.69-3.67-2.7-5.11-3.6l1.51-1.69c1.73.97,3.17,1.98,5.04,3.49l-1.44,1.8ZM107.82,27.07l-1.08-1.98c7.67-2.7,15.41-8.78,19.44-18.43l1.91,1.19c-3.96,9.43-10.73,15.91-20.27,19.22Z"/>
    </g>
  </g>
</svg>