<?xml version="1.0" encoding="UTF-8"?>
<svg id="_レイヤー_2" data-name="レイヤー_2" xmlns="http://www.w3.org/2000/svg" viewBox="0 0 67.93 55.36">
  <defs>
    <style>
      .cls-1, .cls-2, .cls-3, .cls-4, .cls-5, .cls-6, .cls-7, .cls-8, .cls-9 {
        stroke-linecap: round;
        stroke-linejoin: round;
      }

      .cls-1, .cls-2, .cls-3, .cls-7, .cls-8, .cls-9 {
        fill: none;
      }

      .cls-1, .cls-2, .cls-6, .cls-7 {
        stroke: #23244a;
      }

      .cls-1, .cls-3, .cls-4, .cls-5, .cls-6 {
        stroke-width: 1.26px;
      }

      .cls-10, .cls-4, .cls-6 {
        fill: #fdfeff;
      }

      .cls-11 {
        fill: #3e55a4;
      }

      .cls-2 {
        stroke-width: 1.38px;
      }

      .cls-3 {
        stroke: #242753;
      }

      .cls-4, .cls-5 {
        stroke: #23244b;
      }

      .cls-12 {
        fill: #3d57a6;
      }

      .cls-5 {
        fill: #f8eaeb;
      }

      .cls-13 {
        fill: #80c7dd;
      }

      .cls-14 {
        fill: #e2746a;
      }

      .cls-7 {
        stroke-width: 1.76px;
      }

      .cls-8 {
        stroke: #3c56a5;
        stroke-width: .63px;
      }

      .cls-9 {
        stroke: #3b54a4;
        stroke-width: .38px;
      }
    </style>
  </defs>
  <g id="_レイヤー_1-2" data-name="レイヤー_1">
    <g id="_生成オブジェクト" data-name="生成オブジェクト">
      <g>
        <path class="cls-13" d="M12.4,26.76c-2.27,0-4.55-.02-6.81.03-.42-1.2.83-.66,1-1.07.83-1.88-2.81-12.47,5.78-13.12v13.56l.03.6Z"/>
        <path class="cls-10" d="M13.94,26.75c.61,0,1.21,0,1.82,0,.52,0,1.04,0,1.56.01.9,0,1.81.01,2.71.02l.55-.05s-.02-.09-.02-.13c0,.04.02.09.02.13-.06,2.27-.63,2.28-2.68,2.41-1.23.08-11.24.16-11.81,0-1.14-.33-1.24-1.32-1.38-2.33l.5-.03c.13,0,.25,0,.38,0,2.27-.05,4.54-.02,6.81-.03.52,0,1.03,0,1.55,0Z"/>
        <path class="cls-14" d="M15.76,26.76c-.61,0-1.21,0-1.82,0,.41-1.74-.35-13.64.06-14.22.11-.16,1.36-.02,1.64-.05.04,4.56.08,9.12.12,13.68v.6Z"/>
        <path class="cls-14" d="M64.81,19.25c.44-.11,1.69.08,2.35,0,.15.6.06,6.51-.13,6.91-.58,1.25-1.55,1.08-2.66,1.06l-.13-7.78c.31-.02.54-.18.57-.19Z"/>
        <path class="cls-14" d="M51.12,4.3h2.65c.23,1.87-.16,3.89-.09,5.78l.02.63c-.58-.04-1.3-.21-2.62-.26l.05-6.16Z"/>
        <g>
          <path class="cls-13" d="M20.55,26.61s.02.09.02.13l-.55.05c-.9,0-1.81-.01-2.71-.02v-14.43c13.57,0,27.14-.31,40.71-.13.78.01,1.86.75,1.95-.55,1.46.9,2.58,2.09,2.89,3.82.32,1.74-.15,27.21.08,32.16-.75,4.36-3.26,3.93-5.48,4.02-15.94.67-36.63-.39-53.14.08-.56-.16-1.13-.29-1.63-.63.46-.68-.11-1.5-.13-1.65-.27-2.91-.75-8.86,2.83-9.74,2.06-.5,31.95.12,37.56-.13l.19-18.4c-1.46-.3-1.66.46-1.76.47-2,.26-16.63-.34-20.7-.06l-.25.26c-.17.46.13,3.88.12,4.74Z"/>
          <g>
            <g>
              <path class="cls-14" d="M55.78,28.17c2.65,3.6-1.72,7.96-5.23,5.8.06-1.56-.81-2.97.5-4.61,1.31-1.63,3.23-.88,4.62-1.32.03.04.07.08.1.13Z"/>
              <path class="cls-10" d="M55.78,28.17s-.07-.08-.1-.13c-1.4.44-3.32-.32-4.62,1.32-1.31,1.64-.44,3.05-.5,4.61-3.68-2.26-1.89-7.3,1.76-7.56,1.14-.08,2.65.73,3.37,1.63.03.04.07.08.1.13Z"/>
            </g>
            <g>
              <path class="cls-14" d="M55.78,16.24c2.98,3.82-1.41,8.17-5.23,5.8.05-1.62-.76-3.03.5-4.61,1.29-1.62,3.18-.86,4.62-1.32.03.04.07.08.1.13Z"/>
              <path class="cls-10" d="M55.78,16.24s-.07-.08-.1-.13c-1.44.46-3.33-.3-4.62,1.32-1.27,1.58-.45,2.99-.5,4.61-3.68-2.29-1.87-7.19,1.63-7.56,1.14-.12,2.76.75,3.49,1.63.03.04.07.08.1.13Z"/>
            </g>
            <path class="cls-11" d="M41.13,17.22c.58-.28.93-.7.83-1.36,2.93-.02-.83,4.01-.83,1.36Z"/>
            <path class="cls-6" d="M31.59,14.6c1.32-.36,2.73,2.04.75,2.69-1.8.59-2.69-2.16-.75-2.69Z"/>
            <path class="cls-5" d="M41.96,15.86c.1.66-.25,1.08-.83,1.36-1.76.84-2.9-2.06-.88-2.61.47-.13,1.57.31,1.71,1.26Z"/>
            <path class="cls-4" d="M22.28,14.69s.1-.03.15-.03c1.73-.31,2.26,2.37.48,2.69-1.7.3-2.23-2.2-.62-2.66Z"/>
          </g>
        </g>
      </g>
      <g>
        <path class="cls-2" d="M51.61,2.4c-3.08,1.1-1.53,3.63-1.8,7.55"/>
        <path class="cls-2" d="M51.51.69c.39,2.56,1.94,1.03,2.26,3.61.23,1.87-.16,3.89-.09,5.78"/>
        <path class="cls-2" d="M57.46,51.66c2.22-.09,4.72.34,5.48-4.02-.23-4.95.24-30.41-.08-32.16-.31-1.73-1.43-2.92-2.89-3.82-1.89-1.16-4.16-.81-6.28-.95-.58-.04-1.3-.21-2.62-.26-11.67-.39-27.16.89-39.45.25-3.99.43-6.42,2.44-6.87,6.53-.05.49-.11,9.11-.04,9.58.14,1.01.24,2,1.38,2.33.57.16,10.58.08,11.81,0,2.06-.13,2.63-.14,2.68-2.41,0-.04-.02-.09-.02-.13.01-.86-.29-4.28-.12-4.74l.25-.26c4.07-.28,18.7.32,20.7.06l-.11,16.12-1.78.3-34.42-.1c-2.56.09-4.06,1.76-4.37,4.25-.04.35,0,5.49.05,5.78.26,1.4.72,2.28,1.93,3.09.5.33,1.07.46,1.63.63,16.5-.47,37.19.6,53.14-.08Z"/>
        <line class="cls-2" x1="21.79" y1="10.21" x2="21.79" y2="5.18"/>
        <path class="cls-2" d="M63.37,27.14c.35.13.65.06,1,.07,1.11.03,2.08.2,2.66-1.06.18-.4.28-6.31.13-6.91-.55-2.21-1.94-1.78-3.79-1.75"/>
        <path class="cls-2" d="M15.63,11.34c0,.38,0,.76.01,1.14.04,4.56.08,9.12.12,13.68"/>
        <path class="cls-2" d="M5.21,26.79c.13,0,.25,0,.38,0,2.27-.05,4.54-.02,6.81-.03.52,0,1.03,0,1.55,0,.61,0,1.21,0,1.82,0,.52,0,1.04,0,1.56.01.9,0,1.81.01,2.71.02"/>
        <polyline class="cls-2" points="12.37 11.34 12.37 12.6 12.37 26.16"/>
        <path class="cls-2" d="M12,29.68c-.24,1.92.03,2,1.37,3.27"/>
        <path class="cls-2" d="M15.15,29.68c-.2,2.34.53,2.79-1.77,3.27"/>
        <path class="cls-2" d="M51.34,52.29l-.03,2.29c4.63-.16,5.07,1.07,4.63-2.42"/>
        <line class="cls-7" x1="13.37" y1="32.94" x2="13.37" y2="35.33"/>
        <path class="cls-2" d="M7.8,52.16c0,3.43.37,2.26,4.79,2.39l.15-2.27"/>
        <path class="cls-12" d="M57.59,31.57c-.09,2.74-3.19,4.54-5.64,3.73.62-.04,1.25-.16,1.84-.35,1.7-.2,3.23-1.69,3.3-3.4.14-.61.21-1.24.21-1.87.19.42.31,1.29.3,1.89h0Z"/>
        <line class="cls-9" x1="24.8" y1="17.05" x2="24.1" y2="17.85"/>
        <path class="cls-1" d="M52.31,26.41c1.14-.08,2.65.73,3.37,1.63.03.04.07.08.1.13,2.65,3.6-1.72,7.96-5.23,5.8-3.68-2.26-1.89-7.3,1.76-7.56Z"/>
        <line class="cls-8" x1="34" y1="17.14" x2="33.73" y2="17.5"/>
        <path class="cls-3" d="M52.19,14.48c1.14-.12,2.76.75,3.49,1.63.03.04.07.08.1.13,2.98,3.82-1.41,8.17-5.23,5.8-3.68-2.29-1.87-7.19,1.63-7.56Z"/>
      </g>
    </g>
  </g>
</svg>