<?xml version="1.0" encoding="UTF-8"?>
<svg id="_レイヤー_2" data-name="レイヤー_2" xmlns="http://www.w3.org/2000/svg" viewBox="0 0 166.5 33.44">
  <defs>
    <style>
      .cls-1 {
        fill: #ea5514;
      }
    </style>
  </defs>
  <g id="_レイヤー_1-2" data-name="レイヤー_1">
    <g>
      <path class="cls-1" d="M5.11,14.94l-1.15,2.05c-1.19-.61-2.45-1.33-3.96-1.87l1.08-2.09c1.51.54,2.7,1.19,4.03,1.91ZM7.45,26.06c-1.8,1.44-3.85,2.45-6.66,3.17l-.72-2.27c2.52-.72,4.61-1.62,6.59-3.02l.79,2.12ZM5.83,7.81l-1.15,2.09c-1.19-.72-2.45-1.37-3.96-1.91l1.08-2.05c1.51.54,2.7,1.15,4.03,1.87ZM30.31,22.32h-7.99v11.12h-2.27v-11.12h-7.99v-2.27h7.99v-4.5h-3.85v-2.23h3.85v-4.97h-6.84v-2.23h16.2v2.23h-7.09v4.97h3.67v2.23h-3.67v4.5h7.99v2.27ZM15.55,4.39c-.79-.97-1.69-2.05-2.7-2.95l1.91-1.44c1.26,1.26,2.16,2.23,2.77,3.06l-1.98,1.33ZM26.64,4.5l-1.8-1.55c1.08-.9,1.87-1.8,2.77-2.88l1.91,1.37c-.9,1.15-1.8,2.16-2.88,3.06Z"/>
      <path class="cls-1" d="M47.05,31.75c-1.44.07-3.24.07-4.14,0l-.18-2.45c.54.11,1.26.18,2.09.18v-10.69h-4.5v-2.16h4.5v-4.14h-4.5v-2.16h4.5v-4.86h-6.23c.11,8.21.29,17.57-1.69,25.38l-2.27-.11c1.55-6.19,1.98-14.83,1.8-27.43h10.62v28.44ZM64.8,13.68c-.72,0-3.6.07-5.4,0l-.29-2.27c1.19.11,2.27.11,3.42.11v-6.48h-7.38v27.79h-2.23V2.77h11.88v10.91ZM66.49,32.83c-2.77-1.08-4.57-2.09-6.55-3.96-.72.72-1.55,1.33-2.34,1.98l-1.91-1.55c.9-.61,1.91-1.44,2.63-2.16-.54-.72-1.19-1.51-1.73-2.23l1.91-1.26c.36.54.79,1.08,1.26,1.69,1.15-1.58,1.98-3.49,2.41-5.47h-5.22v-2.23h7.85c-.29,3.67-1.44,6.8-3.35,9.43,1.91,1.8,3.24,2.41,6.3,3.78l-1.26,1.98Z"/>
      <path class="cls-1" d="M98.1,23.76c0,3.2-1.55,6.08-5.33,8.96l-1.87-1.33c3.42-2.34,4.86-4.86,4.86-7.74,0-4.32-3.89-8.35-10.44-7.27v14.65c-5.04.36-9.72-2.34-9.72-7.92,0-4.75,3.31-7.56,7.45-8.53v-5.76h-4.39v-2.16h4.39V2.23h2.27v4.43h5.76v2.16h-5.76v5.47c7.27-.97,12.78,2.81,12.78,9.47ZM83.05,16.81c-3.06.9-5.4,3.06-5.4,6.23,0,4.1,3.06,5.36,5.4,5.72v-11.95ZM101.34,9.43h-2.27c.36-1.98.18-3.67.11-4.39h2.23c.18,1.08.18,3.31-.07,4.39Z"/>
      <path class="cls-1" d="M136.33,32.72h-26.28v-12.31h2.27v10.15h24.01v2.16ZM135.72,6.84h-10.01v2.16h-2.23v-2.16h-10.73v-2.27h10.73V.43h2.23v4.14h10.01v2.27ZM131.94,27.32h-14.22V11.05h14.22v16.27ZM129.67,25.09v-2.7h-7.56v-2.16h7.56v-2.23h-7.56v-2.27h7.56v-2.41h-9.72v11.77h9.72Z"/>
      <path class="cls-1" d="M165.85,30.13c-9.36-.36-11.23-3.53-11.16-11.7V4.14h2.27v15.37c0,6.19,1.44,8.1,9.54,8.46l-.65,2.16Z"/>
    </g>
  </g>
</svg>