<?xml version="1.0" encoding="UTF-8"?>
<svg id="_レイヤー_2" data-name="レイヤー_2" xmlns="http://www.w3.org/2000/svg" viewBox="0 0 594 32.95">
  <defs>
    <style>
      .cls-1 {
        fill: #ea5514;
      }
    </style>
  </defs>
  <g id="_レイヤー_1-2" data-name="レイヤー_1">
    <g>
      <path class="cls-1" d="M3.57,14.54L.4,11.88c-.47-.4-.54-1.12-.14-1.58.4-.47,1.15-.54,1.62-.14l3.17,2.63c.47.4.5,1.15.11,1.62-.4.47-1.12.54-1.58.14ZM2.96,31.64c-.25.61-.97.86-1.55.61-.61-.25-.86-.97-.61-1.55l4.5-10.37c.25-.61.94-.86,1.55-.61.61.25.86.94.61,1.55l-4.5,10.37ZM5.73,5.62l-3.24-2.81c-.47-.43-.54-1.15-.11-1.62.43-.47,1.15-.54,1.62-.11l3.24,2.81c.47.43.54,1.15.11,1.62-.43.47-1.15.54-1.62.11ZM30.71,24.69h-8.6v6.8c0,.65-.58,1.22-1.22,1.22s-1.22-.58-1.22-1.22v-6.8h-8.78c-.65,0-1.19-.54-1.19-1.19s.54-1.19,1.19-1.19h8.82v-5.51h-7.02c-.61,0-1.15-.5-1.15-1.12s.54-1.15,1.15-1.15h7.02v-4.97h-8.53c-.65,0-1.15-.5-1.15-1.15s.5-1.15,1.15-1.15h10.73l3.49-6.16c.32-.58,1.12-.79,1.69-.47.58.32.76,1.04.43,1.62l-2.88,5h5.72c.65,0,1.12.5,1.12,1.15s-.47,1.15-1.12,1.15h-8.32v4.97h6.88c.61,0,1.15.54,1.15,1.15s-.54,1.12-1.15,1.12h-6.88v5.51h8.67c.65,0,1.19.54,1.19,1.19s-.54,1.19-1.19,1.19ZM17.53,3.67c.32.54.18,1.22-.36,1.55-.54.32-1.19.22-1.55-.32l-1.51-2.34c-.32-.54-.18-1.26.36-1.58s1.26-.18,1.58.36l1.48,2.34Z"/>
      <path class="cls-1" d="M66.39,31.78c-.43.4-1.01.65-1.62.65-.58,0-1.15-.25-1.62-.65-1.37-1.08-2.66-2.81-3.74-5.26-1.44,1.84-3.17,3.78-5.26,5.69-.47.43-1.15.4-1.58-.07-.43-.47-.4-1.19.07-1.62,2.38-2.2,4.32-4.43,5.83-6.48-1.01-3.1-1.69-6.98-1.84-11.77h-19.58c-.61,0-1.12-.5-1.12-1.12s.5-1.12,1.12-1.12h8.13v-3.85h-5.79c-.61,0-1.12-.54-1.12-1.15s.5-1.08,1.12-1.08h5.76V1.66c0-.65.58-1.19,1.22-1.19s1.19.54,1.19,1.19v2.3h5.22c.61,0,1.12.47,1.12,1.08s-.5,1.15-1.12,1.15h-5.26v3.85h9.04V1.48c0-.61.58-1.12,1.19-1.12s1.12.5,1.12,1.12v8.57h7.78c.61,0,1.12.5,1.12,1.12s-.5,1.12-1.12,1.12h-7.74c.11,3.71.58,6.8,1.22,9.36,1.22-1.91,2.41-3.92,3.2-6.05.22-.58.86-.9,1.44-.68s.9.86.68,1.44c-.94,2.59-2.77,5.65-4.46,8.06,1.08,2.88,2.45,4.75,3.56,5.62.54.43,1.04-1.08,1.15-1.37.18-.61.79-.97,1.4-.79.61.18.94.83.76,1.44-.25.9-.79,1.87-1.48,2.48ZM53.64,18.54h-6.26c.4,1.19.83,2.34,1.4,3.46l3.06-2.2c.47-.36,1.15-.22,1.51.25.36.47.22,1.15-.25,1.51l-3.28,2.34c.76,1.22,1.73,2.45,2.84,3.49.43.4.43,1.12.04,1.55s-1.08.43-1.51.04c-3.2-3.02-4.9-6.98-5.65-9.11-.47.5-1.04,1.19-1.8,1.91v6.3l3.02-.86c.58-.18,1.19.18,1.33.76.14.58-.18,1.19-.76,1.33l-7.74,2.16c-.58.14-1.19-.14-1.33-.72-.14-.58.18-1.15.76-1.33l2.52-.72v-4.86c-1.04.94-2.2,1.87-3.38,2.77-.47.36-1.15.25-1.51-.25-.36-.47-.25-1.15.22-1.51,2.95-2.2,5.58-4.82,6.95-6.3h-5.36c-.61,0-1.08-.5-1.08-1.12s.47-1.08,1.08-1.08h6.59v-2.16c0-.61.54-1.15,1.15-1.15s1.19.54,1.19,1.15v2.16h6.26c.61,0,1.08.47,1.08,1.08s-.47,1.12-1.08,1.12ZM65.81,6.08c.36.47.25,1.19-.22,1.55-.47.36-1.19.29-1.55-.22l-2.23-2.95c-.36-.47-.25-1.19.22-1.55.47-.36,1.19-.25,1.55.22l2.23,2.95Z"/>
      <path class="cls-1" d="M99.07,16.09c-2.41.97-4.82,1.98-6.95,3.1.36,1.48.58,3.24.61,5.29,0,.72-.54,1.33-1.26,1.33s-1.3-.58-1.3-1.26c-.04-1.58-.18-2.95-.4-4.07-1.73,1.04-3.17,2.09-4.07,3.06-.58.61-1.19,1.48-1.19,2.38s.5,1.44,1.26,1.84c.94.54,2.63.86,5.11.86,1.66,0,3.71-.18,6.05-.54.72-.11,1.33.36,1.44,1.08.11.68-.4,1.37-1.08,1.48-2.45.36-4.57.5-6.41.5-2.05,0-3.82-.18-5.18-.65-2.16-.72-3.74-2.2-3.74-4.57,0-1.62.76-2.92,1.84-4.07,1.44-1.58,3.31-2.77,5.15-3.85-.65-1.3-1.55-2.02-3.02-2.02s-3.78.4-4.9,1.58c-.94,1.15-1.94,2.27-3.02,3.35-.25.25-.58.36-.9.36s-.68-.14-.94-.4c-.5-.5-.47-1.3.04-1.8,2.92-2.84,5.33-6.3,7.13-9.68-1.73-.04-3.42-.14-5-.29-.72-.07-1.22-.68-1.15-1.4s.68-1.22,1.4-1.15c1.98.18,3.92.29,5.94.29.76-1.69,1.26-3.31,1.66-4.79.18-.68.97-1.12,1.66-.94.68.18,1.12.94.94,1.62-.32,1.26-.79,2.63-1.37,4.03,2.12-.14,4-.4,5.18-.79.68-.22,1.4.11,1.62.79.22.68-.14,1.44-.83,1.66-1.87.61-4.43.86-7.16.94-.68,1.44-1.51,2.88-2.41,4.32.72-.18,1.44-.29,2.12-.29,2.41,0,4.18,1.26,5.29,3.38,2.16-1.12,4.54-2.16,6.88-3.09.65-.25,1.44.07,1.69.72.25.65-.07,1.44-.72,1.69Z"/>
      <path class="cls-1" d="M138.82,19.44h-6.62c1.91,2.16,4.17,4.1,6.66,5.62.54.32.68,1.01.36,1.55-.32.54-1.01.68-1.51.36-3.24-1.98-6.48-5-8.42-7.52h-11.41c-2.05,2.63-6.01,5.98-8.42,7.52-.5.32-1.22.18-1.55-.36-.32-.5-.14-1.22.36-1.55,2.52-1.58,5.04-3.82,6.7-5.62h-5.94c-.61,0-1.08-.47-1.08-1.08s.47-1.12,1.08-1.12h6.52V5.65h-5.11c-.61,0-1.12-.47-1.12-1.08s.5-1.12,1.12-1.12h5.08V1.19c0-.61.58-1.19,1.19-1.19s1.15.58,1.15,1.19v2.27h11.91V1.19c0-.61.58-1.19,1.19-1.19s1.15.58,1.15,1.19v2.27h5.8c.61,0,1.12.5,1.12,1.12s-.5,1.08-1.12,1.08h-5.83v11.59h6.77c.61,0,1.08.5,1.08,1.12s-.47,1.08-1.08,1.08ZM135.79,31.82h-23.9c-.61,0-1.12-.5-1.12-1.12s.5-1.08,1.12-1.08h10.69v-3.35h-5.29c-.58,0-1.08-.47-1.08-1.04s.5-1.08,1.08-1.08h5.29v-2.52c0-.61.54-1.12,1.15-1.12s1.12.5,1.12,1.12v2.52h5.51c.58,0,1.08.5,1.08,1.08s-.5,1.04-1.08,1.04h-5.51v3.35h10.94c.61,0,1.12.47,1.12,1.08s-.5,1.12-1.12,1.12ZM129.78,8.13v-2.48h-11.99v2.48h11.99ZM129.78,12.63v-2.34h-11.99v2.34h11.99ZM129.78,17.24v-2.48h-11.99v2.48h11.99Z"/>
      <path class="cls-1" d="M153.44,5.22h-2.88c-.18.94-1.01,4.89-2.74,9.39.68-.58,1.51-.86,2.38-.86,2.23,0,3.78,1.76,3.78,3.96v8.35c0,2.2-1.58,3.85-3.78,3.85s-3.74-1.66-3.74-3.85v-8.24c-.29.61-.61,1.22-.94,1.84-.29.54-.94.72-1.48.43-.54-.29-.76-.97-.47-1.51,2.88-5.4,4.25-11.45,4.64-13.35h-2.88c-.61,0-1.12-.5-1.12-1.12s.5-1.08,1.12-1.08h8.1c.61,0,1.12.47,1.12,1.08s-.5,1.12-1.12,1.12ZM151.74,17.71c0-.97-.54-1.8-1.58-1.8s-1.58.83-1.58,1.8v8.35c0,.97.58,1.66,1.58,1.66s1.58-.68,1.58-1.66v-8.35ZM163.23,6.19h-2.38v7.92c0,.58-.47,1.04-1.04,1.04s-1.04-.47-1.04-1.04v-5.4c-.76,1.15-1.73,2.56-2.81,3.78-.4.43-1.04.5-1.48.11-.43-.4-.5-1.04-.11-1.48,1.48-1.69,2.84-3.85,3.49-4.93h-1.76c-.58,0-1.04-.47-1.04-1.04s.47-1.04,1.04-1.04h2.63V1.26c0-.58.5-1.08,1.08-1.08s1.12.5,1.12,1.08v2.84h2.3c.58,0,1.04.47,1.04,1.04s-.47,1.04-1.04,1.04ZM175.14,32.04c-.76.11-2.52.25-3.92.25-1.51,0-3.31-.11-5.11-.5-2.59-.54-4.64-2.2-5.79-4.54-.83,1.58-2.12,3.31-4.14,4.71-.47.36-1.15.25-1.51-.25-.36-.5-.25-1.15.25-1.51,2.56-1.84,4.57-5.08,4.71-8.17.04-.61.54-1.08,1.15-1.08s1.12.5,1.12,1.12c0,.47-.25,1.91-.4,2.59.54,1.76,1.69,3.49,3.31,4.43v-10.47h-6.95c-.61,0-1.08-.47-1.08-1.08s.47-1.08,1.08-1.08h14.33c2.05,0,3.28,1.87,2.05,3.42-.36.43-.9,1.04-1.4,1.48-.43.4-1.12.36-1.51-.07-.4-.43-.36-1.12.07-1.51l1.01-1.15h-5.4v4.54h5.51c.58,0,1.04.47,1.04,1.04s-.47,1.04-1.04,1.04h-5.51v4.61c1.44.25,2.95.36,4.21.36,1.19,0,2.41-.07,3.6-.25.58-.07,1.12.32,1.19.9.07.58-.29,1.12-.86,1.19ZM162.15,10.15l-.79-.68c-.43-.36-.43-1.01-.07-1.44.36-.43,1.01-.43,1.44-.07l.79.68c.43.36.43,1.01.07,1.44-.36.43-1.01.43-1.44.07ZM174.74,12.71c-1.4-1.3-2.59-2.81-3.46-4.03v5.44c0,.58-.47,1.04-1.04,1.04s-1.04-.47-1.04-1.04v-5.58c-.86,1.26-2.02,2.88-3.2,4.25-.36.43-1.01.47-1.44.11-.43-.36-.47-1.01-.11-1.44,1.51-1.73,3.1-4.07,3.85-5.25h-2.16c-.58,0-1.04-.47-1.04-1.04s.47-1.04,1.04-1.04h3.02V1.26c0-.58.5-1.08,1.08-1.08s1.12.5,1.12,1.08v2.84h3.42c.58,0,1.04.47,1.04,1.04s-.47,1.04-1.04,1.04h-2.7c1.15,1.8,2.52,3.53,4.07,5,.4.4.43,1.08.04,1.48s-1.04.43-1.44.04Z"/>
      <path class="cls-1" d="M200.05,22.5c-.5,2.2-1.33,4.5-2.99,6.12-1.19,1.19-2.81,1.8-4.46,1.8-.72,0-1.33-.58-1.33-1.3s.58-1.33,1.3-1.33c2.38-.04,3.6-1.94,4.32-3.96.86-2.41,1.12-5.47,1.22-7.34.04-.94.04-2.16-.4-2.99-.65-1.22-1.98-1.44-3.24-1.44-1.01,0-2.05.11-3.06.18-1.3,4.57-3.2,10.44-5.83,16.59-.29.68-1.08,1.01-1.76.72-.68-.29-.97-1.04-.68-1.73,2.38-5.62,4.18-11.05,5.44-15.41-1.15.11-3.56.29-4.72.4-.72.07-1.33-.47-1.4-1.19-.07-.72.47-1.37,1.19-1.44l5.65-.43c.61-2.27,1.19-4.61,1.66-6.95.14-.72.9-1.19,1.62-1.04.72.14,1.19.83,1.04,1.55-.32,1.58-1.01,4.46-1.48,6.23.79-.04,1.55-.11,2.34-.11,1.8,0,3.78.43,5,1.87,1.26,1.48,1.44,3.49,1.33,5.33-.07,1.48-.25,3.67-.76,5.87ZM210.1,19.62c-.68.22-1.48-.14-1.69-.86-.79-2.48-3.13-6.73-4.97-8.64-.5-.54-.47-1.37.07-1.87.54-.5,1.37-.47,1.87.07,2.12,2.23,4.61,6.7,5.54,9.61.22.68-.14,1.48-.83,1.69Z"/>
      <path class="cls-1" d="M242.1,26.67c-2.3,3.46-7.05,4.57-10.91,5-.72.07-1.37-.43-1.44-1.15-.07-.72.43-1.33,1.15-1.4,1.73-.18,3.53-.58,5.15-1.19,2.59-1.01,4.57-2.74,4.57-5.69,0-3.17-2.99-4.39-5.69-4.39-3.1,0-7.09,1.48-10.87,5.36-.29.29-.68.54-1.12.54-.72,0-1.3-.58-1.3-1.3,0-3.71.58-9.75,1.37-13.89.14-.72.83-1.19,1.55-1.04.72.14,1.26.83,1.12,1.55-.79,4.1-1.12,7.92-1.26,10.4,3.6-2.92,7.31-4.21,10.58-4.21,4.14,0,8.5,2.34,8.39,7.02-.04,1.69-.5,3.2-1.3,4.39ZM236.7,9.11c-.61.36-1.44.22-1.83-.4-.14-.22-.83-.76-1.04-.9-1.01-.72-2.84-1.87-6.16-3.28-.68-.29-1.04-1.08-.76-1.76s1.08-1.01,1.76-.72c6.91,2.95,8.21,4.82,8.46,5.22.4.61.22,1.48-.43,1.83Z"/>
      <path class="cls-1" d="M281.74,16.92h-27.86c-.72,0-1.33-.58-1.33-1.3s.61-1.33,1.33-1.33h27.86c.72,0,1.33.61,1.33,1.33,0,.79-.43,1.3-1.33,1.3Z"/>
      <path class="cls-1" d="M301.14,17.03c.29.54.07,1.19-.47,1.48s-1.15.07-1.48-.47l-.32-.54-2.66.36v13.46c0,.65-.5,1.15-1.15,1.15s-1.15-.5-1.15-1.15v-13.28l-5.15.65c-.58.07-1.19-.32-1.26-.94-.07-.58.4-1.3,1.01-1.37l1.55-.14,3.13-4.36-4.54-4.18c-.47-.43-.5-1.15-.07-1.62s1.15-.5,1.58-.07l.32.32,3.42-5.44c.32-.54,1.08-.68,1.62-.36s.76,1.08.4,1.62l-3.67,5.76,2.27,2.12,3.24-4.36c.4-.5,1.12-.61,1.62-.22.5.4.65,1.12.25,1.62l-6.59,8.86,4.79-.5-.5-.94c-.29-.54-.07-1.22.47-1.51s1.19-.07,1.48.47l1.87,3.56ZM290.34,29.95c-.18.61-.86.9-1.44.72s-.94-.83-.76-1.4c.72-2.27,1.4-5.47,1.73-7.42.11-.61.72-1.04,1.33-.94.61.11,1.08.68.97,1.3-.29,1.76-1.22,5.83-1.84,7.74ZM301.32,27.39c.11.61-.25,1.19-.86,1.3-.58.11-1.19-.25-1.3-.86l-1.08-5.58c-.11-.61.25-1.19.86-1.3.61-.11,1.19.25,1.29.86l1.08,5.58ZM319.21,13.43h-7.34c-2.63,2.81-5.9,5.79-9.68,8.28-.5.32-1.19.22-1.55-.32-.32-.5-.11-1.26.4-1.58,2.92-1.91,5.47-4.14,7.7-6.37h-6.91c-.61,0-1.12-.5-1.12-1.12s.5-1.12,1.12-1.12h6.08v-4.36h-4.18c-.61,0-1.08-.5-1.08-1.12s.47-1.08,1.08-1.08h4.14V1.48c0-.65.58-1.19,1.22-1.19s1.19.54,1.19,1.19v3.17h3.13c.61,0,1.12.47,1.12,1.08s-.5,1.12-1.12,1.12h-3.17v4.36h.58c3.6-3.96,5.79-7.38,6.19-8.03.36-.58,1.12-.9,1.73-.5.54.32.68,1.08.36,1.58-1.12,1.76-3.13,4.64-5.22,6.95h5.33c.61,0,1.12.5,1.12,1.12s-.5,1.12-1.12,1.12ZM318.39,27c0,3.6-2.84,5.29-5.26,5.29h-2.45c-2.99,0-5.26-2.41-5.26-5.33v-4.72c0-2.92,2.34-5.36,5.22-5.36h2.48c2.92,0,5.26,2.45,5.26,5.36v4.75ZM316.01,23.36v-1.12c0-1.69-1.26-3.06-2.92-3.06h-2.41c-1.66,0-2.95,1.4-2.95,3.06v1.12h8.28ZM316.01,25.56h-8.28v1.4c0,1.66,1.26,3.06,2.95,3.06h2.41c1.66,0,2.92-1.37,2.92-3.02v-1.44Z"/>
      <path class="cls-1" d="M329.87,20.37c0,3.2.47,5.98,1.4,7.49.4.65.14,1.48-.5,1.87-.65.4-1.44.14-1.84-.5-1.37-2.3-1.76-5.44-1.76-8.86,0-5,.9-10.69,1.62-15.3.11-.76.86-1.26,1.58-1.15.76.11,1.22.83,1.12,1.55-.72,4.61-1.62,10.22-1.62,14.9ZM352.3,27.68c-2.77.47-5.11.65-7.06.65s-3.6-.22-4.86-.65c-2.09-.68-3.46-2.12-3.46-4.07,0-.5.11-1.08.32-1.66.18-.54.65-.86,1.19-.86.68,0,1.4.61,1.33,1.33-.07.83-.47,1.84.72,2.48.79.47,2.34.79,4.75.79,1.76,0,3.92-.18,6.62-.61.79-.14,1.55.54,1.55,1.33,0,.61-.47,1.15-1.12,1.26ZM350.35,9.9c-1.55-.04-3.17-.14-4.71-.14-2.3,0-4.68.11-7.02.4-.76.11-1.33-.61-1.33-1.3,0-.65.43-1.22,1.08-1.33,2.23-.32,4.57-.47,6.88-.47,1.73,0,3.49.07,5.18.18.68.04,1.22.65,1.22,1.33,0,.72-.54,1.33-1.3,1.33Z"/>
      <path class="cls-1" d="M389.95,23.54h-12.56v4.1c0,1.08-.25,2.02-.68,2.74-.79,1.37-2.27,2.27-3.78,2.56-.61.11-1.19-.36-1.3-.97-.11-.65.36-1.22.97-1.33,1.55-.29,2.45-1.44,2.45-2.99v-4.1h-13.75c-.61,0-1.12-.5-1.12-1.12s.5-1.15,1.12-1.15h13.75v-2.41c0-.79.72-1.3,1.51-1.12,1.15-.65,3.6-2.02,4.14-2.3.36-.18.36-.65-.14-.65h-11.88c-.61,0-1.15-.5-1.15-1.12s.54-1.15,1.15-1.15h11.77c.83,0,1.55.25,2.09.76s.79,1.19.79,1.8c0,.86-.43,1.69-1.26,2.16l-4.64,2.63v1.4h12.53c.61,0,1.12.54,1.12,1.15s-.5,1.12-1.12,1.12ZM391.03,13.57c0,.61-.54,1.19-1.15,1.19s-1.19-.58-1.19-1.19v-1.3c0-1.55-1.22-2.84-2.81-2.84h-20.3c-1.55,0-2.77,1.26-2.74,2.81l.04,1.33c0,.65-.54,1.19-1.19,1.19-.61,0-1.19-.58-1.19-1.19v-1.3c0-2.81,2.27-5.11,5.08-5.11h14.51l5.04-6.08c.4-.5,1.19-.58,1.69-.18.5.4.54,1.19.14,1.69l-3.85,4.57h2.81c2.81,0,5.11,2.27,5.11,5.08v1.33ZM368.9,3.89c.4.47.36,1.22-.11,1.62-.47.4-1.22.32-1.62-.14l-2.02-2.41c-.4-.47-.32-1.22.14-1.62.47-.4,1.22-.32,1.62.14l1.98,2.41ZM376.78,3.28c.36.5.25,1.22-.25,1.58s-1.22.22-1.58-.29l-1.73-2.38c-.36-.5-.22-1.26.29-1.62.5-.36,1.22-.22,1.58.29l1.69,2.41Z"/>
      <path class="cls-1" d="M424.48,17.49c-.11-.07-2.34-1.37-4.72-4.25.22,1.69.4,3.64.4,5.51,0,6.48-3.24,11.63-10.19,11.63-5.22,0-9.58-3.38-9.58-8.93,0-4.03,1.87-8.03,3.67-11.55-1.08.54-3.92,1.69-5.08,1.69-.72,0-1.26-.54-1.26-1.26,0-.61.43-1.15,1.04-1.26,2.3-.4,5.8-2.02,7.49-3.35.4-.68,1.44-.83,2.02-.29.58.54.47,1.51-.04,2.05-2.09,3.67-5.25,9.65-5.25,13.97,0,4.07,3.2,6.33,6.98,6.33,5.54,0,7.63-3.96,7.63-9.03,0-4.43-.79-8.96-1.98-13.21-.25-.83.4-1.69,1.26-1.69.54,0,1.08.4,1.26.97.14.43.36,1.3.47,1.66,1.19,3.82,5.25,7.52,7.09,8.75.68.43.86,1.37.32,1.98-.4.43-1.04.58-1.55.29ZM424.55,8.42c-.47.32-1.15.18-1.48-.32-.65-1.01-1.33-1.98-2.05-2.95-.32-.47-.25-1.15.22-1.48.47-.32,1.15-.22,1.48.25.5.68,1.76,2.52,2.12,3.06.32.47.18,1.12-.29,1.44ZM428.08,6.41c-.5.32-1.12.14-1.44-.36-.65-1.01-1.3-1.98-2.05-2.92-.36-.47-.32-1.12.14-1.48.47-.36,1.12-.32,1.48.14.65.79,1.73,2.41,2.2,3.13.32.5.18,1.15-.32,1.48Z"/>
      <path class="cls-1" d="M456.81,29.05c-1.83-1.66-4.46-3.24-6.8-4.14v.65c-.07,3.82-2.99,5.33-6.44,5.33-2.74,0-6.23-1.4-6.23-4.64,0-3.82,4-5,7.13-5,1.01,0,2.02.07,2.95.25l-.11-5.22c-2.81.14-5.65.25-8.46.22-.68,0-1.26-.54-1.26-1.22s.61-1.22,1.3-1.22c2.77.04,5.58-.07,8.35-.22l-.11-4.75c-2.7.14-5.65.36-8.39.61-.72.07-1.37-.54-1.37-1.26,0-.65.5-1.15,1.15-1.22,2.81-.25,5.69-.47,8.42-.61-.04-1.33-.04-2.7-.04-4.03,0-.76.65-1.33,1.4-1.33s1.3.61,1.3,1.33c0,1.3,0,2.63.04,3.92,2.23-.11,4.5-.22,6.73-.25.68,0,1.22.5,1.22,1.19s-.5,1.26-1.19,1.3c-2.23.07-4.5.14-6.73.25l.11,4.68c2.23-.14,4.46-.32,6.7-.58.76-.07,1.37.43,1.37,1.22,0,.61-.47,1.15-1.08,1.22-1.44.18-4.79.47-6.91.61.07,2.23.11,4.28.14,6.05,2.95.97,6.3,2.88,8.57,4.97.54.5.58,1.48.07,1.98s-1.33.4-1.84-.07ZM447.41,24.12c-.97-.22-1.98-.32-2.99-.32-1.55,0-4.5.4-4.5,2.45,0,1.58,2.45,2.2,3.64,2.2,2.09,0,3.78-.61,3.85-2.95v-1.37Z"/>
      <path class="cls-1" d="M483.66,30.99c-4.39,0-8.17-2.74-8.28-7.42-.04-1.19-.04-2.52-.07-3.92-.07-2.81.14-10.94.29-15.73.04-.79.72-1.44,1.51-1.4s1.4.68,1.37,1.48c-.14,5.22-.32,10.44-.32,15.66,0,1.4,0,2.7.04,3.85.07,3.13,2.56,4.72,5.47,4.72,3.31,0,7.49-2.05,10.37-7.02.4-.68,1.26-.9,1.94-.5.68.4.86,1.22.5,1.91-3.24,5.83-8.28,8.39-12.81,8.39Z"/>
      <path class="cls-1" d="M527.94,28.29c-1.44-1.08-4.07-2.74-6.8-3.56l.07,1.33c.18,3.13-2.2,4.9-5.11,4.93-2.56.04-5.15-1.55-5.22-4.36-.04-1.62.97-2.84,2.34-3.56,1.3-.68,2.92-.94,4.5-.94.4,0,.79,0,1.19.04-.22-4.14-.54-9.25-.54-13.1v-.94c0-.58.61-1.08,1.19-1.08s1.08.54,1.08,1.12v.9c0,1.48-.04,3.13.04,4.86,1.91-.07,4.36-.61,6.08-1.48.5-.25,1.15-.04,1.4.47.25.5.04,1.19-.47,1.44-1.08.54-3.35,1.55-6.95,1.69.07,2.23.18,4.5.29,6.48,3.35.9,6.44,2.7,8.17,4.03.47.36.58,1.04.22,1.51s-1.01.58-1.48.22ZM519.02,24.26c-.43-.04-.9-.07-1.33-.07-1.51,0-4.79.4-4.75,2.45,0,1.4,1.48,2.41,3.13,2.38,1.66-.04,2.99-.86,3.02-2.66,0-.68-.07-1.8-.07-2.09Z"/>
      <path class="cls-1" d="M553.36,31.86c-.68.29-1.48-.11-1.76-.79-.29-.76.14-1.48.86-1.76,4.54-1.84,9.36-5.98,9.57-11.2.14-3.53-2.23-4.39-5.33-4.39s-6.95,1.12-9.07,1.98c-.68.29-1.48-.14-1.76-.83s.11-1.51.79-1.8c2.41-.94,6.34-2.05,10.04-2.05,2.88,0,6.08.79,7.49,3.6.54,1.12.68,2.38.65,3.64-.29,6.37-5.9,11.37-11.48,13.61ZM561.71,7.78c-2.59-1.4-7.59-2.56-10.58-3.06-.76-.14-1.33-.86-1.19-1.62.14-.76.86-1.26,1.62-1.12,3.53.61,8.46,1.76,11.41,3.35.68.36,1.01,1.19.65,1.87s-1.22.94-1.91.58Z"/>
      <path class="cls-1" d="M591.77,31.14c-1.22,0-2.23-.97-2.23-2.2s1.01-2.23,2.23-2.23,2.23,1.01,2.23,2.23-1.01,2.2-2.23,2.2ZM593.03,22.82c-.04.61-.58,1.12-1.19,1.12s-1.12-.5-1.15-1.12l-.79-19.15c-.04-.94.68-2.12,2.02-2.12,1.4,0,2.09,1.15,2.05,2.12l-.94,19.15Z"/>
    </g>
  </g>
</svg>