<?xml version="1.0" encoding="UTF-8"?>
<svg id="_レイヤー_2" data-name="レイヤー_2" xmlns="http://www.w3.org/2000/svg" viewBox="0 0 67.68 32.9">
  <defs>
    <style>
      .cls-1 {
        fill: #ea5514;
      }
    </style>
  </defs>
  <g id="_レイヤー_1-2" data-name="レイヤー_1">
    <g>
      <path class="cls-1" d="M0,6.19h10.44v2.27H0v-2.27ZM.9,23.47h8.35v7.99H.9v-7.99ZM2.95,17.46h4.32v2.16H2.95v-2.16ZM7.45,13.93H3.06v-2.23h4.39v2.23ZM3.13,29.23h3.96v-3.53h-3.96v3.53ZM6.37,3.85h-2.23V.25h2.23v3.6ZM30.85,14.58c-4.39-.18-6.84-2.7-6.73-6.84V3.42h-4.25c-.18,5.83-1.51,9-4.03,11.59l-1.91-1.15c2.88-3.6,3.71-6.05,3.71-12.6h8.64c0,.43,0,3.13-.11,4.5-.07,4.14.54,5.58,2.88,6.3v-2.45l1.73.36c.07,1.98.07,4.61.07,4.61ZM23.29,28.51c1.8.9,4.07,1.8,6.77,2.23l-.72,2.16c-3.17-.61-5.76-1.62-7.92-2.88-1.19.9-2.52,1.73-4.07,2.34l-1.33-1.69c1.44-.65,2.41-1.26,3.42-1.91-.72-.54-1.62-1.26-2.45-2.05l1.44-1.62c1.01.9,1.91,1.62,2.81,2.16,2.05-1.91,3.31-4.21,3.96-6.91h-8.64v-2.27h11.23c-.18,3.89-1.8,7.63-4.5,10.44Z"/>
      <path class="cls-1" d="M43.81,4.39l1.62,1.8c-1.87,1.91-6.19,4.79-10.62,6.41l-1.33-1.98c5.11-2.16,7.74-3.96,10.33-6.23ZM42.01,12.96v17.96h-2.23V12.96h2.23ZM51.73,14.47c-1.33,2.27-3.13,4.43-5.83,6.12l-1.73-1.62c2.63-1.69,4.43-3.67,5.76-5.65l1.8,1.15ZM67.68,12.13h-19.98v-2.23h5.4v-3.6h-3.24v-2.27h3.24V0h2.23v4.03h4.97V.07h2.23v3.96h3.17v2.27h-3.17v3.6h5.15v2.23ZM65.52,16.92v15.62c-1.62,0-3.6,0-4.79-.07l-.07-2.16c.97.07,1.87.18,2.7.18v-3.24h-3.71v3.06h-2.23v-3.06h-3.71v4.93h-2.23v-15.26h14.04ZM57.42,21.24v-2.09h-3.71v2.09h3.71ZM57.42,25.16v-1.94h-3.71v1.94h3.71ZM60.3,9.9v-3.6h-4.97v3.6h4.97ZM63.36,19.15h-3.71v2.09h3.71v-2.09ZM63.36,23.22h-3.71v1.94h3.71v-1.94Z"/>
    </g>
  </g>
</svg>