<?xml version="1.0" encoding="UTF-8"?>
<svg id="_レイヤー_2" data-name="レイヤー_2" xmlns="http://www.w3.org/2000/svg" viewBox="0 0 421.92 76.65">
  <defs>
    <style>
      .cls-1 {
        fill: #f7f8f8;
      }

      .cls-2 {
        fill: #fff100;
      }
    </style>
  </defs>
  <g id="_レイヤー_1-2" data-name="レイヤー_1">
    <g>
      <path class="cls-2" d="M2.3,72.32l-2.3-2.16c13.44-8.35,19.44-18.91,21.6-28.42H3.5v-2.98h21.7c-1.54,12.96-10.18,26.26-22.9,33.55ZM32.31,72.56c-3.26-.82-7.58-2.98-10.32-5.38l1.78-2.3c2.88,2.3,5.42,3.5,9.84,4.94l-1.3,2.74Z"/>
      <path class="cls-2" d="M67.68,64.88c1.2,1.68,2.3,3.36,4.22,5.42l-2.3,2.02c-3.36-3.36-6.72-8.74-9.12-13.54l2.78-1.3c.96,2.16,1.78,3.36,2.64,4.8,5.04-3.98,9.7-9.36,12.48-16.23h-29.91v-2.98h34.32c-2.5,9.12-9.12,16.66-15.12,21.79Z"/>
      <path class="cls-2" d="M95.9,51.11l-1.34-2.64c12.24-2.88,22.08-7.44,28.8-12.24l1.58,2.54c-7.1,5.62-20.31,10.56-29.04,12.34ZM115.44,73.77h-2.88v-23.14h2.88v23.14Z"/>
      <path class="cls-2" d="M144.24,69.68l-3.12-.72c3.84-7.06,5.42-14.83,5.42-22.03h2.98c-.24,7.68-1.06,14.88-5.28,22.75ZM160.08,71.51v-34.42h2.88v31.3c6-.96,11.28-2.88,15.99-6.1l.82,2.74c-4.9,3.6-12,6.1-19.68,6.48Z"/>
      <path class="cls-2" d="M197.9,49.33c-2.06-3.12-3.6-4.8-4.94-6.38l2.4-1.54c1.34,1.44,3.26,3.6,4.94,6l-2.4,1.92ZM203.28,72.81l-2.5-2.16c10.56-7.3,18.24-17.23,21.22-28.51l2.88.72c-3.84,13.78-11.76,23.14-21.6,29.95Z"/>
      <path class="cls-2" d="M273.51,55.43h-34.56v-2.74h34.56v2.74Z"/>
      <path class="cls-2" d="M287.9,51.11l-1.34-2.64c12.24-2.88,22.08-7.44,28.8-12.24l1.58,2.54c-7.1,5.62-20.31,10.56-29.04,12.34ZM307.44,73.77h-2.88v-23.14h2.88v23.14Z"/>
      <path class="cls-2" d="M344.16,48.23c-2.88-2.26-4.9-3.6-6.82-4.8l2.02-2.26c2.3,1.3,4.22,2.64,6.72,4.66l-1.92,2.4ZM342.48,73.77l-1.44-2.64c10.23-3.6,20.55-11.71,25.92-24.58l2.54,1.58c-5.28,12.58-14.31,21.22-27.03,25.63Z"/>
      <path class="cls-2" d="M385.2,51.97l-2.88-1.68c4.8-4.7,8.06-10.23,10.08-15.84l2.78.82c-1.92,6.48-5.91,12.48-9.99,16.71ZM395.18,76.65l-2.4-1.92c12.96-9.36,15.7-19.3,17.52-30.1h-13.92v-2.88h17.38c-1.2,13.44-5.86,26.02-18.58,34.9ZM416.88,40.93c-1.06-1.1-2.26-2.16-3.36-3.12l1.68-1.58c1.2.96,2.4,1.92,3.36,2.78l-1.68,1.92ZM420.24,37.57c-1.06-1.1-2.26-2.16-3.36-3.12l1.68-1.58c1.2.96,2.4,1.92,3.36,2.78l-1.68,1.92Z"/>
    </g>
    <g>
      <path class="cls-1" d="M163.83,14.4l-1.91-1.08c2.34-2.34,3.35-4.75,3.78-7.45h-21.67v-2.27h24.19c-.36,4.68-1.87,8.21-4.39,10.8ZM149.79,27.43c4.03-4.75,5.11-10.33,4.75-16.7h2.16c.29,7.27-.79,12.74-4.93,17.71l-1.98-1.01Z"/>
      <path class="cls-1" d="M188.85,28.26h-2.27V.47h2.27v27.79ZM204.04,18.29c-3.85-.36-8.17-1.01-12.24-2.16l.54-2.16c3.53.97,8.39,1.8,12.24,2.05l-.54,2.27Z"/>
      <path class="cls-1" d="M221.5,14.22h-2.16V.65h2.16v13.57ZM229.24,30.49l-2.23-.72c4.5-6.48,6.66-11.59,6.66-22.75,0-1.87,0-4.21-.18-7.02h2.23c.11,3.17.18,5.69.18,7.56,0,9.9-1.62,15.66-6.66,22.93Z"/>
      <path class="cls-1" d="M251.85,25.81v-2.16h24.12v2.16h-24.12ZM254.98,6.41v-2.16h18.11v2.16h-18.11ZM264.63,21.67h-2.27c1.01-4.64.9-8.17.72-12.13h2.27c0,4.32.25,7.67-.72,12.13Z"/>
    </g>
  </g>
</svg>