<?xml version="1.0" encoding="UTF-8"?>
<svg id="_レイヤー_2" data-name="レイヤー_2" xmlns="http://www.w3.org/2000/svg" viewBox="0 0 58.11 36.3">
  <defs>
    <style>
      .cls-1 {
        stroke: #405474;
      }

      .cls-1, .cls-2, .cls-3 {
        stroke-linecap: round;
        stroke-linejoin: round;
      }

      .cls-1, .cls-3 {
        fill: #f9e0b5;
        stroke-width: 1.79px;
      }

      .cls-4 {
        fill: #3e5172;
      }

      .cls-5, .cls-2 {
        fill: #e6796e;
      }

      .cls-2 {
        stroke: #3e5273;
        stroke-width: 1.66px;
      }

      .cls-3 {
        stroke: #3f5374;
      }
    </style>
  </defs>
  <g id="_レイヤー_1-2" data-name="レイヤー_1">
    <g id="_生成オブジェクト" data-name="生成オブジェクト">
      <g>
        <path class="cls-2" d="M23.6,19.35c.92-.25,2.86.83,4.22,1,5.19.64,5.49-2.83,9.08.46,4.43,4.05,2.08,9.29,2.91,14.52v.14s-21.48-.09-21.48-.09c.36-3.06-.44-8.61.59-11.24.73-1.86,2.68-4.25,4.68-4.78Z"/>
        <path class="cls-1" d="M28.08,3.92c8.48-1.36,10.27,12.19,1.28,12.67-7.85.41-9.15-11.4-1.28-12.67Z"/>
        <g>
          <path class="cls-5" d="M16.43,16.31c.58-.08.63,0,1.15.15.23.07.6-.13.77.19.68,1.33-1.15,2.3-2.05,3.84-2.12,3.64-1.64,7.6-1.66,11.64-.71.05-.85.43-.9.44-.99.23-10.68-.03-12.89.01.4-5.27-1.44-11.18,3.3-15,2.79-2.25,2.88-.85,5.5-.31,3.63.76,5.9-.85,6.78-.97Z"/>
          <path class="cls-3" d="M10.68.98c8.35-1.26,10.16,12,1.28,12.61C4.07,14.14,2.55,2.21,10.68.98Z"/>
        </g>
        <g>
          <path class="cls-5" d="M40.87,16.31c1.11-.13,2.36.72,3.58.97,5.78,1.17,6.33-3.36,10.62,1.36,3.11,3.42,2.13,9.63,1.83,13.95-2.15-.04-11.32.22-12.32-.01-2.3-.53-.21-5.66-1.79-10.04-1.08-2.99-3.6-4.11-3.07-5.88.33-.26.64-.15.77-.19.18-.06.32-.15.38-.15Z"/>
          <path class="cls-1" d="M45.6.98c3.41-.53,6.75,2.12,7.22,5.5.67,4.85-4.54,8.55-8.88,6.52-5.92-2.76-4.47-11.07,1.66-12.03Z"/>
        </g>
      </g>
      <g>
        <path class="cls-4" d="M17.34,17.25c-.31-.09-.45-.19-.79-.13-1.99.8-4.22,1.47-6.41,1.08-1.08-.06-2.64-.86-3.51-1.02-.63-.03-1.82.86-2.57,1.61-3.62,3.61-1.97,9.13-2.38,13.85,0,0-.84-.89-.84-.89,3.15,0,6.55.07,9.69.08.87-.03,2.33.03,3.16-.09,1.06-.12,1.29,1.44.24,1.64-.41.07-.67.07-.96.09-1.47.07-4.19,0-5.68,0-2.15-.02-4.32-.07-6.42-.06-.46,0-.84-.37-.85-.83.33-4.86-1.2-11.1,2.87-14.97,1.15-.97,2.07-2.02,3.79-2.09.95.07,1.51.45,2.05.62,1.6.59,3.39.66,5.04.2.92-.21,1.84-.8,2.84-.89,1.14-.08,2.02.66,2.94,1.33,0,0-1.33,1.1-1.33,1.1-.26-.26-.54-.5-.87-.63h0Z"/>
        <path class="cls-4" d="M40.23,15.67c1.31-.65,2.9.39,4.08.71,1.68.43,3.41.29,5.05-.33,1.22-.52,3.15-.66,4.29.24,5.55,3.45,4.55,10.84,4.08,16.34-.03.44-.41.78-.84.77-2.92,0-6.27.07-9.23.08-.52,0-1.84,0-2.35-.03-.64,0-1.73-.06-1.59-1.04.08-.49.57-.78,1.05-.66.26.06,1.04.05,1.37.06.97.02,3.59,0,4.6-.01,2.06-.02,4.09-.07,6.19-.06,0,0-.84.77-.84.77.23-4.58,1.45-10.22-2.01-13.73-.82-.82-1.74-1.56-2.61-1.52-.9,0-2.14.66-3.5.88-1.38.25-2.73.15-4.11-.18-1.06-.29-1.89-.87-2.86-.85.12-.02.13-.03.14-.03-.48.19-.92.36-1.24.82-.02-.02-1.04-.95-1.33-1.21.24-.27,1.25-.79,1.68-1.04h0Z"/>
      </g>
    </g>
  </g>
</svg>