<?xml version="1.0" encoding="UTF-8"?>
<svg id="_レイヤー_2" data-name="レイヤー_2" xmlns="http://www.w3.org/2000/svg" viewBox="0 0 47.94 54.46">
  <defs>
    <style>
      .cls-1 {
        fill: #50403b;
      }

      .cls-2 {
        stroke: #52413a;
        stroke-width: 1.15px;
      }

      .cls-2, .cls-3, .cls-4 {
        stroke-linecap: round;
        stroke-linejoin: round;
      }

      .cls-2, .cls-4 {
        fill: none;
      }

      .cls-5 {
        fill: #f4b9ab;
      }

      .cls-6 {
        fill: #f7ca7d;
      }

      .cls-3 {
        fill: #fdeee1;
      }

      .cls-3, .cls-4 {
        stroke: #51403b;
        stroke-width: 1.28px;
      }

      .cls-7 {
        fill: #51403b;
      }

      .cls-8 {
        fill: #cde5f6;
      }
    </style>
  </defs>
  <g id="_レイヤー_1-2" data-name="レイヤー_1">
    <g id="_生成オブジェクト" data-name="生成オブジェクト">
      <g>
        <path class="cls-8" d="M11.09,34.96c1.3-.1,3.43.18,4.34.11l.12.54,8.42,12.86,8.51-12.99.1-.49c2.18.28,5.92-.93,9.85,1.87,6.01,4.28,4.88,10.56,4.58,16.93l-46.02.03c-.21-.02-.2-.15-.26-.3-.17-.41-.06-8.47,0-8.91.7-5.48,4.96-9.23,10.36-9.65Z"/>
        <g>
          <path class="cls-6" d="M29.26,29.63c-.06-.21-.11-.42-.16-.63l-.17-.5c.12-.08.22-.19.33-.28,2.85-2.21,4.37-5.04,4.84-8.57.88-6.72-1.09-3.17-4.96-5.37-1.95-1.11-3.03-2.72-3.39-2.75-1.05.58-1.94,1.39-3.01,1.96-4.91,2.6-8.29,1.47-8.8,2.26-.44,4.72,1.03,9.89,5.14,12.68.03.02.07.04.11.07l-.24.51c-.05.21-.08.43-.14.64h-.56s-10.03-.08-10.03-.08c4.52-6.87-.45-15.83,4.09-22.7,5.76-8.7,18.54-8.14,23.85.77,4.11,6.9-.7,15.31,3.95,21.93l-10.34.07h-.51Z"/>
          <path class="cls-5" d="M28.93,28.51l.17.5c.06.21.11.42.16.63.42,1.51.77,3.03,1.18,4.54l.03.13-6.46,5.92-6.13-5.71-.09-.09.03-.13c.38-1.53.59-3.12.99-4.65.06-.21.08-.43.14-.64l.24-.51s-.07-.04-.11-.07c.03.02.07.04.11.07,2.74,1.8,7,1.89,9.74,0Z"/>
          <path class="cls-3" d="M28.93,28.51c-2.74,1.88-7,1.79-9.74,0-.04-.02-.07-.04-.11-.07-4.11-2.78-5.58-7.96-5.14-12.68.5-.79,3.89.34,8.8-2.26,1.07-.57,1.96-1.38,3.01-1.96.35.03,1.44,1.64,3.39,2.75,3.87,2.2,5.84-1.35,4.96,5.37-.46,3.53-1.99,6.36-4.84,8.57-.11.09-.21.19-.33.28Z"/>
        </g>
      </g>
      <g>
        <path class="cls-4" d="M18.25,29.64l-10.03-.08c4.52-6.87-.45-15.83,4.09-22.7,5.76-8.7,18.54-8.14,23.85.77,4.11,6.9-.7,15.31,3.95,21.93l-10.34.07"/>
        <path class="cls-4" d="M30.48,34.3l-.03-.13c-.41-1.51-.77-3.03-1.18-4.54-.06-.21-.11-.42-.16-.63"/>
        <path class="cls-1" d="M22.29,24.07c1.03,1.09,2.59,1.13,3.53-.08.31-.43.53-1.25,1.17-1.14.84.26.18,1.48-.19,1.96-.62.76-1.59,1.37-2.68,1.38-1.09.02-2.06-.53-2.74-1.21-.41-.44-1.19-1.6-.37-1.93.63-.17.92.62,1.27,1.03h0Z"/>
        <path class="cls-4" d="M17.8,34.43l.03-.13c.38-1.53.59-3.12.99-4.65.06-.21.08-.43.14-.64"/>
        <path class="cls-4" d="M17.8,34.43c-.92.51-1.38.57-2.37.65-.91.08-3.03-.21-4.34-.11-5.4.42-9.67,4.17-10.36,9.65-.06.44-.17,8.5,0,8.91.06.15.05.28.26.3l46.02-.03c.31-6.38,1.43-12.66-4.58-16.93-3.93-2.8-7.67-1.59-9.85-1.87-.69-.09-1.34-.33-1.97-.62"/>
        <polyline class="cls-4" points="30.48 34.3 24.02 40.23 17.89 34.51 17.8 34.43"/>
        <polyline class="cls-4" points="32.48 35.48 23.96 48.47 15.55 35.61"/>
        <line class="cls-4" x1="7.39" y1="53.31" x2="7.24" y2="48.32"/>
        <path class="cls-7" d="M40,53.31v-4.48c0-.29,0-.73.05-.99.14-.56,1.05-.6,1.19-.13.06.27.04.8.04,1.12v4.48c0,.83-1.28.84-1.28,0h0Z"/>
        <path class="cls-2" d="M23.37,4.44c-4.08.45-6.83,2.46-8.78,6.08"/>
      </g>
    </g>
  </g>
</svg>