<?xml version="1.0" encoding="UTF-8"?>
<svg xmlns="http://www.w3.org/2000/svg" viewBox="0 0 454.48 312.93">
  <defs>
    <style>
      .cls-1 {
        fill: none;
      }

      .cls-1, .cls-2 {
        stroke: #000;
        stroke-miterlimit: 10;
      }

      .cls-2, .cls-3 {
        fill: #fcee21;
      }
    </style>
  </defs>
  <g id="_レイヤー_3" data-name="レイヤー 3">
    <path class="cls-2" d="m375.26,307.83c-13.17-.47-25.8-3.27-37.85-8.38-5.9-2.51-11.74-5.59-17.38-8.58-16.57-8.76-33.71-17.83-57.69-15.88-18,1.46-36.09,8.83-53.77,21.9-.76.56-1.62,0-1.92-1.27-.3-1.26.07-2.74.83-3.3,18.02-13.32,36.47-20.83,54.84-22.32,24.5-1.99,41.89,7.21,58.7,16.1,5.86,3.1,11.4,6.03,17.23,8.5,33.64,14.28,71.95,10.13,113.86-12.32.79-.42,1.6.3,1.82,1.61.22,1.31-.24,2.72-1.03,3.14-27.48,14.72-53.46,21.66-77.63,20.79Z"/>
  </g>
  <g id="_レイヤー_2" data-name="レイヤー 2">
    <g>
      <g>
        <path class="cls-3" d="m248.59,232.17c-3.47,2.7-7.08,5.38-10.82,8.04s-7.61,5.29-11.62,7.88c-3.99,2.59-8.12,5.14-12.39,7.63-2.87,1.69-5.8,3.34-8.8,4.97-1.54.84-3.07,1.65-4.6,2.45-3.64,1.9-7.25,3.71-10.83,5.4h0c-4.39,2.1-8.73,4.04-13.01,5.85-3.86,1.64-7.67,3.16-11.42,4.58-4.68,1.77-9.27,3.39-13.76,4.86-5.15,1.69-10.17,3.19-15.03,4.53-5.24,1.45-10.3,2.7-15.15,3.79-3.97.89-7.8,1.67-11.47,2.36-7.13,1.33-13.67,2.31-19.51,3.04h0c-2.73-1.27-5.41-2.63-8.04-4.06,22.12-4.25,47.61-11.24,74.72-22.86,18.69-8,60.55-27.79,103.65-67.14,22.57-20.6,39.34-40.96,51.41-57.66.24,3.49.36,7.01.36,10.56s-.12,7.14-.36,10.66c-2.21,3.01-4.68,6.29-7.44,9.77-2.17,2.74-4.52,5.61-7.05,8.59-2.69,3.17-5.58,6.46-8.69,9.84-2.97,3.23-6.14,6.54-9.5,9.89h0c-2.9,2.91-5.95,5.85-9.15,8.81-3.29,3.04-6.74,6.1-10.35,9.16-3.56,3.03-7.27,6.06-11.15,9.06Z"/>
        <path class="cls-3" d="m311.92,167.05c-.46,6.77-1.34,13.42-2.64,19.92-1.6-3.39-3.2-6.76-4.8-10.15,2.76-3.48,5.23-6.76,7.44-9.77Z"/>
        <path class="cls-3" d="m309.28,186.97h0c-1.23,6.2-2.83,12.25-4.77,18.15-2.36-6.56-4.72-13.14-7.08-19.71,2.53-2.98,4.88-5.85,7.05-8.59,1.6,3.39,3.2,6.76,4.8,10.15Z"/>
        <path class="cls-3" d="m309.02,124.53c1.44,6.94,2.42,14.05,2.9,21.3-12.07,16.7-28.84,37.06-51.41,57.66-43.1,39.35-84.96,59.14-103.65,67.14-27.11,11.62-52.6,18.61-74.72,22.86-3.97-2.15-7.83-4.47-11.58-6.94h.01c15.27-3.46,37.16-9.33,62.44-19.45,23.15-9.28,70.79-28.87,118.08-72.74,15.86-14.71,37.46-37.51,57.93-69.83Z"/>
        <path class="cls-3" d="m309.02,124.52h0c-20.47,32.33-42.07,55.13-57.93,69.84-47.29,43.87-94.93,63.46-118.08,72.74-25.28,10.12-47.17,15.99-62.44,19.44h-.01c-4.98-3.29-9.76-6.86-14.32-10.68,17.44-3.24,41.86-9.02,69.7-19.95,67.92-26.66,109.29-65.47,118.38-74.21,16.51-15.89,39.07-40.86,59.39-76.43,2.16,6.25,3.94,12.67,5.31,19.25Z"/>
        <path class="cls-3" d="m297.43,185.41c2.36,6.57,4.72,13.15,7.08,19.71-1.97,6-4.3,11.84-6.96,17.5-.79-3.47-1.74-7.11-2.88-10.88-1.81-6.04-3.85-11.54-5.93-16.49,3.11-3.38,6-6.67,8.69-9.84Z"/>
        <path class="cls-3" d="m297.15,89.3c2.47,5.18,4.66,10.5,6.56,15.97-20.32,35.57-42.88,60.54-59.39,76.43-9.09,8.74-50.46,47.55-118.38,74.21-27.84,10.93-52.26,16.71-69.7,19.95-4.63-3.89-9.04-8.04-13.18-12.44,16.98-2.73,40.96-7.79,68.45-17.82,74.31-27.11,118.91-70.36,128.39-79.8,16-15.93,37.82-40.95,57.25-76.5Z"/>
        <path class="cls-3" d="m294.67,211.74c1.14,3.77,2.09,7.41,2.88,10.88-2.88,6.12-6.14,12.03-9.77,17.69.62-4.1,1.15-11.15-1.06-19.45-1.92-7.22-5.15-12.52-7.48-15.71h0c3.36-3.36,6.53-6.67,9.5-9.9,2.08,4.95,4.12,10.45,5.93,16.49Z"/>
        <path class="cls-3" d="m288.97,74.35c2.99,4.82,5.72,9.81,8.18,14.95-19.43,35.55-41.25,60.57-57.25,76.5-9.48,9.44-54.08,52.69-128.39,79.8-27.49,10.03-51.47,15.09-68.45,17.82h-.01c-3.27-3.47-6.39-7.08-9.34-10.84,19.74-3.15,47.12-9.14,78.09-21.41,68.04-26.95,108.85-66.52,116.91-74.5,16.89-16.73,40.29-43.62,60.26-82.32Z"/>
        <path class="cls-3" d="m286.72,220.86c2.21,8.3,1.68,15.35,1.06,19.45-3.51,5.5-7.37,10.76-11.53,15.76.89-4.96,1.61-12.19.46-20.78-1.26-9.36-4.25-16.65-6.62-21.34,3.2-2.96,6.25-5.9,9.15-8.8,2.33,3.19,5.56,8.49,7.48,15.71Z"/>
        <path class="cls-3" d="m280.14,61.58c3.15,4.1,6.1,8.36,8.83,12.77-19.97,38.7-43.37,65.59-60.26,82.32-8.06,7.98-48.87,47.55-116.91,74.5-30.97,12.27-58.35,18.26-78.09,21.41-3.41-4.34-6.59-8.86-9.52-13.55,36.97-6.11,66.39-16.3,87.02-24.94,27.81-11.64,78.36-33.43,123.1-83.63,22.95-25.75,37.2-50.94,45.83-68.88Z"/>
        <path class="cls-3" d="m280.14,61.57h0c-8.63,17.95-22.88,43.14-45.83,68.89-44.74,50.2-95.29,71.99-123.1,83.63-20.63,8.64-50.05,18.83-87.02,24.94-2.82-4.49-5.41-9.14-7.76-13.92,22.67-3.24,50.43-9.39,80.65-21.33,23.24-9.18,79.44-32.12,128.39-87.75,22.25-25.28,36.19-49.59,44.54-66.37,3.57,3.79,6.95,7.77,10.13,11.91Z"/>
        <path class="cls-3" d="m276.71,235.29c1.15,8.59.43,15.82-.46,20.78-4.17,5.01-8.65,9.76-13.41,14.2,1.54-5.21,3.34-13.53,2.68-23.79-.67-10.33-3.56-18.4-5.78-23.37,3.61-3.06,7.06-6.12,10.35-9.16,2.37,4.69,5.36,11.98,6.62,21.34Z"/>
        <path class="cls-3" d="m184.2,133.13c6.75-5.77,13.02-11.61,18.85-17.43,3.93-3.93,7.66-7.84,11.19-11.72,22.44-24.67,37.05-48.04,45.87-63.96,3.45,3.06,6.75,6.28,9.9,9.64-8.35,16.78-22.29,41.09-44.54,66.37-48.95,55.63-105.15,78.57-128.39,87.75-30.22,11.94-57.98,18.09-80.65,21.33-2.23-4.52-4.24-9.17-6.02-13.92,5.63-.78,12.28-1.83,19.75-3.32,9.64-1.92,20.66-4.55,32.67-8.21,8.94-2.72,18.43-6.01,28.31-10,7.7-3.1,15.64-6.63,23.73-10.65,8.83-4.38,17.86-9.34,26.97-14.96h.01c6.14-3.79,12.33-7.87,18.52-12.28,1.03-.73,2.05-1.47,3.06-2.21h.01c7.37-5.37,14.28-10.87,20.76-16.43Z"/>
        <path class="cls-3" d="m265.52,246.48c.66,10.26-1.14,18.58-2.68,23.79h0c-3.95,3.7-8.09,7.19-12.41,10.45,1.82-4.98,4.11-13.13,3.9-23.34-.23-11.38-3.46-20.19-5.74-25.21,3.88-3,7.59-6.03,11.15-9.06,2.22,4.97,5.11,13.04,5.78,23.37Z"/>
        <path class="cls-3" d="m260.11,40.01h0c-8.82,15.93-23.43,39.3-45.87,63.97,2.89-9.67,7.48-21.74,14.92-34.69,8.52-14.82,18-25.94,25.72-33.74,1.78,1.45,3.52,2.94,5.23,4.46Z"/>
        <path class="cls-3" d="m254.33,257.38c.21,10.21-2.08,18.36-3.9,23.34h0c-4.77,3.63-9.76,6.98-14.95,10.03,2.4-4.86,6.03-13.74,6.48-25.42.44-11.26-2.25-20.12-4.19-25.12,3.74-2.66,7.35-5.34,10.82-8.04,2.28,5.02,5.51,13.83,5.74,25.21Z"/>
        <path class="cls-3" d="m246.65,29.27c2.82,2.01,5.56,4.1,8.23,6.28-7.72,7.8-17.2,18.92-25.72,33.74-7.44,12.95-12.03,25.02-14.92,34.69-4.33.73-8.88,1.42-13.63,2.06,2.35-10.34,6.82-24.75,15.81-40.26,10.03-17.29,21.76-29.18,30.23-36.51Z"/>
        <path class="cls-3" d="m237.77,240.21c1.94,5,4.63,13.86,4.19,25.12-.45,11.68-4.08,20.56-6.48,25.42h0c-4.33,2.56-8.79,4.91-13.37,7.04,2.21-5.2,4.63-12.42,5.72-21.27,1.48-12.01-.11-22-1.68-28.43,4.01-2.59,7.88-5.22,11.62-7.88Z"/>
        <path class="cls-3" d="m235.57,22.08c3.8,2.24,7.5,4.65,11.08,7.19-8.47,7.33-20.2,19.22-30.23,36.51-8.99,15.51-13.46,29.92-15.81,40.26-4.56.62-9.3,1.19-14.23,1.69,3.68-12.56,9.64-28.55,19.54-45.77,9.87-17.19,20.67-30.38,29.65-39.88Z"/>
        <path class="cls-3" d="m226.15,248.09c1.57,6.43,3.16,16.42,1.68,28.43-1.09,8.85-3.51,16.07-5.72,21.27-4.18,1.95-8.47,3.72-12.84,5.29,2.41-4.61,5.66-12.22,6.78-22.14,1.24-11.07-.73-20.04-2.29-25.22,4.27-2.49,8.4-5.04,12.39-7.63Z"/>
        <path class="cls-3" d="m224.65,16.2c3.73,1.82,7.37,3.78,10.92,5.88-8.98,9.5-19.78,22.69-29.65,39.88-9.9,17.22-15.86,33.21-19.54,45.77-3.97.4-8.05.76-12.24,1.07,3.34-13.03,8.88-29.58,18.4-47.47,10.49-19.73,22.39-34.66,32.11-45.13Z"/>
        <path class="cls-3" d="m213.76,255.72c1.56,5.18,3.53,14.15,2.29,25.22-1.12,9.92-4.37,17.53-6.78,22.14-4.54,1.64-9.18,3.07-13.91,4.29,2.12-4.7,4.49-11.26,5.67-19.36,1.52-10.39.49-19.11-.67-24.87,1.53-.8,3.06-1.61,4.6-2.45,3-1.63,5.93-3.28,8.8-4.97Z"/>
        <path class="cls-3" d="m212.45,10.89c4.16,1.6,8.22,3.37,12.2,5.31-9.72,10.47-21.62,25.4-32.11,45.13-9.52,17.89-15.06,34.44-18.4,47.47-3.95.29-7.99.53-12.13.72,2.87-13.37,7.85-30.36,16.84-48.83,10.72-22.03,23.42-38.51,33.6-49.8Z"/>
        <path class="cls-3" d="m89.22,106.65c3.46.44,6.98.83,10.55,1.19,2.24.22,4.5.43,6.78.62,2.23.19,4.44.35,6.63.5,3.8.26,7.54.47,11.24.62,4.2.18,8.33.29,12.38.34,4.23.06,8.37.05,12.44-.01,4.35-.07,8.61-.2,12.77-.39,4.14-.19,8.18-.43,12.13-.72,4.19-.31,8.27-.67,12.24-1.07,4.93-.5,9.67-1.07,14.23-1.69,4.75-.64,9.3-1.33,13.63-2.06-3.53,3.88-7.26,7.79-11.19,11.72-23.96,4.55-55.89,8.22-93.31,5.93-41.12-2.52-75.02-11.38-99.43-19.77,1.41-3.79,2.97-7.51,4.66-11.15h.01c3.2.99,6.52,1.97,9.95,2.94,3.5.99,7.13,1.97,10.87,2.92,2.96.76,5.99,1.49,9.09,2.21,3.32.77,6.73,1.52,10.21,2.24,3.84.8,7.78,1.56,11.81,2.27,3.55.63,7.18,1.23,10.88,1.79,3.74.57,7.55,1.09,11.43,1.57Z"/>
        <path class="cls-3" d="m200.36,263.14c1.16,5.76,2.19,14.48.67,24.87-1.18,8.1-3.55,14.66-5.67,19.36-4.81,1.24-9.71,2.25-14.69,3.03,2.45-4.57,5.27-10.93,7.11-18.86,2.15-9.28,2.18-17.33,1.75-22.99h0c3.58-1.7,7.19-3.51,10.83-5.41Z"/>
        <path class="cls-3" d="m200.01,6.68c4.22,1.23,8.37,2.64,12.44,4.21-10.18,11.29-22.88,27.77-33.6,49.8-8.99,18.47-13.97,35.46-16.84,48.83-4.16.19-8.42.32-12.77.39h0c2.99-14.12,8.11-31.85,17.18-51.13,10.67-22.66,23.25-39.95,33.59-52.1Z"/>
        <path class="cls-3" d="m188.81,3.88c3.79.8,7.52,1.73,11.2,2.8-10.34,12.15-22.92,29.44-33.59,52.1-9.07,19.28-14.19,37.01-17.18,51.12h0c-4.07.07-8.21.08-12.44.02,2.57-14.21,7.39-32.76,16.89-53.05,11.09-23.72,24.56-41.26,35.12-52.99Z"/>
        <path class="cls-3" d="m189.53,268.55c.43,5.66.4,13.71-1.75,22.99-1.84,7.93-4.66,14.29-7.11,18.86-5.1.8-10.28,1.35-15.54,1.64,2.6-3.41,5.81-8.42,8.19-15.04,3.37-9.35,3.51-17.59,3.2-22.61,4.28-1.81,8.62-3.75,13.01-5.84Z"/>
        <path class="cls-3" d="m203.05,115.7c-5.83,5.82-12.1,11.66-18.85,17.43-22.87,3.39-53.36,5.65-88.89,2.04-36.73-3.72-66.99-12.51-89.09-20.74h0c1.19-4.27,2.56-8.46,4.1-12.57,24.41,8.39,58.31,17.25,99.43,19.77,37.42,2.29,69.35-1.38,93.31-5.93Z"/>
        <path class="cls-3" d="m177.2,1.88c3.92.52,7.79,1.19,11.61,2-10.56,11.73-24.03,29.27-35.12,52.99-9.5,20.29-14.32,38.84-16.89,53.05-4.05-.05-8.18-.16-12.38-.34,2.35-14.2,6.96-33.03,16.53-53.67,11.38-24.55,25.48-42.41,36.25-54.03Z"/>
        <path class="cls-3" d="m176.52,274.39c.31,5.02.17,13.26-3.2,22.61-2.38,6.62-5.59,11.63-8.19,15.04-2.89.16-5.81.24-8.74.24-1.8,0-3.59-.03-5.37-.09,2.5-3.5,5.18-7.82,7.61-12.99,3.58-7.65,5.45-14.7,6.47-20.23,3.75-1.42,7.56-2.94,11.42-4.58Z"/>
        <path class="cls-3" d="m184.2,133.13c-6.48,5.56-13.39,11.06-20.76,16.43h-.01c-21.78,1.95-49.68,2.51-81.66-1.73-31.72-4.2-58.33-11.91-78.76-19.4.85-4.74,1.92-9.41,3.2-14h0c22.1,8.23,52.36,17.02,89.09,20.74,35.53,3.61,66.02,1.35,88.89-2.04Z"/>
        <path class="cls-3" d="m164.17.69c4.39.22,8.74.61,13.03,1.19-10.77,11.62-24.87,29.48-36.25,54.03-9.57,20.64-14.18,39.47-16.53,53.67-3.7-.15-7.44-.36-11.24-.62,1.69-13.82,5.52-32.77,14.71-53.69,11.16-25.4,25.71-43.43,36.28-54.58Z"/>
        <path class="cls-3" d="m165.1,278.97c-1.02,5.53-2.89,12.58-6.47,20.23-2.43,5.17-5.11,9.49-7.61,12.99-4.58-.16-9.11-.51-13.58-1.05,2.55-2.62,5.74-6.46,8.52-11.65,3.27-6.11,4.71-11.73,5.38-15.66,4.49-1.47,9.08-3.09,13.76-4.86Z"/>
        <path class="cls-3" d="m163.43,149.56c-1.01.74-2.03,1.48-3.06,2.21-6.19,4.41-12.38,8.49-18.52,12.28h-.01c-18.95,1.35-43.34,1.39-71.26-2.96-28.23-4.4-51.67-11.97-69.42-19.11.42-4.58,1.03-9.1,1.85-13.55,20.43,7.49,47.04,15.2,78.76,19.4,31.98,4.24,59.88,3.68,81.66,1.73Z"/>
        <path class="cls-3" d="m156.39.5c2.61,0,5.2.06,7.78.19-10.57,11.15-25.12,29.18-36.28,54.58-9.19,20.92-13.02,39.87-14.71,53.69-2.19-.15-4.4-.31-6.63-.5-2.28-.19-4.54-.4-6.78-.62,2.44-14.31,7.2-33.32,16.97-54.16,11.27-24,25.05-41.57,35.67-53.13,1.32-.03,2.65-.05,3.98-.05Z"/>
        <path class="cls-3" d="m151.34,283.83c-.67,3.93-2.11,9.55-5.38,15.66-2.78,5.19-5.97,9.03-8.52,11.65-4.47-.54-8.88-1.27-13.22-2.19,2.29-2.32,5.09-5.64,7.61-10.05,2.25-3.94,3.62-7.62,4.48-10.54,4.86-1.34,9.88-2.84,15.03-4.53Z"/>
        <path class="cls-3" d="m139.35,1.42c4.3-.47,8.66-.76,13.06-.87-10.62,11.56-24.4,29.13-35.67,53.13-9.77,20.84-14.53,39.85-16.97,54.16-3.57-.36-7.09-.75-10.55-1.19,2.17-14.08,6.64-33.2,16.38-54.24,10.65-23.02,23.71-39.9,33.75-50.99Z"/>
        <path class="cls-3" d="m136.31,288.36c-.86,2.92-2.23,6.6-4.48,10.54-2.52,4.41-5.32,7.73-7.61,10.05-3.85-.8-7.64-1.75-11.37-2.83,2.77-4.66,5.54-9.31,8.31-13.97,4.85-1.09,9.91-2.34,15.15-3.79Z"/>
        <path class="cls-3" d="m126.79,3.31c4.13-.8,8.32-1.43,12.56-1.89-10.04,11.09-23.1,27.97-33.75,50.99-9.74,21.04-14.21,40.16-16.38,54.24-3.88-.48-7.69-1-11.43-1.57l.17-1.17c1.96-12.92,5.91-29.96,14.26-48.64,10.68-23.88,24.35-41.05,34.57-51.96Z"/>
        <path class="cls-3" d="m70.58,161.09c27.92,4.35,52.31,4.31,71.26,2.96-9.11,5.62-18.14,10.58-26.97,14.96-16.82-.53-36.71-2.34-58.72-6.73-21.5-4.29-40.17-10.08-55.65-15.89,0-4.86.22-9.67.66-14.41,17.75,7.14,41.19,14.71,69.42,19.11Z"/>
        <path class="cls-3" d="m121.16,292.15c-2.77,4.66-5.54,9.31-8.31,13.97-3.8-1.11-7.55-2.35-11.22-3.74,2.68-2.62,5.37-5.25,8.06-7.87,3.67-.69,7.5-1.47,11.47-2.36Z"/>
        <path class="cls-3" d="m112.57,6.75c4.65-1.37,9.4-2.52,14.22-3.44-10.22,10.91-23.89,28.08-34.57,51.96-8.35,18.68-12.3,35.72-14.26,48.64l-.17,1.17c-3.7-.56-7.33-1.16-10.88-1.79.93-11.21,3.39-25.98,9.71-42.28,10.25-26.48,25.77-44.32,35.95-54.26Z"/>
        <path class="cls-3" d="m109.69,294.51c-2.69,2.62-5.38,5.25-8.06,7.87-3.9-1.45-7.71-3.07-11.45-4.82h0c5.84-.74,12.38-1.72,19.51-3.05Z"/>
        <path class="cls-3" d="m95.85,12.69c5.43-2.28,11-4.27,16.72-5.94-10.18,9.94-25.7,27.78-35.95,54.26-6.32,16.3-8.78,31.07-9.71,42.28-4.03-.71-7.97-1.47-11.81-2.27,1.42-10.83,4.31-24.6,10.37-39.69,8.98-22.39,21.24-38.5,30.38-48.64Z"/>
        <path class="cls-3" d="m114.87,179.01c-8.09,4.02-16.03,7.55-23.73,10.65-13.01-.79-28.13-2.58-44.71-6.19-17.52-3.82-32.73-8.81-45.37-13.79-.37-4.38-.56-8.81-.56-13.29,15.48,5.81,34.15,11.6,55.65,15.89,22.01,4.39,41.9,6.2,58.72,6.73Z"/>
        <path class="cls-3" d="m81.92,19.42c4.51-2.47,9.16-4.71,13.93-6.73-9.14,10.14-21.4,26.25-30.38,48.64-6.06,15.09-8.95,28.86-10.37,39.69-3.48-.72-6.89-1.47-10.21-2.24,1.26-9.74,3.88-22.19,9.43-35.86,8.19-20.14,19.36-34.53,27.6-43.5Z"/>
        <path class="cls-3" d="m91.14,189.66c-9.88,3.99-19.37,7.28-28.31,10-8.31-.5-18.06-1.68-28.77-4.12-12.12-2.77-22.48-6.47-30.85-10.08-.98-5.17-1.7-10.44-2.15-15.78,12.64,4.98,27.85,9.97,45.37,13.79,16.58,3.61,31.7,5.4,44.71,6.19Z"/>
        <path class="cls-3" d="m81.92,19.42c-8.24,8.97-19.41,23.36-27.6,43.5-5.55,13.67-8.17,26.12-9.43,35.86-3.1-.72-6.13-1.45-9.09-2.21.96-8.7,3.27-20.86,9.15-34.31,6.9-15.8,15.93-26.99,22.44-33.87,4.66-3.25,9.51-6.25,14.53-8.97Z"/>
        <path class="cls-3" d="m67.39,28.39c-6.51,6.88-15.54,18.07-22.44,33.87-5.88,13.45-8.19,25.61-9.15,34.31-3.74-.95-7.37-1.93-10.87-2.92,1.2-6,3.1-13,6.14-20.54,4.87-12.05,11-21.38,16.19-28.03,0-.01.01-.02.02-.03,6.22-6.09,12.95-11.67,20.11-16.66Z"/>
        <path class="cls-3" d="m34.06,195.54c10.71,2.44,20.46,3.62,28.77,4.12-12.01,3.66-23.03,6.29-32.67,8.21-7.81-2.55-15.6-5.1-23.41-7.64-1.41-4.83-2.6-9.76-3.54-14.77,8.37,3.61,18.73,7.31,30.85,10.08Z"/>
        <path class="cls-3" d="m14.97,90.71c7.97-17.13,18.96-32.57,32.29-45.63-5.19,6.65-11.32,15.98-16.19,28.03-3.04,7.54-4.94,14.54-6.14,20.54-3.43-.97-6.75-1.95-9.95-2.94h-.01Z"/>
        <path class="cls-3" d="m6.75,200.23c7.81,2.54,15.6,5.09,23.41,7.64-7.47,1.49-14.12,2.54-19.75,3.32-1.35-3.59-2.57-7.25-3.66-10.96Z"/>
      </g>
      <g>
        <path class="cls-1" d="m309.02,124.53c1.44,6.94,2.42,14.05,2.9,21.3.24,3.49.36,7.01.36,10.56s-.12,7.14-.36,10.66c-.46,6.77-1.34,13.42-2.64,19.92"/>
        <path class="cls-1" d="m280.14,61.58c3.15,4.1,6.1,8.36,8.83,12.77,2.99,4.82,5.72,9.81,8.18,14.95,2.47,5.18,4.66,10.5,6.56,15.97,2.16,6.25,3.94,12.67,5.31,19.25"/>
        <path class="cls-1" d="m260.11,40.02c3.45,3.06,6.75,6.28,9.9,9.64,3.57,3.79,6.95,7.77,10.13,11.91"/>
        <path class="cls-1" d="m47.28,45.05c6.22-6.09,12.95-11.67,20.11-16.66,4.66-3.25,9.51-6.25,14.53-8.97,4.51-2.47,9.16-4.71,13.93-6.73,5.43-2.28,11-4.27,16.72-5.94,4.65-1.37,9.4-2.52,14.22-3.44,4.13-.8,8.32-1.43,12.56-1.89,4.3-.47,8.66-.76,13.06-.87,1.32-.03,2.65-.05,3.98-.05,2.61,0,5.2.06,7.78.19,4.39.22,8.74.61,13.03,1.19,3.92.52,7.79,1.19,11.61,2,3.79.8,7.52,1.73,11.2,2.8,4.22,1.23,8.37,2.64,12.44,4.21,4.16,1.6,8.22,3.37,12.2,5.31,3.73,1.82,7.37,3.78,10.92,5.88,3.8,2.24,7.5,4.65,11.08,7.19,2.82,2.01,5.56,4.1,8.23,6.28,1.78,1.45,3.52,2.94,5.23,4.46"/>
        <path class="cls-1" d="m43.05,263.42c-3.27-3.47-6.39-7.08-9.34-10.84-3.41-4.34-6.59-8.86-9.52-13.55-2.82-4.49-5.41-9.14-7.76-13.92-2.23-4.52-4.24-9.17-6.02-13.92-1.35-3.59-2.57-7.25-3.66-10.96-1.41-4.83-2.6-9.76-3.54-14.77-.98-5.17-1.7-10.44-2.15-15.78-.37-4.38-.56-8.81-.56-13.29,0-4.86.22-9.67.66-14.41.42-4.58,1.03-9.1,1.85-13.55.85-4.74,1.92-9.41,3.2-14,1.19-4.27,2.56-8.46,4.1-12.57,1.41-3.79,2.97-7.51,4.66-11.15,7.97-17.13,18.96-32.57,32.29-45.63"/>
        <path class="cls-1" d="m235.48,290.76c-4.33,2.55-8.79,4.9-13.37,7.03-4.18,1.95-8.47,3.72-12.84,5.29-4.54,1.64-9.18,3.07-13.91,4.29-4.81,1.24-9.71,2.25-14.69,3.03-5.1.8-10.28,1.35-15.54,1.64-2.89.16-5.81.24-8.74.24-1.8,0-3.59-.03-5.37-.09-4.58-.16-9.11-.51-13.58-1.05s-8.88-1.27-13.22-2.19c-3.85-.8-7.64-1.75-11.37-2.83-3.8-1.11-7.55-2.35-11.22-3.74-3.9-1.45-7.71-3.07-11.45-4.82-2.73-1.28-5.41-2.64-8.04-4.07-3.97-2.15-7.83-4.47-11.58-6.94-4.98-3.3-9.76-6.87-14.32-10.69-4.63-3.89-9.04-8.04-13.18-12.44"/>
        <path class="cls-1" d="m250.43,280.73c-4.77,3.62-9.76,6.97-14.95,10.02"/>
        <path class="cls-1" d="m262.84,270.28c-3.95,3.69-8.09,7.18-12.41,10.44"/>
        <path class="cls-1" d="m309.28,186.98c-1.23,6.19-2.83,12.24-4.77,18.14-1.97,6-4.3,11.84-6.96,17.5-2.88,6.12-6.14,12.03-9.77,17.69-3.51,5.5-7.37,10.76-11.53,15.76-4.17,5.01-8.65,9.76-13.41,14.2"/>
        <path class="cls-1" d="m141.84,164.05c-9.11,5.62-18.14,10.58-26.97,14.96-8.09,4.02-16.03,7.55-23.73,10.65-9.88,3.99-19.37,7.28-28.31,10-12.01,3.66-23.03,6.29-32.67,8.21-7.47,1.49-14.12,2.54-19.75,3.32"/>
        <path class="cls-1" d="m163.43,149.56c-1.01.74-2.03,1.48-3.06,2.21-6.19,4.41-12.38,8.49-18.52,12.28"/>
        <path class="cls-1" d="m260.11,40.01h0c-8.82,15.93-23.43,39.3-45.87,63.97-3.53,3.88-7.26,7.79-11.19,11.72-5.83,5.82-12.1,11.66-18.85,17.43-6.48,5.56-13.39,11.06-20.76,16.43"/>
        <path class="cls-1" d="m189.53,268.55c-4.39,2.09-8.73,4.03-13.01,5.84-3.86,1.64-7.67,3.16-11.42,4.58-4.68,1.77-9.27,3.39-13.76,4.86-5.15,1.69-10.17,3.19-15.03,4.53-5.24,1.45-10.3,2.7-15.15,3.79-3.97.89-7.8,1.67-11.47,2.36-7.13,1.33-13.67,2.31-19.51,3.04"/>
        <path class="cls-1" d="m279.24,205.15c-2.9,2.9-5.95,5.84-9.15,8.8-3.29,3.04-6.74,6.1-10.35,9.16-3.56,3.03-7.27,6.06-11.15,9.06-3.47,2.7-7.08,5.38-10.82,8.04s-7.61,5.29-11.62,7.88c-3.99,2.59-8.12,5.14-12.39,7.63-2.87,1.69-5.8,3.34-8.8,4.97-1.54.84-3.07,1.65-4.6,2.45-3.64,1.9-7.25,3.71-10.83,5.4"/>
        <path class="cls-1" d="m311.92,167.05c-2.21,3.01-4.68,6.29-7.44,9.77-2.17,2.74-4.52,5.61-7.05,8.59-2.69,3.17-5.58,6.46-8.69,9.84-2.97,3.23-6.14,6.54-9.5,9.89"/>
        <path class="cls-1" d="m14.98,90.71c3.2.99,6.52,1.97,9.95,2.94,3.5.99,7.13,1.97,10.87,2.92,2.96.76,5.99,1.49,9.09,2.21,3.32.77,6.73,1.52,10.21,2.24,3.84.8,7.78,1.56,11.81,2.27,3.55.63,7.18,1.23,10.88,1.79,3.74.57,7.55,1.09,11.43,1.57,3.46.44,6.98.83,10.55,1.19,2.24.22,4.5.43,6.78.62,2.23.19,4.44.35,6.63.5,3.8.26,7.54.47,11.24.62,4.2.18,8.33.29,12.38.34,4.23.06,8.37.05,12.44-.01,4.35-.07,8.61-.2,12.77-.39,4.14-.19,8.18-.43,12.13-.72,4.19-.31,8.27-.67,12.24-1.07,4.93-.5,9.67-1.07,14.23-1.69,4.75-.64,9.3-1.33,13.63-2.06"/>
        <path class="cls-1" d="m47.28,45.05s-.02.02-.02.03c-5.19,6.65-11.32,15.98-16.19,28.03-3.04,7.54-4.94,14.54-6.14,20.54"/>
        <path class="cls-1" d="m67.39,28.39c-6.51,6.88-15.54,18.07-22.44,33.87-5.88,13.45-8.19,25.61-9.15,34.31"/>
        <path class="cls-1" d="m81.94,19.39s-.02.02-.02.03c-8.24,8.97-19.41,23.36-27.6,43.5-5.55,13.67-8.17,26.12-9.43,35.86h0"/>
        <path class="cls-1" d="m95.85,12.69c-9.14,10.14-21.4,26.25-30.38,48.64-6.06,15.09-8.95,28.86-10.37,39.69"/>
        <path class="cls-1" d="m112.57,6.75c-10.18,9.94-25.7,27.78-35.95,54.26-6.32,16.3-8.78,31.07-9.71,42.28"/>
        <path class="cls-1" d="m126.79,3.31c-10.22,10.91-23.89,28.08-34.57,51.96-8.35,18.68-12.3,35.72-14.26,48.64"/>
        <path class="cls-1" d="m139.35,1.42c-10.04,11.09-23.1,27.97-33.75,50.99-9.74,21.04-14.21,40.16-16.38,54.24h0"/>
        <path class="cls-1" d="m152.41.55c-10.62,11.56-24.4,29.13-35.67,53.13-9.77,20.84-14.53,39.85-16.97,54.16"/>
        <path class="cls-1" d="m164.17.69c-10.57,11.15-25.12,29.18-36.28,54.58-9.19,20.92-13.02,39.87-14.71,53.69"/>
        <path class="cls-1" d="m177.2,1.88c-10.77,11.62-24.87,29.48-36.25,54.03-9.57,20.64-14.18,39.47-16.53,53.67"/>
        <path class="cls-1" d="m188.81,3.88c-10.56,11.73-24.03,29.27-35.12,52.99-9.5,20.29-14.32,38.84-16.89,53.05"/>
        <path class="cls-1" d="m200.01,6.68c-10.34,12.15-22.92,29.44-33.59,52.1-9.07,19.28-14.19,37.01-17.18,51.12"/>
        <path class="cls-1" d="m212.45,10.89c-10.18,11.29-22.88,27.77-33.6,49.8-8.99,18.47-13.97,35.46-16.84,48.83"/>
        <path class="cls-1" d="m224.65,16.2c-9.72,10.47-21.62,25.4-32.11,45.13-9.52,17.89-15.06,34.44-18.4,47.47"/>
        <path class="cls-1" d="m235.57,22.08c-8.98,9.5-19.78,22.69-29.65,39.88-9.9,17.22-15.86,33.21-19.54,45.77"/>
        <path class="cls-1" d="m246.65,29.27c-8.47,7.33-20.2,19.22-30.23,36.51-8.99,15.51-13.46,29.92-15.81,40.26"/>
        <path class="cls-1" d="m254.88,35.55c-7.72,7.8-17.2,18.92-25.72,33.74-7.44,12.95-12.03,25.02-14.92,34.69"/>
        <path class="cls-1" d="m10.31,101.86c24.41,8.39,58.31,17.25,99.43,19.77,37.42,2.29,69.35-1.38,93.31-5.93"/>
        <path class="cls-1" d="m6.22,114.43c22.1,8.23,52.36,17.02,89.09,20.74,35.53,3.61,66.02,1.35,88.89-2.04h.02"/>
        <path class="cls-1" d="m3,128.43h0c20.43,7.49,47.04,15.2,78.76,19.4,31.98,4.24,59.88,3.68,81.66,1.73h.01"/>
        <path class="cls-1" d="m1.16,141.98c17.75,7.14,41.19,14.71,69.42,19.11,27.92,4.35,52.31,4.31,71.26,2.96h.01"/>
        <path class="cls-1" d="m.5,156.39c15.48,5.81,34.15,11.6,55.65,15.89,22.01,4.39,41.9,6.2,58.72,6.73"/>
        <path class="cls-1" d="m1.06,169.68c12.64,4.98,27.85,9.97,45.37,13.79,16.58,3.61,31.7,5.4,44.71,6.19"/>
        <path class="cls-1" d="m3.21,185.46c8.37,3.61,18.73,7.31,30.85,10.08,10.71,2.44,20.46,3.62,28.77,4.12"/>
        <path class="cls-1" d="m6.75,200.23c7.81,2.54,15.6,5.09,23.41,7.64h.01"/>
        <path class="cls-1" d="m270.01,49.65h0c-8.35,16.79-22.29,41.1-44.54,66.38-48.95,55.63-105.15,78.57-128.39,87.75-30.22,11.94-57.98,18.09-80.65,21.33"/>
        <path class="cls-1" d="m280.14,61.57h0c-8.63,17.95-22.88,43.14-45.83,68.89-44.74,50.2-95.29,71.99-123.1,83.63-20.63,8.64-50.05,18.83-87.02,24.94"/>
        <path class="cls-1" d="m288.97,74.35c-19.97,38.7-43.37,65.59-60.26,82.32-8.06,7.98-48.87,47.55-116.91,74.5-30.97,12.27-58.35,18.26-78.09,21.41"/>
        <path class="cls-1" d="m297.15,89.3c-19.43,35.55-41.25,60.57-57.25,76.5-9.48,9.44-54.08,52.69-128.39,79.8-27.49,10.03-51.47,15.09-68.45,17.82h-.01"/>
        <path class="cls-1" d="m303.71,105.27c-20.32,35.57-42.88,60.54-59.39,76.43-9.09,8.74-50.46,47.55-118.38,74.21-27.84,10.93-52.26,16.71-69.7,19.95-.13.02-.26.05-.39.07"/>
        <path class="cls-1" d="m309.02,124.52h0c-20.47,32.33-42.07,55.13-57.93,69.84-47.29,43.87-94.93,63.46-118.08,72.74-25.28,10.12-47.17,15.99-62.44,19.44"/>
        <path class="cls-1" d="m311.93,145.82s0,.01-.01.01c-12.07,16.7-28.84,37.06-51.41,57.66-43.1,39.35-84.96,59.14-103.65,67.14-27.11,11.62-52.6,18.61-74.72,22.86h-.02"/>
        <path class="cls-1" d="m109.69,294.51c-2.69,2.62-5.38,5.25-8.06,7.87"/>
        <path class="cls-1" d="m121.16,292.14h0c-2.77,4.67-5.54,9.32-8.31,13.98"/>
        <path class="cls-1" d="m136.31,288.36c-.86,2.92-2.23,6.6-4.48,10.54-2.52,4.41-5.32,7.73-7.61,10.05"/>
        <path class="cls-1" d="m151.34,283.83c-.67,3.93-2.11,9.55-5.38,15.66-2.78,5.19-5.97,9.03-8.52,11.65"/>
        <path class="cls-1" d="m165.1,278.97c-1.02,5.53-2.89,12.58-6.47,20.23-2.43,5.17-5.11,9.49-7.61,12.99"/>
        <path class="cls-1" d="m176.52,274.39c.31,5.02.17,13.26-3.2,22.61-2.38,6.62-5.59,11.63-8.19,15.04"/>
        <path class="cls-1" d="m189.53,268.54h0c.43,5.67.4,13.72-1.75,23-1.84,7.93-4.66,14.29-7.11,18.86"/>
        <path class="cls-1" d="m200.36,263.14c1.16,5.76,2.19,14.48.67,24.87-1.18,8.1-3.55,14.66-5.67,19.36"/>
        <path class="cls-1" d="m213.76,255.72c1.56,5.18,3.53,14.15,2.29,25.22-1.12,9.92-4.37,17.53-6.78,22.14"/>
        <path class="cls-1" d="m226.15,248.09c1.57,6.43,3.16,16.42,1.68,28.43-1.09,8.85-3.51,16.07-5.72,21.27"/>
        <path class="cls-1" d="m237.77,240.2h0c1.94,5.01,4.63,13.87,4.19,25.13-.45,11.68-4.08,20.56-6.48,25.42h0"/>
        <path class="cls-1" d="m248.59,232.16h0c2.28,5.03,5.51,13.84,5.74,25.22.21,10.21-2.08,18.36-3.9,23.34h0"/>
        <path class="cls-1" d="m259.74,223.11c2.22,4.97,5.11,13.04,5.78,23.37.66,10.26-1.14,18.58-2.68,23.79h0"/>
        <path class="cls-1" d="m270.09,213.94h0c2.37,4.7,5.36,11.99,6.62,21.35,1.15,8.59.43,15.82-.46,20.78"/>
        <path class="cls-1" d="m279.24,205.14h0c2.33,3.2,5.56,8.5,7.48,15.72,2.21,8.3,1.68,15.35,1.06,19.45v.02"/>
        <path class="cls-1" d="m288.74,195.25c2.08,4.95,4.12,10.45,5.93,16.49,1.14,3.77,2.09,7.41,2.88,10.88"/>
        <path class="cls-1" d="m297.43,185.41c2.36,6.57,4.72,13.15,7.08,19.71.16.44.31.87.47,1.31"/>
        <path class="cls-1" d="m304.48,176.82c1.6,3.39,3.2,6.76,4.8,10.15h0"/>
      </g>
    </g>
  </g>
</svg>